<?xml version="1.0" encoding="UTF-8" standalone="no"?>
<svg width="512px" height="512px" viewBox="0 0 512 512" version="1.1" xmlns="http://www.w3.org/2000/svg" xmlns:xlink="http://www.w3.org/1999/xlink">
    <!-- Generator: Sketch 3.8.2 (29753) - http://www.bohemiancoding.com/sketch -->
    <title>phonegap</title>
    <desc>Created with Sketch.</desc>
    <defs></defs>
    <g id="Page-1" stroke="none" stroke-width="1" fill="none" fill-rule="evenodd">
        <g id="phonegap">
            <rect id="Rectangle-1" fill="#27A1C5" x="0" y="0" width="512" height="512"></rect>
            <g id="Group" transform="translate(95.000000, 80.000000)">
                <g id="phone-gap-icon">
                    <path d="M294.469258,121.463559 C292.617206,89.6186457 292.513236,88.7525039 290.446313,84.5188031 C288.067481,79.6864252 283.783918,75.2864252 278.694936,72.6907717 C275.672876,71.144189 270.635185,70.6258898 229.047202,67.4565039 C194.803657,64.8497638 180.04824,63.8630551 172.358622,64.1111181 C167.745129,64.2524724 165.667116,64.8331339 163.523948,65.8212283 C158.457146,68.175748 154.685116,72.7018583 153.053481,78.2465512 C151.909811,82.1753701 151.972193,87.792126 154.259532,149.990803 C155.633322,187.129575 157.040382,226.487055 157.42715,237.504378 C158.203459,259.242457 158.848073,262.569827 163.26333,268.965417 C167.031202,274.43389 173.965305,277.892913 181.178047,277.97052 C183.387755,277.982992 206.372047,275.826646 232.210661,273.170016 C258.040957,270.49537 280.6163,267.969008 282.389335,267.507528 C291.388974,265.110047 298.732026,258.613291 300.905691,251.139528 C302.042429,247.26337 301.91212,243.47452 299.274056,200.565165 C297.700644,175.060409 295.518661,139.436346 294.469258,121.463559 L294.469258,121.463559 Z M220.287386,269.418583 C220.011519,269.716535 212.353785,270.63811 203.308399,271.552756 C194.24915,272.48126 185.55033,273.43748 184.003258,273.619024 C182.465888,273.792252 179.62127,273.581606 177.670794,273.193575 C170.240408,271.699654 165.211034,266.167433 163.166292,257.332787 C162.635352,254.997669 162.32067,253.022866 162.484249,252.873197 C162.647828,252.730457 168.288545,252.016756 175.096498,251.326614 C185.883034,250.23874 188.131558,249.744 192.580086,247.561323 C195.471837,246.142236 198.618661,243.870866 199.783124,242.329827 C204.194223,236.564787 204.091639,238.193134 201.163845,171.012409 C198.276253,104.751874 198.231893,103.777638 193.78891,98.4034016 C189.524755,93.248126 184.958395,91.3966614 173.628442,90.4293543 C155.733133,88.8952441 156.738176,89.2652598 156.738176,85.3807874 C156.754811,79.8388661 158.311588,75.7673071 161.619219,72.6048504 C164.736931,69.6336378 167.067245,68.4113386 173.977781,68.3184882 C178.125489,68.2658268 183.978305,68.608126 192.495524,69.2663937 L211.706399,70.8074331 L216.240876,169.813669 C218.730609,224.282205 220.567412,269.113701 220.287386,269.418583 L220.287386,269.418583 Z" id="Shape"></path>
                    <path d="M319.42482,254.75515 C314.956884,188.824441 308.671554,91.9094173 307.245086,67.2915906 C305.833867,42.9024252 304.984086,38.5010394 300.043433,31.2032756 C296.522318,26.0119685 288.89924,20.3605669 283.320906,18.6851024 C281.037725,18.0046614 266.860382,15.6279685 251.841575,13.4522205 C180.605519,3.13474016 160.729236,0.285480315 151.927833,0.680440945 C148.990335,0.810708661 147.26582,1.3664252 145.330592,2.0551811 C133.136996,6.36787402 127.827597,15.7610079 127.833142,33.0006929 C127.833142,37.8788031 129.249906,86.6585197 131.006305,141.348787 C132.755773,196.034898 134.770017,259.382425 135.46315,282.09474 C136.366996,311.995339 137.060129,324.954205 137.945953,329.156031 C140.133481,339.491528 146.912322,347.157921 156.553803,350.241386 C159.076807,351.060409 163.578013,351.77411 166.588983,351.799055 C172.540223,351.846173 295.391124,331.118362 302.2573,328.898268 C308.003373,327.055118 314.761421,320.354646 317.868043,313.566866 C322.692249,303.035969 322.708884,303.246614 319.42482,254.75515 L319.42482,254.75515 Z M300.89876,251.160315 C298.722322,258.641008 291.370953,265.134992 282.376858,267.52 C280.6163,267.989795 258.036798,270.521701 232.200957,273.194961 C206.373433,275.852976 183.375279,278.00378 181.179433,277.984378 C173.955601,277.924787 167.032588,274.465764 163.259172,268.983433 C158.849459,262.589228 158.204845,259.261858 157.428536,237.532094 C157.041768,226.500913 155.619459,187.150362 154.260918,150.015748 C151.965262,87.8142992 151.911197,82.1892283 153.054867,78.2701102 C154.689275,72.7226457 158.447442,68.1965354 163.514245,65.8420157 C165.654639,64.8386772 167.732652,64.2788031 172.360009,64.1291339 C180.042695,63.879685 194.803657,64.8733228 229.038884,67.4745197 C270.636571,70.6314331 275.654854,71.1580472 278.696322,72.7101732 C283.785305,75.2988976 288.08273,79.7044409 290.435223,84.5368189 C292.514622,88.7732913 292.622751,89.6325039 294.463712,121.485732 C295.508957,139.459906 297.696485,175.077039 299.267124,200.601197 C301.902416,243.496693 302.018863,247.291087 300.89876,251.160315 L300.89876,251.160315 Z" id="Shape" fill="#FFFFFF"></path>
                    <path d="M113.679365,257.242709 C97.0843734,258.914016 92.9186438,258.679811 87.8670901,256.055055 C83.271618,253.646488 79.5633562,248.197417 78.1826352,241.814299 C77.7639828,239.907402 76.7256695,206.887307 75.9507468,168.450016 C74.3676309,89.6186457 74.1749399,94.1752441 80.494927,88.4684094 C85.4425107,83.9991181 88.1332532,83.6498898 105.709721,84.7834961 C114.103562,85.3225827 121.812588,85.9157165 122.861991,86.1582362 L124.838807,86.6709921 L124.325888,69.0973228 C124.052794,59.4408819 123.62721,48.6466772 123.384614,45.1045039 L122.870309,38.5869606 L100.662326,36.3557795 C87.251588,34.9824252 81.911691,34.4377953 78.536133,34.5500472 C76.5052532,34.6207244 75.1675064,34.928378 73.3015923,35.4106457 C66.5227511,37.1595591 63.1111502,39.343622 60.2679185,43.8129134 C55.3993519,51.4696063 55.6419485,40.055937 58.0318712,171.017953 C60.1986052,289.391118 60.3912961,296.625134 62.6647725,301.749921 C65.9432918,309.111433 71.596485,313.597354 79.8184292,315.369827 C82.6006652,315.980976 85.5977725,316.452157 86.5085494,316.488189 C88.7723219,316.585197 131.179588,311.095937 131.620421,310.666331 C131.964215,310.314331 130.264652,256.183937 129.904223,255.797291 C129.785004,255.687811 122.484927,256.362709 113.679365,257.242709 L113.679365,257.242709 Z M211.709172,70.8060472 L192.49691,69.2650079 C183.978305,68.6067402 178.126876,68.2644409 173.979167,68.3171024 C167.064472,68.4099528 164.742476,69.6405669 161.620605,72.6034646 C158.304657,75.7673071 156.757584,79.8374803 156.728472,85.3794016 C156.728472,89.2708031 155.744223,88.8938583 173.628442,90.4279685 C184.958395,91.3966614 189.513665,93.248126 193.78891,98.4020157 C198.231893,103.776252 198.276253,104.747717 201.163845,171.011024 C204.091639,238.186205 204.201155,236.563402 199.791442,242.328441 C198.607571,243.86948 195.471837,246.129764 192.588403,247.559937 C188.131558,249.742614 185.877489,250.237354 175.096498,251.325228 C168.303794,252.01537 162.649215,252.726299 162.478704,252.871811 C162.32067,253.014551 162.622876,254.996283 163.166292,257.331402 C165.211034,266.171591 170.240408,271.698268 177.670794,273.192189 C179.607408,273.578835 182.465888,273.799181 184.003258,273.617638 C185.55033,273.436094 194.24915,272.46463 203.308399,271.55137 C212.353785,270.636724 220.001815,269.71515 220.287386,269.417197 C220.567412,269.112315 218.743086,224.280819 216.256124,169.810898 L211.709172,70.8060472 L211.709172,70.8060472 Z" id="Shape" fill-opacity="0.6" fill="#FFFFFF"></path>
                    <path d="M54.4206481,230.931402 C54.3485622,230.826079 49.1154077,231.126803 42.8453262,231.610457 C28.8024506,232.695559 25.1621159,232.234079 21.3249313,228.869291 C15.9670129,224.175496 16.1444549,225.819087 14.8843391,170.064504 L13.6907639,119.41115 L15.4041888,116.065764 C16.6934163,113.547717 18.0561159,112.308787 20.8106266,111.093417 C24.2180687,109.585638 25.454618,109.524661 38.5645365,110.06652 L52.6295923,110.667969 L52.1166738,94.3845039 C51.8172403,85.4209764 51.1684678,77.8460472 50.7414979,77.5813543 C49.5922833,76.8773543 23.9394292,74.7611969 17.3768455,74.8415748 C8.24828326,74.9482835 1.938,79.5381417 0.481034335,87.0950551 C0.17051073,88.6942992 0.364587983,114.533039 0.908004292,144.532031 C2.53548069,233.985764 3.22029614,257.715276 4.34178541,261.455622 C5.69478112,265.974803 10.4136309,270.516157 15.2295193,271.993449 C20.3462275,273.569134 22.9607253,273.498457 39.494721,271.652535 C47.2245408,270.785008 54.0380386,270.038047 54.5897725,270.025575 C55.3757854,270.013102 55.4173734,265.825134 55.0167425,250.576882 C54.7436481,239.864441 54.4968927,231.035339 54.4206481,230.931402 L54.4206481,230.931402 Z M107.374627,219.440126 L105.772103,222.013606 C102.128996,225.896693 97.6998755,227.683024 89.3656438,228.273386 L82.2776652,228.787528 L82.1210172,233.168126 C81.5415579,242.788535 84.8062146,249.608189 91.2620558,252.536441 C93.0434077,253.342992 96.1597339,253.923654 98.1462532,253.911181 C103.565167,253.877921 121.24006,252.018142 121.827837,251.431937 C122.551468,250.70715 122.407296,233.35937 121.069549,173.002457 C119.315923,94.8071811 119.101052,92.2032126 115.836395,90.4487559 C113.995433,89.4648189 100.911854,88.8661417 93.0267725,89.0754016 C90.4011845,89.1502362 88.3079227,89.3151496 87.4539828,89.592315 C81.3253004,91.615622 78.379485,98.1290079 79.3096695,107.337827 L79.8253605,112.648315 L88.741824,113.076535 C99.4230043,113.551874 102.525468,115.112315 105.952318,120.280063 L107.378785,123.614362 L107.378785,219.441512 L107.374627,219.441512 L107.374627,219.440126 Z" id="Shape" fill-opacity="0.3" fill="#FFFFFF"></path>
                </g>
            </g>
        </g>
    </g>
</svg>