<?xml version="1.0" encoding="UTF-8"?>
<svg width="204px" height="70px" viewBox="0 0 204 70" version="1.1" xmlns="http://www.w3.org/2000/svg" xmlns:xlink="http://www.w3.org/1999/xlink">
    <!-- Generator: Sketch 52.5 (67469) - http://www.bohemiancoding.com/sketch -->
    <title>fiddle-logo</title>
    <desc>Created with Sketch.</desc>
    <g id="Site" stroke="none" stroke-width="1" fill="none" fill-rule="evenodd">
        <g id="Fiddle" transform="translate(-171.000000, -133.000000)">
            <g id="Name" transform="translate(168.000000, 106.000000)">
                <path d="M4.756,92.46 L4.756,64.96 C4.756,63.992 5.548,63.2 6.472,63.2 L25.524,63.2 C26.404,63.2 27.108,63.904 27.108,64.784 C27.108,65.664 26.404,66.412 25.524,66.412 L8.232,66.412 L8.232,77.412 L23.544,77.412 C24.424,77.412 25.128,78.116 25.128,78.996 C25.128,79.876 24.424,80.58 23.544,80.58 L8.232,80.58 L8.232,92.46 C8.232,93.428 7.44,94.22 6.472,94.22 C5.548,94.22 4.756,93.428 4.756,92.46 Z M41.928,92.46 L41.928,64.74 C41.928,63.772 42.72,62.98 43.644,62.98 C44.612,62.98 45.404,63.772 45.404,64.74 L45.404,92.46 C45.404,93.428 44.612,94.22 43.644,94.22 C42.72,94.22 41.928,93.428 41.928,92.46 Z M62.424,92.24 L62.424,64.96 C62.424,63.992 63.216,63.2 64.14,63.2 L73.116,63.2 C82.796,63.2 89.484,69.844 89.484,78.512 L89.484,78.6 C89.484,87.268 82.796,94 73.116,94 L64.14,94 C63.216,94 62.424,93.208 62.424,92.24 Z M65.9,90.788 L73.116,90.788 C80.904,90.788 85.876,85.508 85.876,78.688 L85.876,78.6 C85.876,71.78 80.904,66.412 73.116,66.412 L65.9,66.412 L65.9,90.788 Z M104.832,92.24 L104.832,64.96 C104.832,63.992 105.624,63.2 106.548,63.2 L115.524,63.2 C125.204,63.2 131.892,69.844 131.892,78.512 L131.892,78.6 C131.892,87.268 125.204,94 115.524,94 L106.548,94 C105.624,94 104.832,93.208 104.832,92.24 Z M108.308,90.788 L115.524,90.788 C123.312,90.788 128.284,85.508 128.284,78.688 L128.284,78.6 C128.284,71.78 123.312,66.412 115.524,66.412 L108.308,66.412 L108.308,90.788 Z M147.24,92.24 L147.24,64.74 C147.24,63.772 148.032,62.98 148.956,62.98 C149.924,62.98 150.716,63.772 150.716,64.74 L150.716,90.788 L166.688,90.788 C167.568,90.788 168.272,91.536 168.272,92.416 C168.272,93.296 167.568,94 166.688,94 L148.956,94 C148.032,94 147.24,93.208 147.24,92.24 Z M184.192,94 C183.268,94 182.476,93.208 182.476,92.24 L182.476,64.96 C182.476,63.992 183.268,63.2 184.192,63.2 L203.332,63.2 C204.212,63.2 204.916,63.904 204.916,64.784 C204.916,65.664 204.212,66.368 203.332,66.368 L185.952,66.368 L185.952,76.884 L201.352,76.884 C202.232,76.884 202.936,77.632 202.936,78.468 C202.936,79.348 202.232,80.052 201.352,80.052 L185.952,80.052 L185.952,90.832 L203.552,90.832 C204.432,90.832 205.136,91.536 205.136,92.416 C205.136,93.296 204.432,94 203.552,94 L184.192,94 Z" id="FIDDLE" fill="#A7ECF9"></path>
                <path d="M28.016,46 C27.512,46 27.08,45.568 27.08,45.04 L27.08,30.16 C27.08,29.632 27.512,29.2 28.016,29.2 L38.456,29.2 C38.936,29.2 39.32,29.584 39.32,30.064 C39.32,30.544 38.936,30.928 38.456,30.928 L28.976,30.928 L28.976,36.664 L37.376,36.664 C37.856,36.664 38.24,37.072 38.24,37.528 C38.24,38.008 37.856,38.392 37.376,38.392 L28.976,38.392 L28.976,44.272 L38.576,44.272 C39.056,44.272 39.44,44.656 39.44,45.136 C39.44,45.616 39.056,46 38.576,46 L28.016,46 Z M46.86,45.04 L46.86,30.04 C46.86,29.512 47.292,29.08 47.796,29.08 C48.324,29.08 48.756,29.512 48.756,30.04 L48.756,44.248 L57.468,44.248 C57.948,44.248 58.332,44.656 58.332,45.136 C58.332,45.616 57.948,46 57.468,46 L47.796,46 C47.292,46 46.86,45.568 46.86,45.04 Z M66.352,46 C65.848,46 65.416,45.568 65.416,45.04 L65.416,30.16 C65.416,29.632 65.848,29.2 66.352,29.2 L76.792,29.2 C77.272,29.2 77.656,29.584 77.656,30.064 C77.656,30.544 77.272,30.928 76.792,30.928 L67.312,30.928 L67.312,36.664 L75.712,36.664 C76.192,36.664 76.576,37.072 76.576,37.528 C76.576,38.008 76.192,38.392 75.712,38.392 L67.312,38.392 L67.312,44.272 L76.912,44.272 C77.392,44.272 77.776,44.656 77.776,45.136 C77.776,45.616 77.392,46 76.912,46 L66.352,46 Z M92.876,46.288 C88.028,46.288 84.452,42.472 84.452,37.648 L84.452,37.6 C84.452,32.848 88.004,28.912 92.948,28.912 C95.66,28.912 97.388,29.8 98.948,31.096 C99.14,31.264 99.332,31.528 99.332,31.864 C99.332,32.368 98.876,32.8 98.372,32.8 C98.108,32.8 97.892,32.68 97.748,32.584 C96.452,31.432 94.988,30.664 92.924,30.664 C89.204,30.664 86.42,33.688 86.42,37.552 L86.42,37.6 C86.42,41.488 89.228,44.536 92.924,44.536 C95.012,44.536 96.476,43.816 97.916,42.496 C98.06,42.352 98.276,42.232 98.516,42.232 C98.996,42.232 99.428,42.664 99.428,43.144 C99.428,43.432 99.284,43.672 99.116,43.816 C97.46,45.328 95.636,46.288 92.876,46.288 Z M111.048,45.16 L111.048,30.952 L106.176,30.952 C105.696,30.952 105.288,30.568 105.288,30.088 C105.288,29.608 105.696,29.2 106.176,29.2 L117.84,29.2 C118.32,29.2 118.728,29.608 118.728,30.088 C118.728,30.568 118.32,30.952 117.84,30.952 L112.968,30.952 L112.968,45.16 C112.968,45.688 112.536,46.12 112.008,46.12 C111.48,46.12 111.048,45.688 111.048,45.16 Z M125.86,45.16 L125.86,30.16 C125.86,29.632 126.292,29.2 126.796,29.2 L133.084,29.2 C135.148,29.2 136.804,29.824 137.86,30.88 C138.676,31.696 139.156,32.872 139.156,34.192 L139.156,34.24 C139.156,37 137.284,38.608 134.668,39.112 L138.844,44.488 C139.036,44.704 139.156,44.92 139.156,45.184 C139.156,45.688 138.676,46.12 138.196,46.12 C137.812,46.12 137.524,45.904 137.308,45.616 L132.58,39.472 L127.756,39.472 L127.756,45.16 C127.756,45.688 127.324,46.12 126.796,46.12 C126.292,46.12 125.86,45.688 125.86,45.16 Z M127.756,37.768 L132.916,37.768 C135.436,37.768 137.236,36.472 137.236,34.312 L137.236,34.264 C137.236,32.2 135.652,30.952 132.94,30.952 L127.756,30.952 L127.756,37.768 Z M154.712,46.288 C149.6,46.288 146.168,42.28 146.168,37.648 L146.168,37.6 C146.168,32.968 149.648,28.912 154.76,28.912 C159.872,28.912 163.304,32.92 163.304,37.552 L163.304,37.6 C163.304,42.232 159.824,46.288 154.712,46.288 Z M154.76,44.536 C158.6,44.536 161.336,41.464 161.336,37.648 L161.336,37.6 C161.336,33.784 158.552,30.664 154.712,30.664 C150.872,30.664 148.136,33.736 148.136,37.552 L148.136,37.6 C148.136,41.416 150.92,44.536 154.76,44.536 Z M171.012,45.184 L171.012,30.064 C171.012,29.56 171.444,29.128 171.948,29.128 L172.212,29.128 C172.644,29.128 172.908,29.344 173.172,29.68 L183.372,42.688 L183.372,30.016 C183.372,29.512 183.78,29.08 184.308,29.08 C184.812,29.08 185.22,29.512 185.22,30.016 L185.22,45.184 C185.22,45.688 184.86,46.072 184.356,46.072 L184.26,46.072 C183.852,46.072 183.564,45.832 183.276,45.496 L172.86,32.176 L172.86,45.184 C172.86,45.688 172.452,46.12 171.924,46.12 C171.42,46.12 171.012,45.688 171.012,45.184 Z" id="ELECTRON" fill="#47848F"></path>
            </g>
        </g>
    </g>
</svg>