<?xml version="1.0" encoding="UTF-8" standalone="no"?>
<svg width="236px" height="200px" viewBox="0 0 236 200" version="1.1" xmlns="http://www.w3.org/2000/svg" xmlns:xlink="http://www.w3.org/1999/xlink">
    <!-- Generator: Sketch 3.7.2 (28276) - http://www.bohemiancoding.com/sketch -->
    <title>cross-platform</title>
    <desc>Created with Sketch.</desc>
    <defs></defs>
    <g id="Page-4" stroke="none" stroke-width="1" fill="none" fill-rule="evenodd">
        <g id="package" transform="translate(0.000000, -18.000000)">
            <g id="faded" transform="translate(13.000000, 26.000000)" fill="#E8F6F8">
                <path d="M153,117.956021 L153,140.970241 C153,142.35664 153.92,143.558185 155.3,143.9587 L175.233333,149.288633 C175.724,149.442678 176.276,149.442678 176.766667,149.288633 L196.7,143.9587 C198.08,143.558185 199,142.35664 199,140.970241 L199,117.956021 C199,116.569623 198.08,115.368077 196.7,114.967562 L176.766667,109.60682 C176.276,109.514393 175.724,109.514393 175.233333,109.60682 L155.3,114.967562 C153.92,115.368077 153,116.569623 153,117.956021 L153,117.956021 Z M174.466667,145.961276 L156.066667,141.062667 L156.066667,120.205068 L174.466667,125.165295 L174.466667,145.961276 L174.466667,145.961276 Z M156.066667,117.124182 L163.733333,115.059988 L183.666667,120.389921 L176,122.454115 L156.066667,117.124182 L156.066667,117.124182 Z M195.933333,141.062667 L177.533333,145.961276 L177.533333,125.165295 L183.666667,123.470808 L183.666667,130.98817 L189.8,129.3553 L189.8,121.837938 L195.933333,120.205068 L195.933333,141.062667 L195.933333,141.062667 Z M189.8,118.757052 L169.866667,113.427119 L176,111.794249 L195.933333,117.124182 L189.8,118.757052 L189.8,118.757052 Z" id="4"></path>
                <path d="M3,95.5585974 L3,114.570344 C3,115.71563 3.76,116.708211 4.9,117.039071 L21.3666667,121.44206 C21.772,121.569313 22.228,121.569313 22.6333333,121.44206 L39.1,117.039071 C40.24,116.708211 41,115.71563 41,114.570344 L41,95.5585974 C41,94.4133114 40.24,93.4207303 39.1,93.0898699 L22.6333333,88.661431 C22.228,88.5850786 21.772,88.5850786 21.3666667,88.661431 L4.9,93.0898699 C3.76,93.4207303 3,94.4133114 3,95.5585974 L3,95.5585974 Z M20.7333333,118.693373 L5.53333333,114.646696 L5.53333333,97.4165057 L20.7333333,101.514084 L20.7333333,118.693373 L20.7333333,118.693373 Z M5.53333333,94.8714258 L11.8666667,93.1662223 L28.3333333,97.5692105 L22,99.274414 L5.53333333,94.8714258 L5.53333333,94.8714258 Z M38.4666667,114.646696 L23.2666667,118.693373 L23.2666667,101.514084 L28.3333333,100.11429 L28.3333333,106.324285 L33.4,104.975393 L33.4,98.765398 L38.4666667,97.4165057 L38.4666667,114.646696 L38.4666667,114.646696 Z M33.4,96.2203181 L16.9333333,91.81733 L22,90.4684377 L38.4666667,94.8714258 L33.4,96.2203181 L33.4,96.2203181 Z" id="3"></path>
                <path d="M43,130.77301 L43,153.28692 C43,154.64318 43.9,155.818605 45.25,156.210413 L64.75,161.424478 C65.23,161.575174 65.77,161.575174 66.25,161.424478 L85.75,156.210413 C87.1,155.818605 88,154.64318 88,153.28692 L88,130.77301 C88,129.41675 87.1,128.241325 85.75,127.849517 L66.25,122.605313 C65.77,122.514896 65.23,122.514896 64.75,122.605313 L45.25,127.849517 C43.9,128.241325 43,129.41675 43,130.77301 L43,130.77301 Z M64,158.169455 L46,153.377338 L46,132.973165 L64,137.82556 L64,158.169455 L64,158.169455 Z M46,129.959254 L53.5,127.939934 L73,133.153999 L65.5,135.173319 L46,129.959254 L46,129.959254 Z M85,153.377338 L67,158.169455 L67,137.82556 L73,136.16791 L73,143.521851 L79,141.924478 L79,134.570537 L85,132.973165 L85,153.377338 L85,153.377338 Z M79,131.556627 L59.5,126.342562 L65.5,124.745189 L85,129.959254 L79,131.556627 L79,131.556627 Z" id="3"></path>
                <path d="M151,6.02784003 L151,21.0371136 C151,21.9412867 151.6,22.7249034 152.5,22.986109 L165.5,26.4621522 C165.82,26.5626159 166.18,26.5626159 166.5,26.4621522 L179.5,22.986109 C180.4,22.7249034 181,21.9412867 181,21.0371136 L181,6.02784003 C181,5.12366692 180.4,4.34005023 179.5,4.07884467 L166.5,0.582708655 C166.18,0.522430448 165.82,0.522430448 165.5,0.582708655 L152.5,4.07884467 C151.6,4.34005023 151,5.12366692 151,6.02784003 L151,6.02784003 Z M165,24.2921368 L153,21.0973918 L153,7.49460974 L165,10.7295402 L165,24.2921368 L165,24.2921368 Z M153,5.48533617 L158,4.13912287 L171,7.61516615 L166,8.96137944 L153,5.48533617 L153,5.48533617 Z M179,21.0973918 L167,24.2921368 L167,10.7295402 L171,9.62443972 L171,14.5270672 L175,13.4621522 L175,8.55952473 L179,7.49460974 L179,21.0973918 L179,21.0973918 Z M175,6.55025116 L162,3.07420788 L166,2.00929289 L179,5.48533617 L175,6.55025116 L175,6.55025116 Z" id="2"></path>
                <path d="M120,163.02784 L120,178.037114 C120,178.941287 120.6,179.724903 121.5,179.986109 L134.5,183.462152 C134.82,183.562616 135.18,183.562616 135.5,183.462152 L148.5,179.986109 C149.4,179.724903 150,178.941287 150,178.037114 L150,163.02784 C150,162.123667 149.4,161.34005 148.5,161.078845 L135.5,157.582709 C135.18,157.52243 134.82,157.52243 134.5,157.582709 L121.5,161.078845 C120.6,161.34005 120,162.123667 120,163.02784 L120,163.02784 Z M134,181.292137 L122,178.097392 L122,164.49461 L134,167.72954 L134,181.292137 L134,181.292137 Z M122,162.485336 L127,161.139123 L140,164.615166 L135,165.961379 L122,162.485336 L122,162.485336 Z M148,178.097392 L136,181.292137 L136,167.72954 L140,166.62444 L140,171.527067 L144,170.462152 L144,165.559525 L148,164.49461 L148,178.097392 L148,178.097392 Z M144,163.550251 L131,160.074208 L135,159.009293 L148,162.485336 L144,163.550251 L144,163.550251 Z" id="2"></path>
                <path d="M4,162.02784 L4,177.037114 C4,177.941287 4.6,178.724903 5.5,178.986109 L18.5,182.462152 C18.82,182.562616 19.18,182.562616 19.5,182.462152 L32.5,178.986109 C33.4,178.724903 34,177.941287 34,177.037114 L34,162.02784 C34,161.123667 33.4,160.34005 32.5,160.078845 L19.5,156.582709 C19.18,156.52243 18.82,156.52243 18.5,156.582709 L5.5,160.078845 C4.6,160.34005 4,161.123667 4,162.02784 L4,162.02784 Z M18,180.292137 L6,177.097392 L6,163.49461 L18,166.72954 L18,180.292137 L18,180.292137 Z M6,161.485336 L11,160.139123 L24,163.615166 L19,164.961379 L6,161.485336 L6,161.485336 Z M32,177.097392 L20,180.292137 L20,166.72954 L24,165.62444 L24,170.527067 L28,169.462152 L28,164.559525 L32,163.49461 L32,177.097392 L32,177.097392 Z M28,162.550251 L15,159.074208 L19,158.009293 L32,161.485336 L28,162.550251 L28,162.550251 Z" id="2"></path>
                <path d="M6,20.02784 L6,35.0371136 C6,35.9412867 6.6,36.7249034 7.5,36.986109 L20.5,40.4621522 C20.82,40.5626159 21.18,40.5626159 21.5,40.4621522 L34.5,36.986109 C35.4,36.7249034 36,35.9412867 36,35.0371136 L36,20.02784 C36,19.1236669 35.4,18.3400502 34.5,18.0788447 L21.5,14.5827087 C21.18,14.5224304 20.82,14.5224304 20.5,14.5827087 L7.5,18.0788447 C6.6,18.3400502 6,19.1236669 6,20.02784 L6,20.02784 Z M20,38.2921368 L8,35.0973918 L8,21.4946097 L20,24.7295402 L20,38.2921368 L20,38.2921368 Z M8,19.4853362 L13,18.1391229 L26,21.6151662 L21,22.9613794 L8,19.4853362 L8,19.4853362 Z M34,35.0973918 L22,38.2921368 L22,24.7295402 L26,23.6244397 L26,28.5270672 L30,27.4621522 L30,22.5595247 L34,21.4946097 L34,35.0973918 L34,35.0973918 Z M30,20.5502512 L17,17.0742079 L21,16.0092929 L34,19.4853362 L30,20.5502512 L30,20.5502512 Z" id="2"></path>
                <path d="M67,8.28267002 L67,15.7873068 C67,16.2393934 67.3,16.6312017 67.75,16.7618045 L74.25,18.4998261 C74.41,18.550058 74.59,18.550058 74.75,18.4998261 L81.25,16.7618045 C81.7,16.6312017 82,16.2393934 82,15.7873068 L82,8.28267002 C82,7.83058346 81.7,7.43877512 81.25,7.30817233 L74.75,5.56010433 C74.59,5.52996522 74.41,5.52996522 74.25,5.56010433 L67.75,7.30817233 C67.3,7.43877512 67,7.83058346 67,8.28267002 L67,8.28267002 Z M74,17.4148184 L68,15.8174459 L68,9.01605487 L74,10.6335201 L74,17.4148184 L74,17.4148184 Z M68,8.01141808 L70.5,7.33831144 L77,9.07633308 L74.5,9.74943972 L68,8.01141808 L68,8.01141808 Z M81,15.8174459 L75,17.4148184 L75,10.6335201 L77,10.0809699 L77,12.5322836 L79,11.9998261 L79,9.54851236 L81,9.01605487 L81,15.8174459 L81,15.8174459 Z M79,8.54387558 L72.5,6.80585394 L74.5,6.27339645 L81,8.01141808 L79,8.54387558 L79,8.54387558 Z" id="1"></path>
                <path d="M195,60.28267 L195,67.7873068 C195,68.2393934 195.3,68.6312017 195.75,68.7618045 L202.25,70.4998261 C202.41,70.550058 202.59,70.550058 202.75,70.4998261 L209.25,68.7618045 C209.7,68.6312017 210,68.2393934 210,67.7873068 L210,60.28267 C210,59.8305835 209.7,59.4387751 209.25,59.3081723 L202.75,57.5601043 C202.59,57.5299652 202.41,57.5299652 202.25,57.5601043 L195.75,59.3081723 C195.3,59.4387751 195,59.8305835 195,60.28267 L195,60.28267 Z M202,69.4148184 L196,67.8174459 L196,61.0160549 L202,62.6335201 L202,69.4148184 L202,69.4148184 Z M196,60.0114181 L198.5,59.3383114 L205,61.0763331 L202.5,61.7494397 L196,60.0114181 L196,60.0114181 Z M209,67.8174459 L203,69.4148184 L203,62.6335201 L205,62.0809699 L205,64.5322836 L207,63.9998261 L207,61.5485124 L209,61.0160549 L209,67.8174459 L209,67.8174459 Z M207,60.5438756 L200.5,58.8058539 L202.5,58.2733964 L209,60.0114181 L207,60.5438756 L207,60.5438756 Z" id="1"></path>
            </g>
            <g id="Main" transform="translate(43.000000, 53.000000)" stroke-width="2" stroke-linecap="round" stroke-linejoin="round">
                <path d="M6.9388939e-18,106.390355 C6.9388939e-18,108.045842 1.2891432,109.731638 2.89805954,110.160666 L72.5,128.720496 C74.1,129.220496 75.9,129.220496 77.5,128.720496 L147.113175,108.610503 C148.707524,108.149924 150,106.439705 150,104.770351 L150,25.4526183 C150,22.6861825 147.83628,19.8400963 145.179975,19.099271 L77.8941336,0.333705183 C76.2957477,-0.112073804 73.6982346,-0.110395518 72.1058664,0.333705156 L4.82002451,19.0992703 C2.15799848,19.8416913 6.9388939e-18,22.6866634 6.9388939e-18,25.448246 L6.9388939e-18,106.390355 Z" id="main" stroke="#3B8594" fill-opacity="0.75999999" fill="#B9E1EA"></path>
                <path d="M75,129.5 L75,44" id="Line" stroke="#4EA3B3" fill="#FFFFFF"></path>
                <path d="M113,61.0046291 L113,34" id="Line" stroke="#4EA3B3" fill="#FFFFFF"></path>
                <path d="M74,44 L2,24" id="Line" stroke="#4EA3B3" fill="#FFFFFF"></path>
                <path d="M114,33 L39,11" id="Line" stroke="#4EA3B3" fill="#FFFFFF"></path>
                <path d="M75,44 L149,23" id="Line" stroke="#4EA3B3" fill="#FFFFFF"></path>
                <polygon id="Rectangle-6" stroke="#4EA3B3" fill="#FFFFFF" transform="translate(37.000000, 67.223145) scale(-1, 1) translate(-37.000000, -67.223145) " points="53 54.4462891 53 70.4462891 21 80 21 64"></polygon>
            </g>
        </g>
    </g>
</svg>