<?xml version="1.0" encoding="UTF-8" standalone="no"?>
<svg width="270px" height="34px" viewBox="0 0 270 34" version="1.1" xmlns="http://www.w3.org/2000/svg" xmlns:xlink="http://www.w3.org/1999/xlink">
    <!-- Generator: Sketch 3.7.2 (28276) - http://www.bohemiancoding.com/sketch -->
    <title>devtron-logo</title>
    <desc>Created with Sketch.</desc>
    <defs></defs>
    <g id="Devtron" stroke="none" stroke-width="1" fill="none" fill-rule="evenodd">
        <g transform="translate(-8.000000, -129.000000)" id="Name" fill="#9CE5F4">
            <g transform="translate(4.000000, 126.000000)">
                <path d="M4.802,33.24 C4.802,34.208 5.594,35 6.518,35 L15.494,35 C25.174,35 31.862,28.268 31.862,19.6 L31.862,19.512 C31.862,10.844 25.174,4.2 15.494,4.2 L6.518,4.2 C5.594,4.2 4.802,4.992 4.802,5.96 L4.802,33.24 Z M8.278,31.788 L8.278,7.412 L15.494,7.412 C23.282,7.412 28.254,12.78 28.254,19.6 L28.254,19.688 C28.254,26.508 23.282,31.788 15.494,31.788 L8.278,31.788 Z M48.926,35 L68.286,35 C69.166,35 69.87,34.296 69.87,33.416 C69.87,32.536 69.166,31.832 68.286,31.832 L50.686,31.832 L50.686,21.052 L66.086,21.052 C66.966,21.052 67.67,20.348 67.67,19.468 C67.67,18.632 66.966,17.884 66.086,17.884 L50.686,17.884 L50.686,7.368 L68.066,7.368 C68.946,7.368 69.65,6.664 69.65,5.784 C69.65,4.904 68.946,4.2 68.066,4.2 L48.926,4.2 C48.002,4.2 47.21,4.992 47.21,5.96 L47.21,33.24 C47.21,34.208 48.002,35 48.926,35 L48.926,35 Z M96.614,35.352 L96.79,35.352 C97.802,35.352 98.418,34.78 98.814,33.9 L110.738,6.356 C110.826,6.136 110.87,5.916 110.87,5.652 C110.87,4.772 110.122,3.98 109.154,3.98 C108.362,3.98 107.746,4.596 107.438,5.212 L96.746,30.82 L86.098,5.3 C85.79,4.552 85.174,3.98 84.294,3.98 C83.326,3.98 82.534,4.816 82.534,5.696 C82.534,6.004 82.578,6.224 82.71,6.488 L94.59,33.9 C94.942,34.78 95.602,35.352 96.614,35.352 L96.614,35.352 Z M133.566,33.46 C133.566,34.428 134.358,35.22 135.326,35.22 C136.294,35.22 137.086,34.428 137.086,33.46 L137.086,7.412 L146.018,7.412 C146.898,7.412 147.646,6.708 147.646,5.828 C147.646,4.948 146.898,4.2 146.018,4.2 L124.634,4.2 C123.754,4.2 123.006,4.948 123.006,5.828 C123.006,6.708 123.754,7.412 124.634,7.412 L133.566,7.412 L133.566,33.46 Z M161.938,33.46 C161.938,34.428 162.73,35.22 163.654,35.22 C164.622,35.22 165.414,34.428 165.414,33.46 L165.414,23.032 L174.258,23.032 L182.926,34.296 C183.322,34.824 183.85,35.22 184.554,35.22 C185.434,35.22 186.314,34.428 186.314,33.504 C186.314,33.02 186.094,32.624 185.742,32.228 L178.086,22.372 C182.882,21.448 186.314,18.5 186.314,13.44 L186.314,13.352 C186.314,10.932 185.434,8.776 183.938,7.28 C182.002,5.344 178.966,4.2 175.182,4.2 L163.654,4.2 C162.73,4.2 161.938,4.992 161.938,5.96 L161.938,33.46 Z M165.414,19.908 L165.414,7.412 L174.918,7.412 C179.89,7.412 182.794,9.7 182.794,13.484 L182.794,13.572 C182.794,17.532 179.494,19.908 174.874,19.908 L165.414,19.908 Z M216.05,35.528 C225.422,35.528 231.802,28.092 231.802,19.6 L231.802,19.512 C231.802,11.02 225.51,3.672 216.138,3.672 C206.766,3.672 200.386,11.108 200.386,19.6 L200.386,19.688 C200.386,28.18 206.678,35.528 216.05,35.528 L216.05,35.528 Z M216.138,32.316 C209.098,32.316 203.994,26.596 203.994,19.6 L203.994,19.512 C203.994,12.516 209.01,6.884 216.05,6.884 C223.09,6.884 228.194,12.604 228.194,19.6 L228.194,19.688 C228.194,26.684 223.178,32.316 216.138,32.316 L216.138,32.316 Z M247.15,33.504 C247.15,34.428 247.898,35.22 248.822,35.22 C249.79,35.22 250.538,34.428 250.538,33.504 L250.538,9.656 L269.634,34.076 C270.162,34.692 270.69,35.132 271.438,35.132 L271.614,35.132 C272.538,35.132 273.198,34.428 273.198,33.504 L273.198,5.696 C273.198,4.772 272.45,3.98 271.526,3.98 C270.558,3.98 269.81,4.772 269.81,5.696 L269.81,28.928 L251.11,5.08 C250.626,4.464 250.142,4.068 249.35,4.068 L248.866,4.068 C247.942,4.068 247.15,4.86 247.15,5.784 L247.15,33.504 Z" id="DEVTRON"></path>
            </g>
        </g>
    </g>
</svg>