<?xml version="1.0" encoding="UTF-8" standalone="no"?>
<svg width="920px" height="280px" viewBox="0 0 920 280" version="1.1" xmlns="http://www.w3.org/2000/svg" xmlns:xlink="http://www.w3.org/1999/xlink">
    <!-- Generator: Sketch 3.6.1 (26313) - http://www.bohemiancoding.com/sketch -->
    <title>flow</title>
    <desc>Created with Sketch.</desc>
    <defs></defs>
    <g id="5" stroke="none" stroke-width="1" fill="none" fill-rule="evenodd">
        <g id="More-Features" transform="translate(-55.000000, -24.000000)">
            <g id="Illu">
                <g id="OS" transform="translate(732.000000, 0.000000)">
                    <g id="App" transform="translate(82.000000, 157.000000) rotate(-15.000000) translate(-82.000000, -157.000000) translate(22.000000, 67.000000)">
                        <rect id="BG" stroke="#FFFFFF" stroke-width="2" fill="#73C7D8" x="1.12798659e-13" y="4.61852778e-14" width="120" height="180" rx="4"></rect>
                        <g id="Items" transform="translate(0.000000, 19.000000)" stroke="#FFFFFF" stroke-width="2">
                            <g id="Item" transform="translate(0.000000, 112.000000)">
                                <rect fill="#47848F" x="0" y="0" width="120" height="30"></rect>
                                <path d="M28.5,11 L103,11" id="Line" stroke-linecap="round"></path>
                                <path d="M28.5,19 L72,19" id="Line" stroke-linecap="round"></path>
                                <circle id="Avatar" cx="15" cy="15" r="8"></circle>
                            </g>
                            <g id="Item" transform="translate(0.000000, 84.000000)">
                                <rect fill="#47848F" x="0" y="0" width="120" height="30"></rect>
                                <path d="M28.5,11 L95,11" id="Line" stroke-linecap="round"></path>
                                <path d="M28.5,19 L57,19" id="Line" stroke-linecap="round"></path>
                                <circle id="Avatar" cx="15" cy="15" r="8"></circle>
                            </g>
                            <g id="Item" transform="translate(0.000000, 56.000000)">
                                <rect fill="#47848F" x="0" y="0" width="120" height="30"></rect>
                                <path d="M28.5,11 L109,11" id="Line" stroke-linecap="round"></path>
                                <path d="M28.5,19 L96,19" id="Line" stroke-linecap="round"></path>
                                <circle id="Avatar" cx="15" cy="15" r="8"></circle>
                            </g>
                            <g id="Item" transform="translate(0.000000, 28.000000)">
                                <rect fill="#47848F" x="0" y="0" width="120" height="30"></rect>
                                <path d="M28.5,11 L90,11" id="Line" stroke-linecap="round"></path>
                                <path d="M28.5,19 L76,19" id="Line" stroke-linecap="round"></path>
                                <circle id="Avatar" cx="15" cy="15" r="8"></circle>
                            </g>
                            <g id="Item">
                                <rect fill="#47848F" x="0" y="0" width="120" height="30"></rect>
                                <path d="M28.5,11 L100.527771,11" id="Line" stroke-linecap="round"></path>
                                <path d="M28.5,19 L64,19" id="Line" stroke-linecap="round"></path>
                                <circle id="Avatar" cx="15" cy="15" r="8"></circle>
                            </g>
                        </g>
                        <g id="Traffic" transform="translate(6.000000, 7.000000)" fill="#FFFFFF">
                            <circle id="Oval-29" cx="4" cy="4" r="4"></circle>
                            <circle id="Oval-29" cx="16" cy="4" r="4"></circle>
                            <circle id="Oval-29" cx="28" cy="4" r="4"></circle>
                        </g>
                    </g>
                    <g id="App" transform="translate(62.000000, 57.000000)">
                        <rect id="BG" stroke="#FFFFFF" stroke-width="2" fill="#73C7D8" x="0" y="0" width="120" height="180" rx="4"></rect>
                        <g id="Items" transform="translate(0.000000, 19.000000)" stroke="#FFFFFF" stroke-width="2">
                            <g id="Item" transform="translate(0.000000, 112.000000)">
                                <rect fill="#47848F" x="0" y="0" width="120" height="30"></rect>
                                <path d="M28.5,11 L103,11" id="Line" stroke-linecap="round"></path>
                                <path d="M28.5,19 L72,19" id="Line" stroke-linecap="round"></path>
                                <circle id="Avatar" cx="15" cy="15" r="8"></circle>
                            </g>
                            <g id="Item" transform="translate(0.000000, 84.000000)">
                                <rect fill="#47848F" x="0" y="0" width="120" height="30"></rect>
                                <path d="M28.5,11 L95,11" id="Line" stroke-linecap="round"></path>
                                <path d="M28.5,19 L57,19" id="Line" stroke-linecap="round"></path>
                                <circle id="Avatar" cx="15" cy="15" r="8"></circle>
                            </g>
                            <g id="Item" transform="translate(0.000000, 56.000000)">
                                <rect fill="#47848F" x="0" y="0" width="120" height="30"></rect>
                                <path d="M28.5,11 L109,11" id="Line" stroke-linecap="round"></path>
                                <path d="M28.5,19 L96,19" id="Line" stroke-linecap="round"></path>
                                <circle id="Avatar" cx="15" cy="15" r="8"></circle>
                            </g>
                            <g id="Item" transform="translate(0.000000, 28.000000)">
                                <rect fill="#47848F" x="0" y="0" width="120" height="30"></rect>
                                <path d="M28.5,11 L90,11" id="Line" stroke-linecap="round"></path>
                                <path d="M28.5,19 L76,19" id="Line" stroke-linecap="round"></path>
                                <circle id="Avatar" cx="15" cy="15" r="8"></circle>
                            </g>
                            <g id="Item">
                                <rect fill="#47848F" x="0" y="0" width="120" height="30"></rect>
                                <path d="M28.5,11 L100.527771,11" id="Line" stroke-linecap="round"></path>
                                <path d="M28.5,19 L64,19" id="Line" stroke-linecap="round"></path>
                                <circle id="Avatar" cx="15" cy="15" r="8"></circle>
                            </g>
                        </g>
                        <g id="Traffic" transform="translate(6.000000, 7.000000)" fill="#FFFFFF">
                            <circle id="Oval-29" cx="4" cy="4" r="4"></circle>
                            <circle id="Oval-29" cx="16" cy="4" r="4"></circle>
                            <circle id="Oval-29" cx="28" cy="4" r="4"></circle>
                        </g>
                    </g>
                    <g id="App" transform="translate(162.000000, 157.000000) rotate(-345.000000) translate(-162.000000, -157.000000) translate(102.000000, 67.000000)">
                        <rect id="BG" stroke="#FFFFFF" stroke-width="2" fill="#73C7D8" x="4.26325641e-14" y="-7.10542736e-15" width="120" height="180" rx="4"></rect>
                        <g id="Items" transform="translate(0.000000, 19.000000)" stroke="#FFFFFF" stroke-width="2">
                            <g id="Item" transform="translate(0.000000, 112.000000)">
                                <rect fill="#47848F" x="0" y="0" width="120" height="30"></rect>
                                <path d="M28.5,11 L103,11" id="Line" stroke-linecap="round"></path>
                                <path d="M28.5,19 L72,19" id="Line" stroke-linecap="round"></path>
                                <circle id="Avatar" cx="15" cy="15" r="8"></circle>
                            </g>
                            <g id="Item" transform="translate(0.000000, 84.000000)">
                                <rect fill="#47848F" x="0" y="0" width="120" height="30"></rect>
                                <path d="M28.5,11 L95,11" id="Line" stroke-linecap="round"></path>
                                <path d="M28.5,19 L57,19" id="Line" stroke-linecap="round"></path>
                                <circle id="Avatar" cx="15" cy="15" r="8"></circle>
                            </g>
                            <g id="Item" transform="translate(0.000000, 56.000000)">
                                <rect fill="#47848F" x="0" y="0" width="120" height="30"></rect>
                                <path d="M28.5,11 L109,11" id="Line" stroke-linecap="round"></path>
                                <path d="M28.5,19 L96,19" id="Line" stroke-linecap="round"></path>
                                <circle id="Avatar" cx="15" cy="15" r="8"></circle>
                            </g>
                            <g id="Item" transform="translate(0.000000, 28.000000)">
                                <rect fill="#47848F" x="0" y="0" width="120" height="30"></rect>
                                <path d="M28.5,11 L90,11" id="Line" stroke-linecap="round"></path>
                                <path d="M28.5,19 L76,19" id="Line" stroke-linecap="round"></path>
                                <circle id="Avatar" cx="15" cy="15" r="8"></circle>
                            </g>
                            <g id="Item">
                                <rect fill="#47848F" x="0" y="0" width="120" height="30"></rect>
                                <path d="M28.5,11 L100.527771,11" id="Line" stroke-linecap="round"></path>
                                <path d="M28.5,19 L64,19" id="Line" stroke-linecap="round"></path>
                                <circle id="Avatar" cx="15" cy="15" r="8"></circle>
                            </g>
                        </g>
                        <g id="Traffic" transform="translate(80.000000, 7.000000)" fill="#FFFFFF">
                            <rect id="Rectangle-44" x="22.9550781" y="0" width="10" height="8"></rect>
                            <rect id="Rectangle-44" x="11.9550781" y="0" width="10" height="8"></rect>
                            <rect id="Rectangle-44" x="0.955078125" y="0" width="10" height="8"></rect>
                        </g>
                    </g>
                    <g id="Your-App" transform="translate(4.000000, 0.000000)" font-size="22" font-family="Gotham-Book, Gotham" line-spacing="24" fill="#006275" font-weight="300">
                        <text id="Title">
                            <tspan x="49" y="296">Desktop App</tspan>
                        </text>
                    </g>
                </g>
                <g id="Electron" transform="translate(436.000000, 24.000000)">
                    <g id="Shell">
                        <rect id="BG" stroke="#FFFFFF" stroke-width="2" fill="#73C7D8" x="0" y="0" width="120" height="180" rx="4"></rect>
                        <path d="M82.3057665,109.283064 C81.9556364,108.670775 81.7556166,107.962214 81.7556166,107.207107 C81.7556166,104.887708 83.6427662,103.007464 85.9706831,103.007464 C88.2986001,103.007464 90.1857496,104.887708 90.1857496,107.207107 C90.1857496,109.526506 88.2986001,111.40675 85.9706831,111.40675 C85.0533252,111.40675 84.2044139,111.114767 83.5124602,110.618989 C76.7882622,114.560367 63.9442835,112.550064 51.8574848,105.597282 C46.7122838,102.637569 42.2007058,99.0712565 38.728036,95.2690137 C38.4006838,94.9105943 38.4269359,94.3556376 38.7866717,94.0294832 C39.1464075,93.7033289 39.7034023,93.7294849 40.0307545,94.0879044 C43.3780478,97.7528718 47.7467373,101.206234 52.7381607,104.077489 C64.145037,110.639153 76.1572622,112.591841 82.3057665,109.283064 Z M84.3755073,109.064782 C84.8044584,109.430774 85.3616592,109.651843 85.9706831,109.651843 C87.3258323,109.651843 88.4243978,108.557297 88.4243978,107.207107 C88.4243978,105.856916 87.3258323,104.762371 85.9706831,104.762371 C84.615534,104.762371 83.5169685,105.856916 83.5169685,107.207107 C83.5169685,107.799805 83.7286602,108.343242 84.0808207,108.766454 C84.1832198,108.829225 84.2743033,108.914018 84.3464164,109.019391 C84.3566375,109.034326 84.3663331,109.049464 84.3755073,109.064782 Z M33.4574816,103.019002 C33.5614232,103.011355 33.6664132,103.007464 33.7723153,103.007464 C36.1002323,103.007464 37.9873818,104.887708 37.9873818,107.207107 C37.9873818,109.526506 36.1002323,111.40675 33.7723153,111.40675 C31.4443984,111.40675 29.5572489,109.526506 29.5572489,107.207107 C29.5572489,105.628171 30.4317985,104.25275 31.7245981,103.535473 C31.0896953,95.6863649 39.3699794,85.1647421 51.8833131,77.9666013 C57.0809558,74.9767215 62.4930001,72.8545444 67.5775496,71.7691437 C68.05314,71.6676192 68.5212863,71.9694488 68.6231836,72.4432989 C68.7250809,72.9171491 68.4221428,73.3835823 67.9465525,73.4851068 C63.0464196,74.53114 57.8061154,76.5859742 52.763989,79.4863952 C40.979625,86.2652051 33.1874566,96.0355822 33.4574816,103.019002 Z M63.6483551,63.5287196 C62.9475482,64.8791137 61.5328688,65.8021478 59.9018114,65.8021478 C57.5738945,65.8021478 55.6867449,63.9219036 55.6867449,61.6025049 C55.6867449,59.2831061 57.5738945,57.402862 59.9018114,57.402862 C62.2297284,57.402862 64.1168779,59.2831061 64.1168779,61.6025049 C64.1168779,61.6631781 64.1155865,61.7235509 64.1130297,61.7835973 C71.0903948,65.3790173 75.9388081,77.639537 75.9388081,91.804228 C75.9388081,97.629937 75.1213221,103.220516 73.599229,108.066752 C73.4539719,108.529241 72.9599197,108.786838 72.4957326,108.642113 C72.0315456,108.497387 71.7730018,108.005143 71.918259,107.542654 C73.3857843,102.870158 74.1774563,97.4561143 74.1774563,91.804228 C74.1774563,78.4666625 69.7276465,66.9895787 63.6483551,63.5287196 Z M60.5456314,94.7741651 C58.8992752,95.1285877 57.2772837,94.0861273 56.9208633,92.4457954 C56.5658351,90.8054635 57.6114279,89.1894072 59.257784,88.8342909 C60.9041402,88.4798682 62.5261317,89.5223286 62.8825521,91.1626605 C63.2382765,92.8029924 62.1919875,94.4190488 60.5456314,94.7741651 Z M59.9018114,64.047241 C58.5466622,64.047241 57.4480968,62.9526954 57.4480968,61.6025049 C57.4480968,60.2523144 58.5466622,59.1577688 59.9018114,59.1577688 C61.2569606,59.1577688 62.3555261,60.2523144 62.3555261,61.6025049 C62.3555261,62.9526954 61.2569606,64.047241 59.9018114,64.047241 Z M33.7723153,109.651843 C32.4171662,109.651843 31.3186007,108.557297 31.3186007,107.207107 C31.3186007,105.856916 32.4171662,104.762371 33.7723153,104.762371 C35.1274645,104.762371 36.22603,105.856916 36.22603,107.207107 C36.22603,108.557297 35.1274645,109.651843 33.7723153,109.651843 Z M46.7425115,109.66687 C49.6827273,117.846968 54.492918,122.883404 59.9018114,122.883404 C63.8466187,122.883404 67.4963387,120.20419 70.3423692,115.487234 C70.5929652,115.071901 70.458183,114.532802 70.0413246,114.283123 C69.6244663,114.033444 69.0833875,114.167733 68.8327915,114.583066 C66.2750683,118.822187 63.1333311,121.128498 59.9018114,121.128498 C55.408779,121.128498 51.1185134,116.636441 48.4007365,109.0752 C48.2367511,108.618969 47.7326084,108.381571 47.2747022,108.544956 C46.816796,108.708342 46.5785261,109.21064 46.7425115,109.66687 Z M82.0298179,94.2015733 C87.6532942,87.5826227 89.6168178,80.9254472 86.9160168,76.2646397 C84.9287163,72.8351296 80.7275071,71.0244922 75.144166,70.9521461 C74.6578232,70.9458443 74.2584372,71.3335517 74.2521122,71.8181149 C74.2457873,72.302678 74.6349186,72.7006027 75.1212614,72.7069045 C80.1427724,72.7719707 83.7622008,74.3318721 85.3906413,77.1420931 C87.6339794,81.0134508 85.8829534,86.9501699 80.6854513,93.0677397 C80.371202,93.4376179 80.4173992,93.9912807 80.7886358,94.3043802 C81.1598724,94.6174797 81.7155686,94.5714515 82.0298179,94.2015733 Z M50.9470588,71.4769625 C42.3586591,69.9184519 35.5681517,71.5496429 32.8617778,76.2200675 C30.842221,79.7052429 31.4194949,84.3260049 34.2617823,89.2653156 C34.503703,89.6857239 35.0418782,89.8311343 35.4638305,89.5900989 C35.8857827,89.3490635 36.0317272,88.8128575 35.7898066,88.3924492 C33.2294415,83.9430616 32.7312318,79.9551659 34.3871532,77.0975209 C36.6353496,73.2177792 42.6923645,71.7627851 50.6314499,73.2034666 C51.1099617,73.2903007 51.5685237,72.9742026 51.6556767,72.4974416 C51.7428297,72.0206807 51.4255707,71.5637966 50.9470588,71.4769625 Z" id="Icon" fill="#FFFFFF"></path>
                    </g>
                    <g transform="translate(13.125000, 195.000000)" id="Title" font-size="22" font-family="Gotham-Book, Gotham" fill="#006275" font-weight="300">
                        <text>
                            <tspan x="0" y="18">Electron</tspan>
                        </text>
                    </g>
                </g>
                <g id="Your-App" transform="translate(0.000000, 81.000000)">
                    <g id="App" transform="translate(76.000000, 0.000000)" stroke="#FFFFFF" stroke-width="2">
                        <rect id="Rectangle-43" fill="#47848F" x="0" y="28" width="120" height="142"></rect>
                        <g id="Items">
                            <g id="Item" transform="translate(0.000000, 140.000000)">
                                <rect fill="#47848F" x="0" y="0" width="160" height="30"></rect>
                                <path d="M28.5,11 L103,11" id="Line" stroke-linecap="round"></path>
                                <path d="M28.5,19 L72,19" id="Line" stroke-linecap="round"></path>
                                <circle id="Avatar" cx="15" cy="15" r="8"></circle>
                            </g>
                            <g id="Item" transform="translate(0.000000, 112.000000)">
                                <rect fill="#47848F" x="0" y="0" width="160" height="30"></rect>
                                <path d="M28.5,11 L95,11" id="Line" stroke-linecap="round"></path>
                                <path d="M28.5,19 L57,19" id="Line" stroke-linecap="round"></path>
                                <circle id="Avatar" cx="15" cy="15" r="8"></circle>
                            </g>
                            <g id="Item" transform="translate(0.000000, 84.000000)">
                                <rect fill="#47848F" x="0" y="0" width="160" height="30"></rect>
                                <path d="M28.5,11 L109,11" id="Line" stroke-linecap="round"></path>
                                <path d="M28.5,19 L96,19" id="Line" stroke-linecap="round"></path>
                                <circle id="Avatar" cx="15" cy="15" r="8"></circle>
                            </g>
                            <g id="Item" transform="translate(0.000000, 56.000000)">
                                <rect fill="#47848F" x="0" y="0" width="160" height="30"></rect>
                                <path d="M28.5,11 L90,11" id="Line" stroke-linecap="round"></path>
                                <path d="M28.5,19 L76,19" id="Line" stroke-linecap="round"></path>
                                <circle id="Avatar" cx="15" cy="15" r="8"></circle>
                            </g>
                            <g id="Item" transform="translate(0.000000, 28.000000)">
                                <rect fill="#47848F" x="0" y="0" width="160" height="30"></rect>
                                <path d="M28.5,11 L100.527771,11" id="Line" stroke-linecap="round"></path>
                                <path d="M28.5,19 L64,19" id="Line" stroke-linecap="round"></path>
                                <circle id="Avatar" cx="15" cy="15" r="8"></circle>
                            </g>
                            <g id="Item">
                                <rect fill="#47848F" x="0" y="0" width="160" height="30"></rect>
                                <path d="M28.5,11 L100.527771,11" id="Line" stroke-linecap="round"></path>
                                <path d="M28.5,19 L64,19" id="Line" stroke-linecap="round"></path>
                                <circle id="Avatar" cx="15" cy="15" r="8"></circle>
                            </g>
                        </g>
                    </g>
                    <g transform="translate(0.000000, 196.000000)" id="Title" font-size="22" font-family="Gotham-Book, Gotham" line-spacing="24" fill="#006275" font-weight="300">
                        <text>
                            <tspan x="72.45" y="18">Your Web skills</tspan>
                        </text>
                    </g>
                </g>
                <g id="Lines" transform="translate(259.000000, 92.000000)">
                    <g id="=" transform="translate(323.000000, 6.000000)">
                        <g id="Arrow" stroke="#73C7D8">
                            <path d="M140,0.311677207 C140,0.311677207 101.222435,0.311671686 78.820202,45.9999984 C56.4179688,91.6883252 0,91.6883225 0,91.6883225" id="Path-180" stroke-width="2" stroke-dasharray="2" opacity="0.495394123" transform="translate(70.000000, 46.000000) scale(1, -1) translate(-70.000000, -46.000000) "></path>
                            <path d="M133,90 L147,83 L147,97 L133,90 L133,90 Z" id="Triangle-15" stroke-linecap="round" stroke-linejoin="round" fill="#73C7D8" transform="translate(140.000000, 90.000000) scale(-1, 1) translate(-140.000000, -90.000000) "></path>
                        </g>
                        <g transform="translate(57.000000, 27.000000)">
                            <circle id="Oval-61" stroke="#FFFFFF" stroke-width="2" fill="#73C7D8" cx="21" cy="21" r="21"></circle>
                            <text id="Title" font-family="Gotham-Book, Gotham" font-size="32" font-weight="300" fill="#FFFFFF">
                                <tspan x="11" y="32">=</tspan>
                            </text>
                        </g>
                    </g>
                    <g id="+">
                        <g id="Arrow" stroke="#47848F">
                            <path d="M140.945312,6.19654076 C140.945312,6.19654076 99.6019627,1.78681559 79.3816086,51.9422346 C59.1612545,102.097654 0.0668064339,97.6879313 0.0668064339,97.6879313" id="Path-180" stroke-width="2" stroke-dasharray="2" opacity="0.50157416" transform="translate(70.506059, 51.942236) scale(-1, -1) translate(-70.506059, -51.942236) "></path>
                            <path d="M130,7 L144,0 L144,14 L130,7 L130,7 Z" id="Triangle-15" stroke-linecap="round" stroke-linejoin="round" fill="#47848F" transform="translate(137.000000, 7.000000) scale(-1, 1) translate(-137.000000, -7.000000) "></path>
                        </g>
                        <g transform="translate(43.000000, 34.000000)">
                            <circle id="Oval-61" stroke="#FFFFFF" stroke-width="2" fill="#47848F" cx="21" cy="21" r="21"></circle>
                            <text id="Title" font-family="Gotham-Book, Gotham" font-size="32" font-weight="300" fill="#FFFFFF">
                                <tspan x="11" y="32">+</tspan>
                            </text>
                        </g>
                    </g>
                </g>
            </g>
        </g>
    </g>
</svg>