<?xml version="1.0" encoding="UTF-8" standalone="no"?>
<svg width="460px" height="370px" viewBox="0 0 460 370" version="1.1" xmlns="http://www.w3.org/2000/svg" xmlns:xlink="http://www.w3.org/1999/xlink">
    <!-- Generator: Sketch 3.6.1 (26313) - http://www.bohemiancoding.com/sketch -->
    <title>hero-1-0</title>
    <desc>Created with Sketch.</desc>
    <defs>
        <linearGradient x1="50%" y1="77.1086382%" x2="50%" y2="100%" id="linearGradient-1">
            <stop stop-color="#88C7D4" offset="0%"></stop>
            <stop stop-color="#5A7E85" offset="100%"></stop>
        </linearGradient>
        <linearGradient x1="50%" y1="0%" x2="50%" y2="96.3995034%" id="linearGradient-2">
            <stop stop-color="#87C7D4" offset="0%"></stop>
            <stop stop-color="#87C7D4" offset="94.8988877%"></stop>
            <stop stop-color="#567C84" offset="100%"></stop>
        </linearGradient>
    </defs>
    <g id="1" stroke="none" stroke-width="1" fill="none" fill-rule="evenodd">
        <g id="Hero" transform="translate(-557.000000, 0.000000)">
            <g id="Illu" transform="translate(567.000000, 0.000000)">
                <g id="Display" transform="translate(73.000000, 77.000000)">
                    <ellipse id="Shadow" fill-opacity="0.0899999961" fill="#000000" cx="149.351729" cy="280.057002" rx="94.4581117" ry="10.7543708"></ellipse>
                    <path d="M190.116773,222.98477 C190.116773,222.98477 197.863301,251.532988 198.606008,256.459081 C199.348715,261.385174 203.016123,271.98894 196.831365,275.064125 C192.804845,277.066192 167.142987,279.767023 161.117854,280.352298 C156.431289,280.807547 83.4057693,279.294726 81.1788356,279.294726 C80.1961905,279.294726 79.5678475,277.993794 80.5966381,277.993794 C81.3627821,277.993794 122.202445,274.960299 130.621365,273.720504 C134.959722,273.081625 139.013672,269.405607 139.013672,258.379163 L135.8814,222.98477 L190.116773,222.98477 Z" id="Foot-side" fill="url(#linearGradient-1)"></path>
                    <path d="M188.205931,223.069837 C188.205931,223.069837 196.184343,253.836651 196.92705,258.762743 C197.669757,263.688836 199.47058,270.202222 195.925658,273.082346 C193.547475,275.014536 165.393278,278.579513 159.368145,279.164788 C154.68158,279.620037 83.7108931,278.638495 81.4839594,278.638495 C80.5013143,278.638495 79.6738149,277.718339 80.7026056,277.718339 C81.4687495,277.718339 120.287551,274.322141 128.706472,273.082346 C133.044828,272.443467 137.098778,268.767449 137.098778,257.741005 L133.966506,222.346612 L188.205931,223.069837 Z" id="Foot" fill="#6CA7B3"></path>
                    <path d="M294.56263,2.03599789 L23.5038856,58.3951865 C23.5038856,58.3951865 21.8367687,58.8460725 20.100773,60.3218126 C17.9340752,62.1636852 17.6261221,66.4335455 17.6261221,66.4335455 L3.32675366,225.281261 C3.32675366,225.281261 1.52953772,230.3261 3.93201466,231.326316 C8.53349388,233.242037 12.5322059,232.922958 12.5322059,232.922958 L283.850882,224.037045 C283.850882,224.037045 287.361208,224.191911 290.493481,220.997694 C293.625753,217.803476 293.536304,213.57942 293.536304,213.57942 L299.878454,12.9881339 C299.878454,12.9881339 300.268911,10.7565533 298.703151,8.07076544 C297.067512,5.26511423 294.56263,2.03599789 294.56263,2.03599789 Z" id="Black-side" fill="url(#linearGradient-2)"></path>
                    <path d="M287.882319,0.333724191 L20.3123962,57.1188707 C20.3123962,57.1188707 18.6452794,57.5697567 16.9092837,59.0454968 C14.7425858,60.8873694 14.4346328,65.1572297 14.4346328,65.1572297 L0.135264297,224.004945 C0.135264297,224.004945 -0.100181744,228.104949 1.49850398,229.820969 C3.86469427,232.360825 8.46991356,231.611431 8.46991356,231.611431 L280.74759,222.06773 C280.74759,222.06773 284.234541,222.298621 287.366813,219.104404 C290.499086,215.910187 290.151263,211.141769 290.151263,211.141769 L296.787317,7.21542198 C296.787317,7.21542198 296.787322,3.62765356 294.252519,1.43679007 C291.900674,-0.595940245 287.882319,0.333724191 287.882319,0.333724191 Z" id="Black" fill="#18272A"></path>
                    <path d="M123.303642,219.036974 C123.303642,220.830948 124.340156,222.394787 125.779508,223.01747 C125.960558,223.064027 126.028452,222.941619 126.028452,222.831266 C126.028452,222.731423 126.023926,222.400155 126.023926,222.048096 C125.114147,222.202618 124.878781,221.747166 124.806361,221.511724 C124.765625,221.391437 124.589101,221.019484 124.435208,220.91735 C124.308472,220.836865 124.127422,220.642547 124.430681,220.644535 C124.715836,220.646057 124.919518,220.956365 124.987412,221.082629 C125.313303,221.722008 125.833823,221.563262 126.042031,221.460189 C126.073715,221.187837 126.168767,221.006433 126.272871,220.903877 C125.467196,220.778386 124.625311,220.40149 124.625311,218.822982 C124.625311,218.374191 124.765625,218.001123 124.996464,217.708096 C124.960254,217.605031 124.833519,217.183016 125.032674,216.60799 C125.032674,216.60799 125.335934,216.489477 126.028452,217.008818 C126.318133,216.906754 126.625919,216.851148 126.933705,216.843015 C127.241491,216.834882 127.549277,216.874983 127.838958,216.964335 C128.531476,216.382926 128.834736,216.493157 128.834736,216.493157 C129.033891,217.087895 128.907156,217.537885 128.870946,217.647505 C129.101785,217.949994 129.242099,218.337114 129.242099,218.818975 C129.242099,220.500013 128.395688,220.851289 127.590013,220.938476 C127.721275,221.076204 127.834431,221.337563 127.834431,221.740987 C127.834431,222.316538 127.829905,222.778906 127.829905,222.92413 C127.829905,223.037083 127.897799,223.175264 128.07885,223.142003 C129.509149,222.6371 130.545663,221.016116 130.545663,219.051584 C130.545663,216.591745 128.925261,214.685174 126.924652,214.79109 C124.924044,214.897007 123.303642,216.79704 123.303642,219.036974 Z" id="GitHub" fill-opacity="0.330000013" fill="#FFFFFF"></path>
                    <path d="M23.2642121,67.9189453 L281.982422,16.4624794 L275.16186,203.411583 L10.0132979,216.521863 L23.2642121,67.9189453 Z" id="Screen" fill="#1A393F"></path>
                </g>
                <g id="Electrons" transform="translate(0.042502, 0.292731)">
                    <g id="Swooshs" transform="translate(19.437500, 9.037293)" fill-opacity="0.157070879" fill="#47848F">
                        <polygon id="Swoosh" points="197.30194 192.165056 63.8481233 267.603571 44.3305452 208.779352 "></polygon>
                        <polygon id="Swoosh" points="197.30194 192.165056 156.920389 293.111383 116.518045 264.888727 "></polygon>
                        <polygon id="Swoosh" points="197.30194 192.165056 299.002418 256.492242 266.252418 296.67193 "></polygon>
                        <polygon id="Swoosh" points="197.30194 192.165056 376.498519 287.533258 362.559066 309.033258 "></polygon>
                        <polygon id="Swoosh" points="197.30194 192.165056 45.2699983 330.931688 30.6840608 311.621149 "></polygon>
                        <polygon id="Swoosh" points="197.30194 192.165056 345.02391 231.98443 345.02391 159.814508 "></polygon>
                        <polygon id="Swoosh" points="197.30194 192.165056 408.547347 108.832086 395.221175 80.1426326 "></polygon>
                        <polygon id="Swoosh" points="197.30194 192.165056 190.898905 46.8164607 143.324686 61.9961482 "></polygon>
                        <polygon id="Swoosh" points="197.30194 192.165056 297.670386 104.443414 246.352031 74.400445 "></polygon>
                        <polygon id="Swoosh" points="197.30194 192.165056 87.8598421 102.408258 58.6879671 152.302789 "></polygon>
                        <polygon id="Swoosh" points="197.30194 192.165056 6.40574049 146.556695 0.289529552 187.521539 "></polygon>
                        <polygon id="Swoosh" points="197.30194 192.165056 70.8891396 13.5566951 42.8305458 43.3945858 "></polygon>
                        <polygon id="Swoosh" points="197.30194 192.165056 367.45555 51.5586483 329.258285 24.5762264 "></polygon>
                        <polygon id="Swoosh" points="197.30194 192.165056 259.348125 9.11431232 234.939921 0.69146076 "></polygon>
                    </g>
                    <g id="Dots" transform="translate(0.000000, 0.000000)" fill="#47848F">
                        <ellipse id="Electron" cx="88.8434369" cy="131.86144" rx="31" ry="31.0155701"></ellipse>
                        <path d="M185.617821,87.6962081 C200.354328,87.6962081 212.300627,75.7439086 212.300627,61 C212.300627,46.2560914 200.354328,34.3037919 185.617821,34.3037919 C170.881314,34.3037919 158.935015,46.2560914 158.935015,61 C158.935015,75.7439086 170.881314,87.6962081 185.617821,87.6962081 Z" id="Electron"></path>
                        <ellipse id="Electron" cx="75" cy="37.3486078" rx="21.3378906" ry="21.3486078"></ellipse>
                        <ellipse id="Electron" cx="302" cy="286.013561" rx="27" ry="27.013561"></ellipse>
                        <ellipse id="Electron" cx="156.067708" cy="288.080801" rx="26.0677083" ry="26.0808011"></ellipse>
                        <ellipse id="Electron" cx="58.1446881" cy="329.155308" rx="13.6566675" ry="13.6635267"></ellipse>
                        <ellipse id="Electron" cx="387.25" cy="306.259669" rx="13.6566675" ry="13.6635267"></ellipse>
                        <ellipse id="Electron" cx="72.0833333" cy="248.099448" rx="32.0833333" ry="32.0994475"></ellipse>
                        <ellipse id="Electron" cx="21.5132797" cy="175.528605" rx="21.3378906" ry="21.3486078"></ellipse>
                        <ellipse id="Electron" cx="292.28125" cy="97.2969613" rx="31.28125" ry="31.2969613"></ellipse>
                        <path d="M364.713542,240.753579 C384.595793,240.753579 400.713542,224.627734 400.713542,204.735497 C400.713542,184.84326 384.595793,168.717416 364.713542,168.717416 C344.831291,168.717416 328.713542,184.84326 328.713542,204.735497 C328.713542,224.627734 344.831291,240.753579 364.713542,240.753579 Z" id="Electron"></path>
                        <ellipse id="Electron" cx="423.588542" cy="101.597376" rx="17.5885417" ry="17.5973757"></ellipse>
                        <ellipse id="Electron" cx="368.900207" cy="44.8970994" rx="25.1881263" ry="25.2007773"></ellipse>
                        <ellipse id="Electron" cx="266.656668" cy="13.6635267" rx="13.6566675" ry="13.6635267"></ellipse>
                    </g>
                    <g id="Icons" transform="translate(9.957498, 5.707269)" fill="#FFFFFF">
                        <path d="M304,269 L280,269 C278.9,269 278,269.9 278,271 L278,287 C278,288.1 278.9,289 280,289 L284,289 L284,296 L291,289 L304,289 C305.1,289 306,288.1 306,287 L306,271 C306,269.9 305.1,269 304,269 L304,269 Z M304,287 L290,287 L286,291 L286,287 L280,287 L280,271 L304,271 L304,287 L304,287 Z" id="Shape"></path>
                        <path d="M11.026626,157.632802 C5.46802621,157.632802 0.95061429,161.831141 0.95061429,166.869146 C0.95061429,174.459742 11.026626,184.502167 11.026626,184.502167 C11.026626,184.502167 21.1026377,174.459742 21.1026377,166.869146 C21.1026377,161.831141 16.5852258,157.632802 11.026626,157.632802 L11.026626,157.632802 Z M11.026626,182.067131 C7.90306237,178.65808 2.62994958,171.806392 2.62994958,166.869146 C2.62994958,162.704395 6.40845397,159.312138 11.026626,159.312138 C13.2769353,159.312138 15.4096911,160.118219 17.0050596,161.596034 C18.5500481,163.040262 19.4233024,164.904324 19.4233024,166.869146 C19.4233024,171.806392 14.1501896,178.65808 11.026626,182.067131 L11.026626,182.067131 Z M14.3852966,166.869146 C14.3852966,168.733209 12.8906882,170.227817 11.026626,170.227817 C9.16256383,170.227817 7.66795543,168.733209 7.66795543,166.869146 C7.66795543,165.005084 9.16256383,163.510476 11.026626,163.510476 C12.8906882,163.510476 14.3852966,165.005084 14.3852966,166.869146 L14.3852966,166.869146 Z" id="Shape"></path>
                        <path d="M372.62567,296.559237 C372.012514,296.559237 371.51084,297.064711 371.51084,297.682512 L371.51084,299.929064 C371.51084,300.546865 372.012514,301.052339 372.62567,301.052339 L381.54431,301.052339 C382.157467,301.052339 382.65914,300.546865 382.65914,299.929064 L382.65914,297.682512 C382.65914,297.064711 382.157467,296.559237 381.54431,296.559237 L372.62567,296.559237 L372.62567,296.559237 Z M381.54431,298.524969 L380.150773,299.929064 L378.478528,299.929064 L377.08499,298.524969 L375.691453,299.929064 L374.019208,299.929064 L372.62567,298.524969 L372.62567,297.682512 L373.461793,297.682512 L374.85533,299.086607 L376.248868,297.682512 L377.921113,297.682512 L379.31465,299.086607 L380.708188,297.682512 L381.54431,297.682512 L381.54431,298.524969 L381.54431,298.524969 Z M374.85533,302.175615 L379.31465,302.175615 L379.31465,303.298891 L374.85533,303.298891 L374.85533,302.175615 L374.85533,302.175615 Z M377.08499,292.066134 C372.781746,292.066134 369.28118,295.334866 369.28118,299.367426 L369.28118,304.422166 C369.28118,305.039968 369.782854,305.545442 370.39601,305.545442 L383.77397,305.545442 C384.387127,305.545442 384.8888,305.039968 384.8888,304.422166 L384.8888,299.367426 C384.8888,295.334866 381.388234,292.066134 377.08499,292.066134 L377.08499,292.066134 Z M383.77397,304.422166 L370.39601,304.422166 L370.39601,299.367426 C370.39601,295.896504 373.339161,293.088315 377.08499,293.088315 C380.830819,293.088315 383.77397,295.896504 383.77397,299.367426 L383.77397,304.422166 L383.77397,304.422166 Z" id="Shape"></path>
                        <path d="M162,47 L162,63 C162,64.1 162.9,65 164,65 L188,65 C189.1,65 190,64.1 190,63 L190,47 C190,45.9 189.1,45 188,45 L164,45 C162.9,45 162,45.9 162,47 L162,47 Z M188,47 L176,57 L164,47 L188,47 L188,47 Z M164,50 L172,56 L164,62 L164,50 L164,50 Z M166,63 L173,57 L176,60 L179,57 L186,63 L166,63 L166,63 Z M188,62 L180,56 L188,50 L188,62 L188,62 Z" id="Shape"></path>
                        <path d="M290,90.9805432 C290,93.1605432 289.1,95.1605432 287.66,96.6405432 L286.32,95.3005432 C287.42,94.1805432 288.1,92.6805432 288.1,90.9805432 C288.1,89.2805432 287.42,87.7605432 286.32,86.6605432 L287.66,85.3205432 C289.1,86.7605432 290,88.7605432 290,90.9805432 L290,90.9805432 Z M281.44,79.5005432 L274,86.9405432 L270,86.9405432 C268.9,86.9405432 268,87.8405432 268,88.9405432 L268,92.9405432 C268,94.0405432 268.9,94.9405432 270,94.9405432 L274,94.9405432 L281.44,102.380543 C282.38,103.320543 284,102.660543 284,101.320543 L284,80.5605432 C284,79.2205432 282.38,78.5605432 281.44,79.5005432 L281.44,79.5005432 Z M293.32,79.6605432 L291.98,81.0005432 C294.54,83.5605432 296.1,87.0605432 296.1,90.9605432 C296.1,94.8405432 294.54,98.3605432 291.98,100.920543 L293.32,102.260543 C296.22,99.3605432 298,95.3605432 298,90.9405432 C298,86.5005432 296.22,82.5005432 293.32,79.6205432 L293.32,79.6605432 Z M290.5,82.4805432 L289.12,83.8205432 C290.96,85.6605432 292.08,88.2005432 292.08,90.9805432 C292.08,93.7605432 290.96,96.3005432 289.12,98.1005432 L290.5,99.4405432 C292.66,97.2805432 294,94.2805432 294,90.9805432 C294,87.6805432 292.66,84.6605432 290.5,82.4805432 L290.5,82.4805432 Z" id="Shape"></path>
                        <path d="M92,115 L76,115 C76,113.9 75.1,113 74,113 L66,113 C64.9,113 64,113.9 64,115 C62.9,115 62,115.9 62,117 L62,135 C62,136.1 62.9,137 64,137 L92,137 C93.1,137 94,136.1 94,135 L94,117 C94,115.9 93.1,115 92,115 L92,115 Z M74,119 L66,119 L66,117 L74,117 L74,119 L74,119 Z M83,133 C79.12,133 76,129.88 76,126 C76,122.12 79.12,119 83,119 C86.88,119 90,122.12 90,126 C90,129.88 86.88,133 83,133 L83,133 Z M88,126 C88,128.76 85.74,131 83,131 C80.26,131 78,128.74 78,126 C78,123.26 80.26,121 83,121 C85.74,121 88,123.26 88,126 L88,126 Z" id="Shape"></path>
                        <path d="M55,35.8065109 L55,40 L59.1934891,40 L70.3761265,28.8173625 L66.1826375,24.6238735 L55,35.8065109 L55,35.8065109 Z M59.1934891,38.6021703 L56.3978297,38.6021703 L56.3978297,35.8065109 L57.7956594,35.8065109 L57.7956594,37.2043406 L59.1934891,37.2043406 L59.1934891,38.6021703 L59.1934891,38.6021703 Z M73.5911348,25.6023542 L71.7739562,27.4195328 L67.5804672,23.2260438 L69.3976458,21.4088652 C69.9427993,20.8637116 70.823432,20.8637116 71.3685856,21.4088652 L73.5911348,23.6314144 C74.1362884,24.176568 74.1362884,25.0572007 73.5911348,25.6023542 L73.5911348,25.6023542 Z" id="Shape"></path>
                        <path d="M49.6163721,324.854067 L48.582984,324.854067 C49.1513474,324.854067 49.6163721,324.381777 49.6163721,323.804533 L49.6163721,322.754998 C49.6163721,322.177754 49.1513474,321.705463 48.582984,321.705463 L47.549596,321.705463 C46.9812325,321.705463 46.5162079,322.177754 46.5162079,322.754998 L46.5162079,323.804533 C46.5162079,324.381777 46.9812325,324.854067 47.549596,324.854067 L46.5162079,324.854067 C45.9478445,324.854067 45.4828199,325.326358 45.4828199,325.903602 L45.4828199,328.002672 L46.5162079,328.002672 L46.5162079,331.151276 C46.5162079,331.72852 46.9812325,332.200811 47.549596,332.200811 L48.582984,332.200811 C49.1513474,332.200811 49.6163721,331.72852 49.6163721,331.151276 L49.6163721,328.002672 L50.6497601,328.002672 L50.6497601,325.903602 C50.6497601,325.326358 50.1847355,324.854067 49.6163721,324.854067 L49.6163721,324.854067 Z M47.549596,322.754998 L48.582984,322.754998 L48.582984,323.804533 L47.549596,323.804533 L47.549596,322.754998 L47.549596,322.754998 Z M49.6163721,326.953137 L48.582984,326.953137 L48.582984,331.151276 L47.549596,331.151276 L47.549596,326.953137 L46.5162079,326.953137 L46.5162079,325.903602 L49.6163721,325.903602 L49.6163721,326.953137 L49.6163721,326.953137 Z M51.7761531,323.279765 C51.7761531,321.201687 50.1123983,319.511936 48.06629,319.511936 C46.0201817,319.511936 44.3564269,321.201687 44.3564269,323.279765 C44.3564269,323.573635 44.3874285,323.857009 44.4494318,324.129888 L44.4494318,326.207967 C43.8190651,325.399826 43.4160438,324.392272 43.4160438,323.26927 C43.4160438,320.666424 45.5034876,318.546364 48.06629,318.546364 C50.6290924,318.546364 52.7165362,320.666424 52.7165362,323.26927 C52.7165362,324.381777 52.3135149,325.399826 51.6831482,326.207967 L51.6831482,324.129888 C51.7451515,323.846514 51.7761531,323.573635 51.7761531,323.279765 L51.7761531,323.279765 Z M55.8167004,323.279765 C55.8167004,326.302425 54.1322778,328.926262 51.6831482,330.238181 L51.6831482,329.136169 C53.6052499,327.918709 54.8763172,325.756667 54.8763172,323.279765 C54.8763172,319.459459 51.8278225,316.363331 48.06629,316.363331 C44.3047575,316.363331 41.2562627,319.459459 41.2562627,323.279765 C41.2562627,325.756667 42.52733,327.918709 44.4494318,329.136169 L44.4494318,330.238181 C42.0003021,328.926262 40.3158796,326.302425 40.3158796,323.279765 C40.3158796,318.934692 43.7880635,315.408255 48.06629,315.408255 C52.3445165,315.408255 55.8167004,318.934692 55.8167004,323.279765 L55.8167004,323.279765 Z" id="Shape"></path>
                        <path d="M264,5 L259.1,4.36 L257,0 L254.9,4.36 L250,5 L253.6,8.26 L252.67,13 L257,10.67 L261.33,13 L260.4,8.26 L264,5 L264,5 Z" id="Shape"></path>
                        <path d="M349,33 L357,33 L357,35 L349,35 L349,33 L349,33 Z M349,39 L357,39 L357,37 L349,37 L349,39 L349,39 Z M349,43 L357,43 L357,41 L349,41 L349,43 L349,43 Z M371,33 L363,33 L363,35 L371,35 L371,33 L371,33 Z M371,37 L363,37 L363,39 L371,39 L371,37 L371,37 Z M371,41 L363,41 L363,43 L371,43 L371,41 L371,41 Z M375,29 L375,47 C375,48.1 374.1,49 373,49 L362,49 L360,51 L358,49 L347,49 C345.9,49 345,48.1 345,47 L345,29 C345,27.9 345.9,27 347,27 L358,27 L360,29 L362,27 L373,27 C374.1,27 375,27.9 375,29 L375,29 Z M359,30 L358,29 L347,29 L347,47 L359,47 L359,30 L359,30 Z M373,29 L362,29 L361,30 L361,47 L373,47 L373,29 L373,29 Z" id="Shape"></path>
                        <path d="M373,179 L370,179 L370,183.5 C370,184.34 369.34,185 368.5,185 L362.5,185 C361.66,185 361,184.34 361,183.5 L361,179 L352,179 L352,183.5 C352,184.34 351.34,185 350.5,185 L344.5,185 C343.66,185 343,184.34 343,183.5 L343,179 L340,179 C338.35,179 337,180.35 337,182 L337,215 C337,216.65 338.35,218 340,218 L373,218 C374.65,218 376,216.65 376,215 L376,182 C376,180.35 374.65,179 373,179 L373,179 Z M373,215 L340,215 L340,188 L373,188 L373,215 L373,215 Z M349,182 L346,182 L346,176 L349,176 L349,182 L349,182 Z M367,182 L364,182 L364,176 L367,176 L367,182 L367,182 Z M352,194 L349,194 L349,191 L352,191 L352,194 L352,194 Z M358,194 L355,194 L355,191 L358,191 L358,194 L358,194 Z M364,194 L361,194 L361,191 L364,191 L364,194 L364,194 Z M370,194 L367,194 L367,191 L370,191 L370,194 L370,194 Z M346,200 L343,200 L343,197 L346,197 L346,200 L346,200 Z M352,200 L349,200 L349,197 L352,197 L352,200 L352,200 Z M358,200 L355,200 L355,197 L358,197 L358,200 L358,200 Z M364,200 L361,200 L361,197 L364,197 L364,200 L364,200 Z M370,200 L367,200 L367,197 L370,197 L370,200 L370,200 Z M346,206 L343,206 L343,203 L346,203 L346,206 L346,206 Z M352,206 L349,206 L349,203 L352,203 L352,206 L352,206 Z M358,206 L355,206 L355,203 L358,203 L358,206 L358,206 Z M364,206 L361,206 L361,203 L364,203 L364,206 L364,206 Z M370,206 L367,206 L367,203 L370,203 L370,206 L370,206 Z M346,212 L343,212 L343,209 L346,209 L346,212 L346,212 Z M352,212 L349,212 L349,209 L352,209 L352,212 L352,212 Z M358,212 L355,212 L355,209 L358,209 L358,212 L358,212 Z M364,212 L361,212 L361,209 L364,209 L364,212 L364,212 Z" id="Shape"></path>
                        <path d="M421.2,90.0912171 L416,93.7212171 L416,91.0012171 C416,90.4512171 415.55,90.0012171 415,90.0012171 L407,90.0012171 C406.45,90.0012171 406,90.4512171 406,91.0012171 L406,100.001217 C406,100.551217 406.45,101.001217 407,101.001217 L415,101.001217 C415.55,101.001217 416,100.551217 416,100.001217 L416,97.2812171 L421.2,100.911217 C421.53,101.141217 422,100.911217 422,100.501217 L422,90.5012171 C422,90.0912171 421.53,89.8612171 421.2,90.0912171 L421.2,90.0912171 Z" id="Shape"></path>
                        <path d="M146,276 L150,276 L150,280 L146,280 L146,276 L146,276 Z M158,275 L158,294 C158,295.1 157.1,296 156,296 L136,296 C134.9,296 134,295.1 134,294 L134,270 C134,268.9 134.9,268 136,268 L151,268 L158,275 L158,275 Z M156,276 L150,270 L136,270 L136,292 L142,282 L146,290 L150,286 L156,292 L156,276 L156,276 Z" id="Shape"></path>
                        <path d="M73.8392745,245 L58.1894934,245 C57.0087555,245 57.0087555,244.18 57.0087555,243 C57.0087555,241.82 57.0087555,241 58.1894934,241 L73.819262,241 C75,241 75,241.82 75,243 C75,244.18 75,245 73.819262,245 L73.8392745,245 Z M62.191995,235 C61.011257,235 61.011257,234.18 61.011257,233 C61.011257,231.82 61.011257,231 62.191995,231 L73.819262,231 C75,231 75,231.82 75,233 C75,234.18 75,235 73.819262,235 L62.191995,235 L62.191995,235 Z M43,234.82 L45.8217636,232.22 L49.0037523,235.4 L57.188868,227 L60.0106316,229.82 L49.0037523,240.82 L43,234.82 L43,234.82 Z M58.1894934,251 L73.819262,251 C75,251 75,251.82 75,253 C75,254.18 75,255 73.819262,255 L58.1894934,255 C57.0087555,255 57.0087555,254.18 57.0087555,253 C57.0087555,251.82 57.0087555,251 58.1894934,251 L58.1894934,251 Z" id="Shape"></path>
                    </g>
                </g>
                <g id="1.0" transform="translate(159.000000, 140.000000)">
                    <circle id="BG" fill="#E01065" cx="60" cy="60" r="60"></circle>
                    <path d="M35.7084338,74.8789963 C35.7084338,76.6730884 37.1859214,78.0978086 38.9272461,78.0978086 C40.7213383,78.0978086 42.1460585,76.6730884 42.1460585,74.8789963 L42.1460585,43.6406862 C42.1460585,41.8465941 40.7741057,40.4218739 38.9272461,40.4218739 L38.8217113,40.4218739 C37.8718978,40.4218739 36.9220843,40.6329435 35.6556664,41.0023154 L30.0623203,42.7964076 C28.7431349,43.1657795 27.8988563,44.2211278 27.8988563,45.5930806 C27.8988563,47.0705682 29.2180416,48.3369862 30.7482967,48.3369862 C31.0649012,48.3369862 31.5398079,48.2842188 31.9091798,48.178684 L35.7084338,47.0178008 L35.7084338,74.8789963 Z M50.588845,73.9291828 L50.588845,74.456857 C50.588845,76.5147862 52.1718675,78.0978086 54.3353315,78.0978086 C56.4460281,78.0978086 58.0290506,76.5147862 58.0290506,74.456857 L58.0290506,73.9291828 C58.0290506,71.8712536 56.4460281,70.2882311 54.3353315,70.2882311 C52.1718675,70.2882311 50.588845,71.8712536 50.588845,73.9291828 L50.588845,73.9291828 Z M80.4552023,78.4671806 C90.1644067,78.4671806 96.6020315,69.9188592 96.6020315,59.3653761 L96.6020315,59.2598413 C96.6020315,48.7063581 90.2171742,40.2635716 80.5607371,40.2635716 C70.8515326,40.2635716 64.4139079,48.8118929 64.4139079,59.3653761 L64.4139079,59.4709109 C64.4139079,70.024394 70.7459978,78.4671806 80.4552023,78.4671806 L80.4552023,78.4671806 Z M80.5607371,72.6099974 C74.8090888,72.6099974 71.1153697,66.6472794 71.1153697,59.3653761 L71.1153697,59.2598413 C71.1153697,51.9251705 74.7563214,46.1207547 80.4552023,46.1207547 C86.1540832,46.1207547 89.9005697,52.0834727 89.9005697,59.3653761 L89.9005697,59.4709109 C89.9005697,66.7000469 86.3123854,72.6099974 80.5607371,72.6099974 L80.5607371,72.6099974 Z" fill="#FFFFFF"></path>
                </g>
            </g>
        </g>
    </g>
</svg>