<?xml version="1.0" encoding="UTF-8" standalone="no"?>
<svg width="400px" height="250px" viewBox="0 0 400 250" version="1.1" xmlns="http://www.w3.org/2000/svg" xmlns:xlink="http://www.w3.org/1999/xlink">
    <!-- Generator: Sketch 3.6.1 (26313) - http://www.bohemiancoding.com/sketch -->
    <title>hero-electron</title>
    <desc>Created with Sketch.</desc>
    <defs></defs>
    <g id="1" stroke="none" stroke-width="1" fill="none" fill-rule="evenodd">
        <g id="Hero" transform="translate(-39.000000, -35.000000)" fill="#47848F">
            <g id="Left" transform="translate(0.000000, 35.000000)">
                <g id="Logo" transform="translate(80.000000, 0.000000)">
                    <g id="Electron" transform="translate(0.000000, 207.000000)">
                        <path d="M6.94336481,35 L26.3033648,35 C27.1833648,35 27.8873648,34.296 27.8873648,33.416 C27.8873648,32.536 27.1833648,31.832 26.3033648,31.832 L8.70336481,31.832 L8.70336481,21.052 L24.1033648,21.052 C24.9833648,21.052 25.6873648,20.348 25.6873648,19.468 C25.6873648,18.632 24.9833648,17.884 24.1033648,17.884 L8.70336481,17.884 L8.70336481,7.368 L26.0833648,7.368 C26.9633648,7.368 27.6673648,6.664 27.6673648,5.784 C27.6673648,4.904 26.9633648,4.2 26.0833648,4.2 L6.94336481,4.2 C6.01936481,4.2 5.22736481,4.992 5.22736481,5.96 L5.22736481,33.24 C5.22736481,34.208 6.01936481,35 6.94336481,35 L6.94336481,35 Z M43.9705236,33.24 C43.9705236,34.208 44.7625236,35 45.6865236,35 L63.4185236,35 C64.2985236,35 65.0025236,34.296 65.0025236,33.416 C65.0025236,32.536 64.2985236,31.788 63.4185236,31.788 L47.4465236,31.788 L47.4465236,5.74 C47.4465236,4.772 46.6545236,3.98 45.6865236,3.98 C44.7625236,3.98 43.9705236,4.772 43.9705236,5.74 L43.9705236,33.24 Z M82.1856824,35 L101.545682,35 C102.425682,35 103.129682,34.296 103.129682,33.416 C103.129682,32.536 102.425682,31.832 101.545682,31.832 L83.9456824,31.832 L83.9456824,21.052 L99.3456824,21.052 C100.225682,21.052 100.929682,20.348 100.929682,19.468 C100.929682,18.632 100.225682,17.884 99.3456824,17.884 L83.9456824,17.884 L83.9456824,7.368 L101.325682,7.368 C102.205682,7.368 102.909682,6.664 102.909682,5.784 C102.909682,4.904 102.205682,4.2 101.325682,4.2 L82.1856824,4.2 C81.2616824,4.2 80.4696824,4.992 80.4696824,5.96 L80.4696824,33.24 C80.4696824,34.208 81.2616824,35 82.1856824,35 L82.1856824,35 Z M133.292841,35.528 C138.352841,35.528 141.696841,33.768 144.732841,30.996 C145.040841,30.732 145.304841,30.292 145.304841,29.764 C145.304841,28.884 144.512841,28.092 143.632841,28.092 C143.192841,28.092 142.796841,28.312 142.532841,28.576 C139.892841,30.996 137.208841,32.316 133.380841,32.316 C126.604841,32.316 121.456841,26.728 121.456841,19.6 L121.456841,19.512 C121.456841,12.428 126.560841,6.884 133.380841,6.884 C137.164841,6.884 139.848841,8.292 142.224841,10.404 C142.488841,10.58 142.884841,10.8 143.368841,10.8 C144.292841,10.8 145.128841,10.008 145.128841,9.084 C145.128841,8.468 144.776841,7.984 144.424841,7.676 C141.564841,5.3 138.396841,3.672 133.424841,3.672 C124.360841,3.672 117.848841,10.888 117.848841,19.6 L117.848841,19.688 C117.848841,28.532 124.404841,35.528 133.292841,35.528 L133.292841,35.528 Z M169.088,33.46 C169.088,34.428 169.88,35.22 170.848,35.22 C171.816,35.22 172.608,34.428 172.608,33.46 L172.608,7.412 L181.54,7.412 C182.42,7.412 183.168,6.708 183.168,5.828 C183.168,4.948 182.42,4.2 181.54,4.2 L160.156,4.2 C159.276,4.2 158.528,4.948 158.528,5.828 C158.528,6.708 159.276,7.412 160.156,7.412 L169.088,7.412 L169.088,33.46 Z M198.723159,33.46 C198.723159,34.428 199.515159,35.22 200.439159,35.22 C201.407159,35.22 202.199159,34.428 202.199159,33.46 L202.199159,23.032 L211.043159,23.032 L219.711159,34.296 C220.107159,34.824 220.635159,35.22 221.339159,35.22 C222.219159,35.22 223.099159,34.428 223.099159,33.504 C223.099159,33.02 222.879159,32.624 222.527159,32.228 L214.871159,22.372 C219.667159,21.448 223.099159,18.5 223.099159,13.44 L223.099159,13.352 C223.099159,10.932 222.219159,8.776 220.723159,7.28 C218.787159,5.344 215.751159,4.2 211.967159,4.2 L200.439159,4.2 C199.515159,4.2 198.723159,4.992 198.723159,5.96 L198.723159,33.46 Z M202.199159,19.908 L202.199159,7.412 L211.703159,7.412 C216.675159,7.412 219.579159,9.7 219.579159,13.484 L219.579159,13.572 C219.579159,17.532 216.279159,19.908 211.659159,19.908 L202.199159,19.908 Z M254.098318,35.528 C263.470318,35.528 269.850318,28.092 269.850318,19.6 L269.850318,19.512 C269.850318,11.02 263.558318,3.672 254.186318,3.672 C244.814318,3.672 238.434318,11.108 238.434318,19.6 L238.434318,19.688 C238.434318,28.18 244.726318,35.528 254.098318,35.528 L254.098318,35.528 Z M254.186318,32.316 C247.146318,32.316 242.042318,26.596 242.042318,19.6 L242.042318,19.512 C242.042318,12.516 247.058318,6.884 254.098318,6.884 C261.138318,6.884 266.242318,12.604 266.242318,19.6 L266.242318,19.688 C266.242318,26.684 261.226318,32.316 254.186318,32.316 L254.186318,32.316 Z M286.461476,33.504 C286.461476,34.428 287.209476,35.22 288.133476,35.22 C289.101476,35.22 289.849476,34.428 289.849476,33.504 L289.849476,9.656 L308.945476,34.076 C309.473476,34.692 310.001476,35.132 310.749476,35.132 L310.925476,35.132 C311.849476,35.132 312.509476,34.428 312.509476,33.504 L312.509476,5.696 C312.509476,4.772 311.761476,3.98 310.837476,3.98 C309.869476,3.98 309.121476,4.772 309.121476,5.696 L309.121476,28.928 L290.421476,5.08 C289.937476,4.464 289.453476,4.068 288.661476,4.068 L288.177476,4.068 C287.253476,4.068 286.461476,4.86 286.461476,5.784 L286.461476,33.504 Z" id="ELECTRON"></path>
                    </g>
                    <g id="Icon" transform="translate(85.000000, 4.000000)">
                        <path d="M128.764204,126.381267 C127.909502,124.88972 127.421235,123.163649 127.421235,121.324192 C127.421235,115.674087 132.027948,111.093773 137.710617,111.093773 C143.393286,111.093773 148,115.674087 148,121.324192 C148,126.974296 143.393286,131.554611 137.710617,131.554611 C135.471258,131.554611 133.398984,130.843335 131.709859,129.635609 C115.295445,139.236889 83.9420579,134.339749 54.4370201,117.402626 C41.8770898,110.192701 30.8638941,101.505089 22.3867731,92.242745 C21.587675,91.3696277 21.6517589,90.0177414 22.5299085,89.2232225 C23.4080582,88.4287037 24.7677361,88.4924203 25.5668343,89.3655377 C33.7378991,98.2934757 44.4022903,106.705939 56.5868347,113.700376 C84.4321166,129.68473 113.755113,134.441518 128.764204,126.381267 Z M133.81664,125.849528 C134.863751,126.741091 136.223931,127.279621 137.710617,127.279621 C141.018667,127.279621 143.700371,124.613284 143.700371,121.324192 C143.700371,118.035099 141.018667,115.368763 137.710617,115.368763 C134.402568,115.368763 131.720864,118.035099 131.720864,121.324192 C131.720864,122.768018 132.237624,124.091841 133.097281,125.122794 C133.347248,125.275705 133.569591,125.482263 133.745626,125.738954 C133.770577,125.775336 133.794245,125.812212 133.81664,125.849528 Z M9.52084304,111.12188 C9.77457454,111.103252 10.0308652,111.093773 10.2893826,111.093773 C15.9720517,111.093773 20.5787652,115.674087 20.5787652,121.324192 C20.5787652,126.974296 15.9720517,131.554611 10.2893826,131.554611 C4.6067135,131.554611 -3.55271368e-14,126.974296 -3.55271368e-14,121.324192 C-3.55271368e-14,117.47787 2.13485988,114.127315 5.29070788,112.380014 C3.74084901,93.2594213 23.9538187,67.6285261 54.5000695,50.0937032 C67.1880151,42.8102929 80.3993356,37.6406246 92.8112099,34.9965655 C93.9721718,34.7492498 95.1149619,35.4845131 95.363703,36.638822 C95.6124442,37.7931309 94.8729432,38.9293722 93.7119813,39.1766879 C81.7502859,41.7248469 68.9581994,46.7304664 56.6498841,53.7959531 C27.8831185,70.3092773 8.86168607,94.110122 9.52084304,111.12188 Z M83.2196684,14.9227186 C81.5089312,18.2123071 78.0555627,20.4608377 74.0739949,20.4608377 C68.3913259,20.4608377 63.7846124,15.8805232 63.7846124,10.2304188 C63.7846124,4.58031453 68.3913259,0 74.0739949,0 C79.756664,0 84.3633775,4.58031453 84.3633775,10.2304188 C84.3633775,10.3782201 84.3602252,10.5252894 84.3539837,10.6715637 C101.386403,19.4300827 113.221846,49.2969675 113.221846,83.8024538 C113.221846,97.9940039 111.226284,111.612773 107.510708,123.418306 C107.156122,124.544937 105.950093,125.172451 104.816968,124.819896 C103.683842,124.467341 103.052712,123.268224 103.407299,122.141592 C106.989669,110.759293 108.922217,97.5705681 108.922217,83.8024538 C108.922217,51.3118628 98.0598031,23.3534445 83.2196684,14.9227186 Z M75.6456213,91.0372833 C71.6267076,91.9006644 67.6672705,89.3612088 66.7972139,85.3653257 C65.9305559,81.3694425 68.4829485,77.4326951 72.5018622,76.5676244 C76.5207759,75.7042433 80.4802131,78.2436989 81.3502696,82.239582 C82.2186269,86.2354651 79.664535,90.1722126 75.6456213,91.0372833 Z M74.0739949,16.1858477 C70.7659455,16.1858477 68.0842416,13.5195114 68.0842416,10.2304188 C68.0842416,6.94132631 70.7659455,4.27498999 74.0739949,4.27498999 C77.3820444,4.27498999 80.0637483,6.94132631 80.0637483,10.2304188 C80.0637483,13.5195114 77.3820444,16.1858477 74.0739949,16.1858477 Z M10.2893826,127.279621 C6.98133314,127.279621 4.2996292,124.613284 4.2996292,121.324192 C4.2996292,118.035099 6.98133314,115.368763 10.2893826,115.368763 C13.597432,115.368763 16.279136,118.035099 16.279136,121.324192 C16.279136,124.613284 13.597432,127.279621 10.2893826,127.279621 Z M41.9508786,127.316228 C49.128228,147.243119 60.870366,159.511984 74.0739949,159.511984 C83.7036487,159.511984 92.6129664,152.98536 99.5604003,141.494757 C100.172129,140.482997 99.843113,139.169741 98.8255216,138.561518 C97.8079303,137.953294 96.4871051,138.280425 95.8753761,139.292185 C89.6317279,149.618772 81.9624453,155.236994 74.0739949,155.236994 C63.1060708,155.236994 52.6331199,144.294249 45.9987652,125.874906 C45.5984611,124.763518 44.3678002,124.185212 43.2500072,124.583222 C42.1322142,124.981232 41.5505745,126.20484 41.9508786,127.316228 Z M128.090587,89.6424377 C141.818033,73.5185343 146.611183,57.3015142 140.018268,45.9476888 C135.167076,37.5933298 124.91152,33.1825789 111.282048,33.0063421 C110.094839,32.9909908 109.119899,33.9354543 109.104459,35.1158604 C109.089019,36.2962664 110.038926,37.2656193 111.226136,37.2809706 C123.484127,37.4394733 132.3195,41.2394262 136.29468,48.0851838 C141.770884,57.5158929 137.496461,71.9778658 124.808858,86.8803951 C124.041745,87.7814262 124.154517,89.1301604 125.060742,89.8928774 C125.966966,90.6555944 127.323474,90.5434687 128.090587,89.6424377 Z M52.2145827,34.2848061 C31.2494732,30.4882412 14.6731918,34.4618571 8.06667284,45.8391099 C3.13674043,54.3290709 4.54592161,65.5853446 11.4842186,77.6176097 C12.0747701,78.641733 13.3885077,78.9959559 14.4185337,78.4087886 C15.4485597,77.8216213 15.8048241,76.5154121 15.2142726,75.4912887 C8.96417529,64.6524865 7.74799763,54.9378885 11.790261,47.9766049 C17.2783245,38.5254723 32.0640802,34.9810759 51.444151,38.4906066 C52.6122445,38.7021362 53.7316385,37.9321144 53.9443873,36.7707147 C54.1571362,35.6093149 53.3826763,34.4963357 52.2145827,34.2848061 Z"></path>
                    </g>
                </g>
            </g>
        </g>
    </g>
</svg>