<?xml version="1.0" encoding="UTF-8" standalone="no"?>
<svg width="96px" height="96px" viewBox="0 0 96 96" version="1.1" xmlns="http://www.w3.org/2000/svg" xmlns:xlink="http://www.w3.org/1999/xlink">
    <!-- Generator: Sketch 3.7.2 (28276) - http://www.bohemiancoding.com/sketch -->
    <title>spectron-icon</title>
    <desc>Created with Sketch.</desc>
    <defs></defs>
    <g id="Spectron" stroke="none" stroke-width="1" fill="none" fill-rule="evenodd">
        <g id="Devtron" transform="translate(-111.000000, 0.000000)">
            <g id="Icon" transform="translate(111.000000, 0.000000)">
                <circle id="BG" fill="#50556E" cx="48" cy="48" r="48"></circle>
                <path d="M48.2250914,70.64 C57.1210914,70.64 63.5210914,65.648 63.5210914,57.968 L63.5210914,57.84 C63.5210914,50.992 58.9130914,47.344 48.9290914,45.168 C39.0730914,43.056 36.7690914,40.688 36.7690914,36.464 L36.7690914,36.336 C36.7690914,32.304 40.4810914,29.104 46.3050914,29.104 C50.4650914,29.104 54.1130914,30.256 57.8890914,33.008 C58.3370914,33.328 58.7850914,33.456 59.3610914,33.456 C60.7050914,33.456 61.7930914,32.368 61.7930914,31.024 C61.7930914,30.064 61.2170914,29.36 60.7050914,28.976 C56.6090914,26.032 52.3210914,24.56 46.4330914,24.56 C37.9210914,24.56 31.7130914,29.744 31.7130914,36.784 L31.7130914,36.912 C31.7130914,44.272 36.4490914,47.6 46.7530914,49.84 C56.1610914,51.824 58.4010914,54.192 58.4010914,58.352 L58.4010914,58.48 C58.4010914,62.896 54.4330914,66.096 48.4170914,66.096 C42.7210914,66.096 38.4970914,64.368 34.2730914,60.784 C33.9530914,60.464 33.3770914,60.208 32.7370914,60.208 C31.3930914,60.208 30.3050914,61.296 30.3050914,62.704 C30.3050914,63.536 30.6890914,64.24 31.2650914,64.624 C36.2570914,68.592 41.6970914,70.64 48.2250914,70.64 L48.2250914,70.64 Z" id="S" fill="#2B2E3B"></path>
                <ellipse id="Electron" stroke="#2B2E3B" stroke-width="4" stroke-linecap="round" stroke-linejoin="round" fill="#95E45A" cx="62" cy="33" rx="6" ry="6"></ellipse>
            </g>
        </g>
    </g>
</svg>