<?xml version="1.0" encoding="UTF-8" standalone="no"?>
<svg width="304px" height="34px" viewBox="0 0 304 34" version="1.1" xmlns="http://www.w3.org/2000/svg" xmlns:xlink="http://www.w3.org/1999/xlink">
    <!-- Generator: Sketch 3.7.2 (28276) - http://www.bohemiancoding.com/sketch -->
    <title>spectron-logo</title>
    <desc>Created with Sketch.</desc>
    <defs></defs>
    <g id="Spectron" stroke="none" stroke-width="1" fill="none" fill-rule="evenodd">
        <g id="Devtron" transform="translate(-12.000000, -129.000000)" fill="#9CE5F4">
            <g id="Name" transform="translate(11.000000, 126.000000)">
                <path d="M14.922,35.44 C21.038,35.44 25.438,32.008 25.438,26.728 L25.438,26.64 C25.438,21.932 22.27,19.424 15.406,17.928 C8.63,16.476 7.046,14.848 7.046,11.944 L7.046,11.856 C7.046,9.084 9.598,6.884 13.602,6.884 C16.462,6.884 18.97,7.676 21.566,9.568 C21.874,9.788 22.182,9.876 22.578,9.876 C23.502,9.876 24.25,9.128 24.25,8.204 C24.25,7.544 23.854,7.06 23.502,6.796 C20.686,4.772 17.738,3.76 13.69,3.76 C7.838,3.76 3.57,7.324 3.57,12.164 L3.57,12.252 C3.57,17.312 6.826,19.6 13.91,21.14 C20.378,22.504 21.918,24.132 21.918,26.992 L21.918,27.08 C21.918,30.116 19.19,32.316 15.054,32.316 C11.138,32.316 8.234,31.128 5.33,28.664 C5.11,28.444 4.714,28.268 4.274,28.268 C3.35,28.268 2.602,29.016 2.602,29.984 C2.602,30.556 2.866,31.04 3.262,31.304 C6.694,34.032 10.434,35.44 14.922,35.44 L14.922,35.44 Z M40.522,33.46 C40.522,34.428 41.314,35.22 42.238,35.22 C43.206,35.22 43.998,34.428 43.998,33.46 L43.998,24.132 L51.478,24.132 C58.034,24.132 63.578,20.7 63.578,14.056 L63.578,13.968 C63.578,7.896 59.002,4.2 52.05,4.2 L42.238,4.2 C41.314,4.2 40.522,4.992 40.522,5.96 L40.522,33.46 Z M43.998,20.964 L43.998,7.412 L51.786,7.412 C56.758,7.412 60.058,9.7 60.058,14.1 L60.058,14.188 C60.058,18.236 56.714,20.964 51.61,20.964 L43.998,20.964 Z M79.63,35 L98.99,35 C99.87,35 100.574,34.296 100.574,33.416 C100.574,32.536 99.87,31.832 98.99,31.832 L81.39,31.832 L81.39,21.052 L96.79,21.052 C97.67,21.052 98.374,20.348 98.374,19.468 C98.374,18.632 97.67,17.884 96.79,17.884 L81.39,17.884 L81.39,7.368 L98.77,7.368 C99.65,7.368 100.354,6.664 100.354,5.784 C100.354,4.904 99.65,4.2 98.77,4.2 L79.63,4.2 C78.706,4.2 77.914,4.992 77.914,5.96 L77.914,33.24 C77.914,34.208 78.706,35 79.63,35 L79.63,35 Z M129.474,35.528 C134.534,35.528 137.878,33.768 140.914,30.996 C141.222,30.732 141.486,30.292 141.486,29.764 C141.486,28.884 140.694,28.092 139.814,28.092 C139.374,28.092 138.978,28.312 138.714,28.576 C136.074,30.996 133.39,32.316 129.562,32.316 C122.786,32.316 117.638,26.728 117.638,19.6 L117.638,19.512 C117.638,12.428 122.742,6.884 129.562,6.884 C133.346,6.884 136.03,8.292 138.406,10.404 C138.67,10.58 139.066,10.8 139.55,10.8 C140.474,10.8 141.31,10.008 141.31,9.084 C141.31,8.468 140.958,7.984 140.606,7.676 C137.746,5.3 134.578,3.672 129.606,3.672 C120.542,3.672 114.03,10.888 114.03,19.6 L114.03,19.688 C114.03,28.532 120.586,35.528 129.474,35.528 L129.474,35.528 Z M164.006,33.46 C164.006,34.428 164.798,35.22 165.766,35.22 C166.734,35.22 167.526,34.428 167.526,33.46 L167.526,7.412 L176.458,7.412 C177.338,7.412 178.086,6.708 178.086,5.828 C178.086,4.948 177.338,4.2 176.458,4.2 L155.074,4.2 C154.194,4.2 153.446,4.948 153.446,5.828 C153.446,6.708 154.194,7.412 155.074,7.412 L164.006,7.412 L164.006,33.46 Z M192.378,33.46 C192.378,34.428 193.17,35.22 194.094,35.22 C195.062,35.22 195.854,34.428 195.854,33.46 L195.854,23.032 L204.698,23.032 L213.366,34.296 C213.762,34.824 214.29,35.22 214.994,35.22 C215.874,35.22 216.754,34.428 216.754,33.504 C216.754,33.02 216.534,32.624 216.182,32.228 L208.526,22.372 C213.322,21.448 216.754,18.5 216.754,13.44 L216.754,13.352 C216.754,10.932 215.874,8.776 214.378,7.28 C212.442,5.344 209.406,4.2 205.622,4.2 L194.094,4.2 C193.17,4.2 192.378,4.992 192.378,5.96 L192.378,33.46 Z M195.854,19.908 L195.854,7.412 L205.358,7.412 C210.33,7.412 213.234,9.7 213.234,13.484 L213.234,13.572 C213.234,17.532 209.934,19.908 205.314,19.908 L195.854,19.908 Z M246.49,35.528 C255.862,35.528 262.242,28.092 262.242,19.6 L262.242,19.512 C262.242,11.02 255.95,3.672 246.578,3.672 C237.206,3.672 230.826,11.108 230.826,19.6 L230.826,19.688 C230.826,28.18 237.118,35.528 246.49,35.528 L246.49,35.528 Z M246.578,32.316 C239.538,32.316 234.434,26.596 234.434,19.6 L234.434,19.512 C234.434,12.516 239.45,6.884 246.49,6.884 C253.53,6.884 258.634,12.604 258.634,19.6 L258.634,19.688 C258.634,26.684 253.618,32.316 246.578,32.316 L246.578,32.316 Z M277.59,33.504 C277.59,34.428 278.338,35.22 279.262,35.22 C280.23,35.22 280.978,34.428 280.978,33.504 L280.978,9.656 L300.074,34.076 C300.602,34.692 301.13,35.132 301.878,35.132 L302.054,35.132 C302.978,35.132 303.638,34.428 303.638,33.504 L303.638,5.696 C303.638,4.772 302.89,3.98 301.966,3.98 C300.998,3.98 300.25,4.772 300.25,5.696 L300.25,28.928 L281.55,5.08 C281.066,4.464 280.582,4.068 279.79,4.068 L279.306,4.068 C278.382,4.068 277.59,4.86 277.59,5.784 L277.59,33.504 Z" id="SPECTRON"></path>
            </g>
        </g>
    </g>
</svg>