<?xml version="1.0" encoding="UTF-8" standalone="no"?>
<svg width="236px" height="200px" viewBox="0 0 236 200" version="1.1" xmlns="http://www.w3.org/2000/svg" xmlns:xlink="http://www.w3.org/1999/xlink">
    <!-- Generator: Sketch 3.7.2 (28276) - http://www.bohemiancoding.com/sketch -->
    <title>web-tech</title>
    <desc>Created with Sketch.</desc>
    <defs></defs>
    <g id="Page-4" stroke="none" stroke-width="1" fill="none" fill-rule="evenodd">
        <g id="Web-Tech" transform="translate(0.000000, -18.000000)">
            <g id="faded" transform="translate(19.000000, 26.000000)">
                <g id="browser" transform="translate(123.000000, 168.000000)"></g>
                <path d="M149,101 L153,101 L153,105 L149,105 L149,101 L149,101 Z M141,101 L145,101 L145,105 L141,105 L141,101 L141,101 Z M133,101 L137,101 L137,105 L133,105 L133,101 L133,101 Z M181,141 L133,141 L133,109 L181,109 L181,141 L181,141 Z M181,105 L157,105 L157,101 L181,101 L181,105 L181,105 Z M185,101 C185,98.8 183.2,97 181,97 L133,97 C130.8,97 129,98.8 129,101 L129,141 C129,143.2 130.8,145 133,145 L181,145 C183.2,145 185,143.2 185,141 L185,101 L185,101 Z" id="4" fill="#E8F6F8"></path>
                <path d="M15,135 L18,135 L18,138 L15,138 L15,135 L15,135 Z M9,135 L12,135 L12,138 L9,138 L9,135 L9,135 Z M3,135 L6,135 L6,138 L3,138 L3,135 L3,135 Z M39,165 L3,165 L3,141 L39,141 L39,165 L39,165 Z M39,138 L21,138 L21,135 L39,135 L39,138 L39,138 Z M42,135 C42,133.35 40.65,132 39,132 L3,132 C1.35,132 0,133.35 0,135 L0,165 C0,166.65 1.35,168 3,168 L39,168 C40.65,168 42,166.65 42,165 L42,135 L42,135 Z" id="3" fill="#E8F6F8"></path>
                <path d="M75,87 L78,87 L78,90 L75,90 L75,87 L75,87 Z M69,87 L72,87 L72,90 L69,90 L69,87 L69,87 Z M63,87 L66,87 L66,90 L63,90 L63,87 L63,87 Z M99,117 L63,117 L63,93 L99,93 L99,117 L99,117 Z M99,90 L81,90 L81,87 L99,87 L99,90 L99,90 Z M102,87 C102,85.35 100.65,84 99,84 L63,84 C61.35,84 60,85.35 60,87 L60,117 C60,118.65 61.35,120 63,120 L99,120 C100.65,120 102,118.65 102,117 L102,87 L102,87 Z" id="3" fill="#E8F6F8"></path>
                <path d="M190,71 L192,71 L192,73 L190,73 L190,71 L190,71 Z M186,71 L188,71 L188,73 L186,73 L186,71 L186,71 Z M182,71 L184,71 L184,73 L182,73 L182,71 L182,71 Z M206,91 L182,91 L182,75 L206,75 L206,91 L206,91 Z M206,73 L194,73 L194,71 L206,71 L206,73 L206,73 Z M208,71 C208,69.9 207.1,69 206,69 L182,69 C180.9,69 180,69.9 180,71 L180,91 C180,92.1 180.9,93 182,93 L206,93 C207.1,93 208,92.1 208,91 L208,71 L208,71 Z" id="2" fill="#E8F6F8"></path>
                <path d="M22,79 L24,79 L24,81 L22,81 L22,79 L22,79 Z M18,79 L20,79 L20,81 L18,81 L18,79 L18,79 Z M14,79 L16,79 L16,81 L14,81 L14,79 L14,79 Z M38,99 L14,99 L14,83 L38,83 L38,99 L38,99 Z M38,81 L26,81 L26,79 L38,79 L38,81 L38,81 Z M40,79 C40,77.9 39.1,77 38,77 L14,77 C12.9,77 12,77.9 12,79 L12,99 C12,100.1 12.9,101 14,101 L38,101 C39.1,101 40,100.1 40,99 L40,79 L40,79 Z" id="2" fill="#E8F6F8"></path>
                <path d="M92,162 L94,162 L94,164 L92,164 L92,162 L92,162 Z M88,162 L90,162 L90,164 L88,164 L88,162 L88,162 Z M84,162 L86,162 L86,164 L84,164 L84,162 L84,162 Z M108,182 L84,182 L84,166 L108,166 L108,182 L108,182 Z M108,164 L96,164 L96,162 L108,162 L108,164 L108,164 Z M110,162 C110,160.9 109.1,160 108,160 L84,160 C82.9,160 82,160.9 82,162 L82,182 C82,183.1 82.9,184 84,184 L108,184 C109.1,184 110,183.1 110,182 L110,162 L110,162 Z" id="2" fill="#E8F6F8"></path>
                <path d="M162,2 L164,2 L164,4 L162,4 L162,2 L162,2 Z M158,2 L160,2 L160,4 L158,4 L158,2 L158,2 Z M154,2 L156,2 L156,4 L154,4 L154,2 L154,2 Z M178,22 L154,22 L154,6 L178,6 L178,22 L178,22 Z M178,4 L166,4 L166,2 L178,2 L178,4 L178,4 Z M180,2 C180,0.9 179.1,0 178,0 L154,0 C152.9,0 152,0.9 152,2 L152,22 C152,23.1 152.9,24 154,24 L178,24 C179.1,24 180,23.1 180,22 L180,2 L180,2 Z" id="2" fill="#E8F6F8"></path>
                <path d="M88,5 L89,5 L89,6 L88,6 L88,5 L88,5 Z M86,5 L87,5 L87,6 L86,6 L86,5 L86,5 Z M84,5 L85,5 L85,6 L84,6 L84,5 L84,5 Z M96,15 L84,15 L84,7 L96,7 L96,15 L96,15 Z M96,6 L90,6 L90,5 L96,5 L96,6 L96,6 Z M97,5 C97,4.45 96.55,4 96,4 L84,4 C83.45,4 83,4.45 83,5 L83,15 C83,15.55 83.45,16 84,16 L96,16 C96.55,16 97,15.55 97,15 L97,5 L97,5 Z" id="1" fill="#E8F6F8"></path>
                <path d="M146,165 L147,165 L147,166 L146,166 L146,165 L146,165 Z M144,165 L145,165 L145,166 L144,166 L144,165 L144,165 Z M142,165 L143,165 L143,166 L142,166 L142,165 L142,165 Z M154,175 L142,175 L142,167 L154,167 L154,175 L154,175 Z M154,166 L148,166 L148,165 L154,165 L154,166 L154,166 Z M155,165 C155,164.45 154.55,164 154,164 L142,164 C141.45,164 141,164.45 141,165 L141,175 C141,175.55 141.45,176 142,176 L154,176 C154.55,176 155,175.55 155,175 L155,165 L155,165 Z" id="1" fill="#E8F6F8"></path>
                <path d="M5,15 L6,15 L6,16 L5,16 L5,15 L5,15 Z M3,15 L4,15 L4,16 L3,16 L3,15 L3,15 Z M1,15 L2,15 L2,16 L1,16 L1,15 L1,15 Z M13,25 L1,25 L1,17 L13,17 L13,25 L13,25 Z M13,16 L7,16 L7,15 L13,15 L13,16 L13,16 Z M14,15 C14,14.45 13.55,14 13,14 L1,14 C0.45,14 0,14.45 0,15 L0,25 C0,25.55 0.45,26 1,26 L13,26 C13.55,26 14,25.55 14,25 L14,15 L14,15 Z" id="1" fill="#E8F6F8"></path>
            </g>
            <g id="Main" transform="translate(48.000000, 58.000000)" stroke-width="2" stroke-linecap="round" stroke-linejoin="round">
                <rect id="Window" stroke="#3B8594" fill-opacity="0.75999999" fill="#B9E1EA" x="0" y="0" width="140" height="120" rx="3"></rect>
                <path d="M0.5,30 L138.5,30" id="Line" stroke="#4EA3B3" fill="#FFFFFF"></path>
                <polygon id="Input" stroke="#4EA3B3" fill="#FFFFFF" points="130 20 56 20 56 10 130 10"></polygon>
                <circle id="Button" stroke="#4EA3B3" fill="#FFFFFF" cx="45" cy="15" r="5"></circle>
                <circle id="Button" stroke="#4EA3B3" fill="#FFFFFF" cx="30" cy="15" r="5"></circle>
                <circle id="Button" stroke="#4EA3B3" fill="#FFFFFF" cx="15" cy="15" r="5"></circle>
            </g>
        </g>
    </g>
</svg>