<svg xmlns="http://www.w3.org/2000/svg" viewBox="0 0 994 994"><linearGradient id="a" gradientUnits="userSpaceOnUse" x1="497" y1="1003" x2="497" y2="9.013" gradientTransform="matrix(1 0 0 -1 0 1003)"><stop offset="0" stop-color="#00b2ff"/><stop offset="1" stop-color="#006aff"/></linearGradient><path d="M497 0C217 0 0 205.1 0 482.1 0 627 59.4 752.2 156.1 838.7c8.1 7.3 13 17.4 13.4 28.3l2.7 88.4c.9 28.2 30 46.5 55.8 35.2l98.6-43.5c8.4-3.7 17.7-4.4 26.5-2 45.3 12.5 93.6 19.1 143.9 19.1 280 0 497-205.1 497-482.1S777 0 497 0z" fill-rule="evenodd" clip-rule="evenodd" fill="url(#a)"/><path d="M198.6 623.1l146-231.6c23.2-36.8 73-46 107.8-19.9l116.1 87.1c10.7 8 25.3 7.9 35.9-.1l156.8-119c20.9-15.9 48.3 9.2 34.2 31.4L649.5 602.5c-23.2 36.8-73 46-107.8 19.9l-116.1-87.1c-10.7-8-25.3-7.9-35.9.1L232.8 654.5c-20.9 15.9-48.3-9.2-34.2-31.4z" fill-rule="evenodd" clip-rule="evenodd" fill="#fff"/></svg>