<svg width="241" height="241" fill="none" xmlns="http://www.w3.org/2000/svg"><path d="M51.014 152.12c0 13.858-11.32 25.179-25.179 25.179-13.858 0-25.179-11.321-25.179-25.179 0-13.858 11.321-25.179 25.18-25.179h25.178v25.179zM63.701 152.12c0-13.858 11.32-25.179 25.179-25.179 13.858 0 25.179 11.321 25.179 25.179v63.045c0 13.858-11.321 25.179-25.179 25.179-13.858 0-25.179-11.321-25.179-25.179V152.12z" fill="#E01E5A"/><path d="M88.88 51.014c-13.858 0-25.179-11.32-25.179-25.179C63.701 11.977 75.021.656 88.88.656c13.858 0 25.179 11.321 25.179 25.18v25.178H88.88zM88.88 63.701c13.858 0 25.179 11.32 25.179 25.179 0 13.858-11.321 25.179-25.179 25.179H25.835C11.977 114.059.656 102.738.656 88.88c0-13.858 11.321-25.179 25.18-25.179H88.88z" fill="#36C5F0"/><path d="M189.986 88.88c0-13.858 11.321-25.179 25.179-25.179 13.858 0 25.179 11.32 25.179 25.179 0 13.858-11.321 25.179-25.179 25.179h-25.179V88.88zM177.299 88.88c0 13.858-11.321 25.179-25.179 25.179-13.858 0-25.179-11.321-25.179-25.179V25.835c0-13.858 11.321-25.179 25.179-25.179 13.858 0 25.179 11.321 25.179 25.18V88.88z" fill="#2EB67D"/><path d="M152.12 189.986c13.858 0 25.179 11.321 25.179 25.179 0 13.858-11.321 25.179-25.179 25.179-13.858 0-25.179-11.321-25.179-25.179v-25.179h25.179zM152.12 177.299c-13.858 0-25.179-11.321-25.179-25.179 0-13.858 11.321-25.179 25.179-25.179h63.045c13.858 0 25.179 11.321 25.179 25.179 0 13.858-11.321 25.179-25.179 25.179H152.12z" fill="#ECB22E"/></svg>