<svg width="241" height="241" viewBox="0 0 241 241" fill="none" xmlns="http://www.w3.org/2000/svg">
<path d="M51.0141 152.12C51.0141 165.978 39.6933 177.299 25.8352 177.299C11.977 177.299 0.656281 165.978 0.656281 152.12C0.656281 138.262 11.977 126.941 25.8352 126.941H51.0141V152.12Z" fill="#E01E5A"/>
<path d="M63.7011 152.12C63.7011 138.262 75.0219 126.941 88.88 126.941C102.738 126.941 114.059 138.262 114.059 152.12V215.165C114.059 229.023 102.738 240.344 88.88 240.344C75.0219 240.344 63.7011 229.023 63.7011 215.165V152.12Z" fill="#E01E5A"/>
<path d="M88.88 51.0141C75.0219 51.0141 63.7011 39.6933 63.7011 25.8352C63.7011 11.977 75.0219 0.656281 88.88 0.656281C102.738 0.656281 114.059 11.977 114.059 25.8352V51.0141H88.88Z" fill="#36C5F0"/>
<path d="M88.88 63.7011C102.738 63.7011 114.059 75.0219 114.059 88.88C114.059 102.738 102.738 114.059 88.88 114.059H25.8352C11.977 114.059 0.656281 102.738 0.656281 88.88C0.656281 75.0219 11.977 63.7011 25.8352 63.7011H88.88Z" fill="#36C5F0"/>
<path d="M189.986 88.88C189.986 75.0219 201.307 63.7011 215.165 63.7011C229.023 63.7011 240.344 75.0219 240.344 88.88C240.344 102.738 229.023 114.059 215.165 114.059H189.986V88.88Z" fill="#2EB67D"/>
<path d="M177.299 88.88C177.299 102.738 165.978 114.059 152.12 114.059C138.262 114.059 126.941 102.738 126.941 88.88V25.8352C126.941 11.977 138.262 0.656281 152.12 0.656281C165.978 0.656281 177.299 11.977 177.299 25.8352V88.88Z" fill="#2EB67D"/>
<path d="M152.12 189.986C165.978 189.986 177.299 201.307 177.299 215.165C177.299 229.023 165.978 240.344 152.12 240.344C138.262 240.344 126.941 229.023 126.941 215.165V189.986H152.12Z" fill="#ECB22E"/>
<path d="M152.12 177.299C138.262 177.299 126.941 165.978 126.941 152.12C126.941 138.262 138.262 126.941 152.12 126.941H215.165C229.023 126.941 240.344 138.262 240.344 152.12C240.344 165.978 229.023 177.299 215.165 177.299H152.12Z" fill="#ECB22E"/>
</svg>
