<svg xmlns="http://www.w3.org/2000/svg" xmlns:xlink="http://www.w3.org/1999/xlink" viewBox="0 0 175.216 175.552"><defs><clipPath id="g"><path d="M1 1h495.926v496.879H1zm0 0"/></clipPath><clipPath id="f"><path d="M0 0h497v498H0z"/></clipPath><clipPath id="k"><path d="M1 1h437.926v439.879H1zm0 0"/></clipPath><clipPath id="j"><path d="M0 0h439v441H0z"/></clipPath><clipPath id="z"><path d="M438 332h405v407H438zm0 0"/></clipPath><clipPath id="A"><path d="M439.742 534.043c-.008 35.469 9.258 70.102 26.88 100.625l-28.563 104.3 106.734-27.984c29.406 16.028 62.516 24.485 96.21 24.496h.09c110.966 0 201.29-90.296 201.337-201.28.023-53.778-20.903-104.348-58.918-142.391-38.012-38.047-88.563-59.008-142.426-59.032-110.977 0-201.297 90.29-201.344 201.266M641.094 735.48s-.004 0 0 0"/></clipPath><clipPath id="o"><path d="M1 1h443.926v445.879H1zm0 0"/></clipPath><clipPath id="n"><path d="M0 0h445v447H0z"/></clipPath><clipPath id="E"><path d="M430 325h420v422H430zm0 0"/></clipPath><clipPath id="F"><path d="M432.555 533.977c-.012 36.746 9.59 72.617 27.84 104.234l-29.59 108.039 110.562-28.992c30.461 16.613 64.762 25.37 99.664 25.383h.09c114.945 0 208.516-93.543 208.566-208.496.016-55.715-21.656-108.098-61.03-147.508-39.384-39.41-91.747-61.121-147.536-61.149-114.965 0-208.52 93.532-208.566 208.489m65.843 98.793l-4.129-6.555c-17.355-27.594-26.515-59.485-26.5-92.227.036-95.547 77.797-173.281 173.418-173.281 46.305.02 89.825 18.066 122.555 50.82 32.73 32.754 50.742 76.297 50.727 122.602-.04 95.555-77.805 173.297-173.348 173.297h-.066c-31.114-.016-61.621-8.367-88.23-24.16l-6.337-3.75-65.61 17.199zm142.723 109.87s-.004 0 0 0"/></clipPath><clipPath id="s"><path d="M1 1h236.926v221.879H1zm0 0"/></clipPath><clipPath id="r"><path d="M0 0h238v223H0z"/></clipPath><mask id="w"><g filter="url(#a)"><path fill-opacity=".06" d="M0 0h1280.24v1066.86H0z"/></g></mask><mask id="h"><use xlink:href="#b" width="100%" height="100%"/></mask><mask id="y"><g filter="url(#a)"><path fill-opacity=".15" d="M0 0h1280.24v1066.86H0z"/></g></mask><mask id="l"><use xlink:href="#c" width="100%" height="100%"/></mask><mask id="D"><g filter="url(#a)"><path fill-opacity=".04" d="M0 0h1280.24v1066.86H0z"/></g></mask><mask id="p"><use xlink:href="#d" width="100%" height="100%"/></mask><mask id="I"><g filter="url(#a)"><path fill-opacity=".06" d="M0 0h1280.24v1066.86H0z"/></g></mask><mask id="t"><use xlink:href="#e" width="100%" height="100%"/></mask><g clip-path="url(#g)" id="v"><use transform="translate(.927 .878)" mask="url(#h)" xlink:href="#i" width="100%" height="100%"/></g><g clip-path="url(#k)" id="x"><use transform="translate(.927 .878)" mask="url(#l)" xlink:href="#m" width="100%" height="100%"/></g><g clip-path="url(#o)" id="C"><use transform="translate(.927 .878)" mask="url(#p)" xlink:href="#q" width="100%" height="100%"/></g><g clip-path="url(#s)" id="H"><use transform="translate(.927 .878)" mask="url(#t)" xlink:href="#u" width="100%" height="100%"/></g><linearGradient gradientTransform="rotate(-90 689.607 49.363) scale(406.19397)" y2="0" x2="1" y1="0" x1="0" gradientUnits="userSpaceOnUse" id="B"><stop offset="0" stop-color="#20b038"/><stop offset=".008" stop-color="#20b038"/><stop offset=".016" stop-color="#21b039"/><stop offset=".023" stop-color="#21b139"/><stop offset=".031" stop-color="#22b139"/><stop offset=".039" stop-color="#22b13a"/><stop offset=".047" stop-color="#23b23a"/><stop offset=".055" stop-color="#23b23b"/><stop offset=".063" stop-color="#24b23b"/><stop offset=".07" stop-color="#24b33b"/><stop offset=".078" stop-color="#25b33c"/><stop offset=".086" stop-color="#25b33c"/><stop offset=".094" stop-color="#26b33c"/><stop offset=".102" stop-color="#26b43d"/><stop offset=".109" stop-color="#27b43d"/><stop offset=".117" stop-color="#27b43e"/><stop offset=".125" stop-color="#28b53e"/><stop offset=".133" stop-color="#28b53e"/><stop offset=".141" stop-color="#29b53f"/><stop offset=".148" stop-color="#29b53f"/><stop offset=".156" stop-color="#2ab640"/><stop offset=".164" stop-color="#2ab640"/><stop offset=".172" stop-color="#2bb640"/><stop offset=".18" stop-color="#2bb741"/><stop offset=".188" stop-color="#2cb741"/><stop offset=".195" stop-color="#2cb742"/><stop offset=".203" stop-color="#2db842"/><stop offset=".211" stop-color="#2db842"/><stop offset=".219" stop-color="#2eb843"/><stop offset=".227" stop-color="#2eb843"/><stop offset=".234" stop-color="#2fb944"/><stop offset=".242" stop-color="#2fb944"/><stop offset=".25" stop-color="#30b944"/><stop offset=".258" stop-color="#30ba45"/><stop offset=".266" stop-color="#31ba45"/><stop offset=".273" stop-color="#31ba45"/><stop offset=".281" stop-color="#32bb46"/><stop offset=".289" stop-color="#32bb46"/><stop offset=".297" stop-color="#33bb47"/><stop offset=".305" stop-color="#33bb47"/><stop offset=".313" stop-color="#34bc47"/><stop offset=".32" stop-color="#34bc48"/><stop offset=".328" stop-color="#35bc48"/><stop offset=".336" stop-color="#35bd49"/><stop offset=".344" stop-color="#36bd49"/><stop offset=".352" stop-color="#36bd49"/><stop offset=".359" stop-color="#37be4a"/><stop offset=".367" stop-color="#37be4a"/><stop offset=".375" stop-color="#38be4b"/><stop offset=".383" stop-color="#38be4b"/><stop offset=".391" stop-color="#39bf4b"/><stop offset=".398" stop-color="#39bf4c"/><stop offset=".406" stop-color="#3abf4c"/><stop offset=".414" stop-color="#3ac04d"/><stop offset=".422" stop-color="#3bc04d"/><stop offset=".43" stop-color="#3bc04d"/><stop offset=".438" stop-color="#3cc04e"/><stop offset=".445" stop-color="#3cc14e"/><stop offset=".453" stop-color="#3dc14e"/><stop offset=".461" stop-color="#3dc14f"/><stop offset=".469" stop-color="#3ec24f"/><stop offset=".477" stop-color="#3ec250"/><stop offset=".484" stop-color="#3fc250"/><stop offset=".492" stop-color="#3fc350"/><stop offset=".5" stop-color="#40c351"/><stop offset=".508" stop-color="#40c351"/><stop offset=".516" stop-color="#41c352"/><stop offset=".523" stop-color="#41c452"/><stop offset=".531" stop-color="#42c452"/><stop offset=".539" stop-color="#42c453"/><stop offset=".547" stop-color="#43c553"/><stop offset=".555" stop-color="#43c554"/><stop offset=".563" stop-color="#44c554"/><stop offset=".57" stop-color="#44c654"/><stop offset=".578" stop-color="#45c655"/><stop offset=".586" stop-color="#45c655"/><stop offset=".594" stop-color="#46c655"/><stop offset=".602" stop-color="#46c756"/><stop offset=".609" stop-color="#47c756"/><stop offset=".617" stop-color="#47c757"/><stop offset=".625" stop-color="#48c857"/><stop offset=".633" stop-color="#48c857"/><stop offset=".641" stop-color="#49c858"/><stop offset=".648" stop-color="#49c858"/><stop offset=".656" stop-color="#4ac959"/><stop offset=".664" stop-color="#4ac959"/><stop offset=".672" stop-color="#4bc959"/><stop offset=".68" stop-color="#4bca5a"/><stop offset=".688" stop-color="#4cca5a"/><stop offset=".695" stop-color="#4cca5b"/><stop offset=".703" stop-color="#4dcb5b"/><stop offset=".711" stop-color="#4dcb5b"/><stop offset=".719" stop-color="#4ecb5c"/><stop offset=".727" stop-color="#4ecb5c"/><stop offset=".734" stop-color="#4fcc5d"/><stop offset=".742" stop-color="#4fcc5d"/><stop offset=".75" stop-color="#50cc5d"/><stop offset=".758" stop-color="#50cd5e"/><stop offset=".766" stop-color="#51cd5e"/><stop offset=".773" stop-color="#51cd5e"/><stop offset=".781" stop-color="#52ce5f"/><stop offset=".789" stop-color="#52ce5f"/><stop offset=".797" stop-color="#53ce60"/><stop offset=".805" stop-color="#53ce60"/><stop offset=".813" stop-color="#54cf60"/><stop offset=".82" stop-color="#54cf61"/><stop offset=".828" stop-color="#55cf61"/><stop offset=".836" stop-color="#55d062"/><stop offset=".844" stop-color="#56d062"/><stop offset=".852" stop-color="#56d062"/><stop offset=".859" stop-color="#57d163"/><stop offset=".867" stop-color="#57d163"/><stop offset=".875" stop-color="#58d164"/><stop offset=".883" stop-color="#58d164"/><stop offset=".891" stop-color="#59d264"/><stop offset=".898" stop-color="#59d265"/><stop offset=".906" stop-color="#5ad265"/><stop offset=".914" stop-color="#5ad366"/><stop offset=".922" stop-color="#5bd366"/><stop offset=".93" stop-color="#5bd366"/><stop offset=".938" stop-color="#5cd367"/><stop offset=".945" stop-color="#5cd467"/><stop offset=".953" stop-color="#5dd467"/><stop offset=".961" stop-color="#5dd468"/><stop offset=".969" stop-color="#5ed568"/><stop offset=".977" stop-color="#5ed569"/><stop offset=".984" stop-color="#5fd569"/><stop offset=".992" stop-color="#5fd669"/><stop offset="1" stop-color="#60d66a"/></linearGradient><linearGradient gradientTransform="rotate(-90 693.248 53.003) scale(420.76019)" y2="0" x2="1" y1="0" x1="0" gradientUnits="userSpaceOnUse" id="G"><stop offset="0" stop-color="#f9f9f9"/><stop offset=".125" stop-color="#f9f9f9"/><stop offset=".25" stop-color="#fafafa"/><stop offset=".375" stop-color="#fbfbfb"/><stop offset=".5" stop-color="#fcfcfc"/><stop offset=".625" stop-color="#fcfcfc"/><stop offset=".75" stop-color="#fdfdfd"/><stop offset=".875" stop-color="#fefefe"/><stop offset="1" stop-color="#fff"/></linearGradient><filter height="1" width="1" y="0" x="0" filterUnits="objectBoundingBox" id="a"><feColorMatrix values="0 0 0 0 1 0 0 0 0 1 0 0 0 0 1 0 0 0 1 0" in="SourceGraphic"/></filter></defs><g transform="translate(10.203 27.587)"><use height="100%" width="100%" xlink:href="#v" transform="translate(-10.424 -27.808) scale(.35278)" mask="url(#w)"/><use height="100%" width="100%" xlink:href="#x" transform="translate(-.546 -18.283) scale(.35278)" mask="url(#y)"/><path d="M44.076 108.898l2.235 1.324c9.388 5.571 20.15 8.518 31.126 8.523h.024c33.706 0 61.139-27.426 61.153-61.135.006-16.336-6.349-31.697-17.895-43.251C109.172 2.804 93.819-3.563 77.484-3.57c-33.733 0-61.166 27.423-61.178 61.13-.005 11.55 3.227 22.801 9.349 32.536l1.455 2.312-6.18 22.558zM3.266 132.44l10.438-38.113C7.266 83.174 3.88 70.519 3.883 57.556 3.9 17 36.903-15.994 77.461-15.994c19.68.01 38.153 7.669 52.047 21.572 13.889 13.903 21.537 32.382 21.53 52.037-.018 40.553-33.027 73.553-73.577 73.553-.003 0 .002 0 0 0h-.032a73.531 73.531 0 01-35.16-8.954zm0 0" fill="#fff"/><g clip-path="url(#z)" transform="translate(-148.713 -130.82) scale(.35278)"><g clip-path="url(#A)"><path d="M438.059 738.969h404.394V332.777H438.06zm0 0" fill="url(#B)"/></g></g><use height="100%" width="100%" xlink:href="#C" transform="translate(-1.604 -20.4) scale(.35278)" mask="url(#D)"/><g clip-path="url(#E)" transform="translate(-148.713 -130.82) scale(.35278)"><g clip-path="url(#F)"><path d="M430.805 746.25h418.898V325.488H430.805zm0 0" fill="url(#G)"/></g></g><use height="100%" width="100%" xlink:href="#H" transform="translate(35.437 19.464) scale(.35278)" mask="url(#I)"/><path d="M59.072 26.808c-1.378-3.06-2.828-3.123-4.137-3.177-1.072-.045-2.298-.042-3.523-.042-1.227 0-3.218.46-4.902 2.3-1.685 1.84-6.436 6.286-6.436 15.332 0 9.045 6.589 17.785 7.507 19.013.919 1.226 12.718 20.38 31.405 27.75 15.53 6.123 18.689 4.905 22.061 4.599 3.37-.306 10.877-4.447 12.408-8.74 1.532-4.292 1.532-7.97 1.073-8.74-.46-.767-1.685-1.226-3.525-2.145-1.838-.919-10.876-5.367-12.562-5.98-1.685-.614-2.91-.92-4.137.92-1.225 1.84-4.746 5.98-5.82 7.206-1.071 1.228-2.143 1.38-3.983.462-1.838-.922-7.76-2.861-14.784-9.124-5.465-4.873-9.154-10.891-10.227-12.73-1.073-1.84-.115-2.835.807-3.752.826-.824 1.838-2.147 2.759-3.22.916-1.074 1.224-1.84 1.836-3.065.613-1.228.307-2.301-.153-3.22-.46-.92-4.033-10.012-5.667-13.647" fill="#fff" fill-rule="evenodd"/></g></svg>