<?xml version="1.0" encoding="UTF-8" standalone="no"?>
<svg width="236px" height="200px" viewBox="0 0 236 200" version="1.1" xmlns="http://www.w3.org/2000/svg" xmlns:xlink="http://www.w3.org/1999/xlink">
    <!-- Generator: Sketch 3.7.1 (28215) - http://www.bohemiancoding.com/sketch -->
    <title>cross-platform</title>
    <desc>Created with Sketch.</desc>
    <defs></defs>
    <g id="Page-4" stroke="none" stroke-width="1" fill="none" fill-rule="evenodd">
        <g id="package" transform="translate(0.000000, -18.000000)">
            <g id="faded" transform="translate(6.000000, 26.000000)" fill="#E9F2F3">
                <path d="M166,121.51818 L166,151.536727 C166,153.345073 167.2,154.912307 169,155.434718 L195,162.386804 C195.64,162.587732 196.36,162.587732 197,162.386804 L223,155.434718 C224.8,154.912307 226,153.345073 226,151.536727 L226,121.51818 C226,119.709834 224.8,118.1426 223,117.620189 L197,110.627917 C196.36,110.507361 195.64,110.507361 195,110.627917 L169,117.620189 C167.2,118.1426 166,119.709834 166,121.51818 L166,121.51818 Z M194,158.046774 L170,151.657284 L170,124.451719 L194,130.92158 L194,158.046774 L194,158.046774 Z M170,120.433172 L180,117.740746 L206,124.692832 L196,127.385259 L170,120.433172 L170,120.433172 Z M222,151.657284 L198,158.046774 L198,130.92158 L206,128.711379 L206,138.516634 L214,136.386804 L214,126.581549 L222,124.451719 L222,151.657284 L222,151.657284 Z M214,122.563002 L188,115.610916 L196,113.481086 L222,120.433172 L214,122.563002 L214,122.563002 Z" id="4"></path>
                <path d="M0,93.77301 L0,116.28692 C0,117.64318 0.9,118.818605 2.25,119.210413 L21.75,124.424478 C22.23,124.575174 22.77,124.575174 23.25,124.424478 L42.75,119.210413 C44.1,118.818605 45,117.64318 45,116.28692 L45,93.77301 C45,92.4167504 44.1,91.2413253 42.75,90.849517 L23.25,85.605313 C22.77,85.5148957 22.23,85.5148957 21.75,85.605313 L2.25,90.849517 C0.9,91.2413253 0,92.4167504 0,93.77301 L0,93.77301 Z M21,121.169455 L3,116.377338 L3,95.9731646 L21,100.82556 L21,121.169455 L21,121.169455 Z M3,92.9592543 L10.5,90.9399343 L30,96.1539992 L22.5,98.1733192 L3,92.9592543 L3,92.9592543 Z M42,116.377338 L24,121.169455 L24,100.82556 L30,99.1679096 L30,106.521851 L36,104.924478 L36,97.5705371 L42,95.9731646 L42,116.377338 L42,116.377338 Z M36,94.5566267 L16.5,89.3425618 L22.5,87.7451893 L42,92.9592543 L36,94.5566267 L36,94.5566267 Z" id="3"></path>
                <path d="M50,130.77301 L50,153.28692 C50,154.64318 50.9,155.818605 52.25,156.210413 L71.75,161.424478 C72.23,161.575174 72.77,161.575174 73.25,161.424478 L92.75,156.210413 C94.1,155.818605 95,154.64318 95,153.28692 L95,130.77301 C95,129.41675 94.1,128.241325 92.75,127.849517 L73.25,122.605313 C72.77,122.514896 72.23,122.514896 71.75,122.605313 L52.25,127.849517 C50.9,128.241325 50,129.41675 50,130.77301 L50,130.77301 Z M71,158.169455 L53,153.377338 L53,132.973165 L71,137.82556 L71,158.169455 L71,158.169455 Z M53,129.959254 L60.5,127.939934 L80,133.153999 L72.5,135.173319 L53,129.959254 L53,129.959254 Z M92,153.377338 L74,158.169455 L74,137.82556 L80,136.16791 L80,143.521851 L86,141.924478 L86,134.570537 L92,132.973165 L92,153.377338 L92,153.377338 Z M86,131.556627 L66.5,126.342562 L72.5,124.745189 L92,129.959254 L86,131.556627 L86,131.556627 Z" id="3"></path>
                <path d="M158,6.02784003 L158,21.0371136 C158,21.9412867 158.6,22.7249034 159.5,22.986109 L172.5,26.4621522 C172.82,26.5626159 173.18,26.5626159 173.5,26.4621522 L186.5,22.986109 C187.4,22.7249034 188,21.9412867 188,21.0371136 L188,6.02784003 C188,5.12366692 187.4,4.34005023 186.5,4.07884467 L173.5,0.582708655 C173.18,0.522430448 172.82,0.522430448 172.5,0.582708655 L159.5,4.07884467 C158.6,4.34005023 158,5.12366692 158,6.02784003 L158,6.02784003 Z M172,24.2921368 L160,21.0973918 L160,7.49460974 L172,10.7295402 L172,24.2921368 L172,24.2921368 Z M160,5.48533617 L165,4.13912287 L178,7.61516615 L173,8.96137944 L160,5.48533617 L160,5.48533617 Z M186,21.0973918 L174,24.2921368 L174,10.7295402 L178,9.62443972 L178,14.5270672 L182,13.4621522 L182,8.55952473 L186,7.49460974 L186,21.0973918 L186,21.0973918 Z M182,6.55025116 L169,3.07420788 L173,2.00929289 L186,5.48533617 L182,6.55025116 L182,6.55025116 Z" id="2"></path>
                <path d="M127,163.02784 L127,178.037114 C127,178.941287 127.6,179.724903 128.5,179.986109 L141.5,183.462152 C141.82,183.562616 142.18,183.562616 142.5,183.462152 L155.5,179.986109 C156.4,179.724903 157,178.941287 157,178.037114 L157,163.02784 C157,162.123667 156.4,161.34005 155.5,161.078845 L142.5,157.582709 C142.18,157.52243 141.82,157.52243 141.5,157.582709 L128.5,161.078845 C127.6,161.34005 127,162.123667 127,163.02784 L127,163.02784 Z M141,181.292137 L129,178.097392 L129,164.49461 L141,167.72954 L141,181.292137 L141,181.292137 Z M129,162.485336 L134,161.139123 L147,164.615166 L142,165.961379 L129,162.485336 L129,162.485336 Z M155,178.097392 L143,181.292137 L143,167.72954 L147,166.62444 L147,171.527067 L151,170.462152 L151,165.559525 L155,164.49461 L155,178.097392 L155,178.097392 Z M151,163.550251 L138,160.074208 L142,159.009293 L155,162.485336 L151,163.550251 L151,163.550251 Z" id="2"></path>
                <path d="M11,162.02784 L11,177.037114 C11,177.941287 11.6,178.724903 12.5,178.986109 L25.5,182.462152 C25.82,182.562616 26.18,182.562616 26.5,182.462152 L39.5,178.986109 C40.4,178.724903 41,177.941287 41,177.037114 L41,162.02784 C41,161.123667 40.4,160.34005 39.5,160.078845 L26.5,156.582709 C26.18,156.52243 25.82,156.52243 25.5,156.582709 L12.5,160.078845 C11.6,160.34005 11,161.123667 11,162.02784 L11,162.02784 Z M25,180.292137 L13,177.097392 L13,163.49461 L25,166.72954 L25,180.292137 L25,180.292137 Z M13,161.485336 L18,160.139123 L31,163.615166 L26,164.961379 L13,161.485336 L13,161.485336 Z M39,177.097392 L27,180.292137 L27,166.72954 L31,165.62444 L31,170.527067 L35,169.462152 L35,164.559525 L39,163.49461 L39,177.097392 L39,177.097392 Z M35,162.550251 L22,159.074208 L26,158.009293 L39,161.485336 L35,162.550251 L35,162.550251 Z" id="2"></path>
                <path d="M13,20.02784 L13,35.0371136 C13,35.9412867 13.6,36.7249034 14.5,36.986109 L27.5,40.4621522 C27.82,40.5626159 28.18,40.5626159 28.5,40.4621522 L41.5,36.986109 C42.4,36.7249034 43,35.9412867 43,35.0371136 L43,20.02784 C43,19.1236669 42.4,18.3400502 41.5,18.0788447 L28.5,14.5827087 C28.18,14.5224304 27.82,14.5224304 27.5,14.5827087 L14.5,18.0788447 C13.6,18.3400502 13,19.1236669 13,20.02784 L13,20.02784 Z M27,38.2921368 L15,35.0973918 L15,21.4946097 L27,24.7295402 L27,38.2921368 L27,38.2921368 Z M15,19.4853362 L20,18.1391229 L33,21.6151662 L28,22.9613794 L15,19.4853362 L15,19.4853362 Z M41,35.0973918 L29,38.2921368 L29,24.7295402 L33,23.6244397 L33,28.5270672 L37,27.4621522 L37,22.5595247 L41,21.4946097 L41,35.0973918 L41,35.0973918 Z M37,20.5502512 L24,17.0742079 L28,16.0092929 L41,19.4853362 L37,20.5502512 L37,20.5502512 Z" id="2"></path>
                <path d="M74,8.28267002 L74,15.7873068 C74,16.2393934 74.3,16.6312017 74.75,16.7618045 L81.25,18.4998261 C81.41,18.550058 81.59,18.550058 81.75,18.4998261 L88.25,16.7618045 C88.7,16.6312017 89,16.2393934 89,15.7873068 L89,8.28267002 C89,7.83058346 88.7,7.43877512 88.25,7.30817233 L81.75,5.56010433 C81.59,5.52996522 81.41,5.52996522 81.25,5.56010433 L74.75,7.30817233 C74.3,7.43877512 74,7.83058346 74,8.28267002 L74,8.28267002 Z M81,17.4148184 L75,15.8174459 L75,9.01605487 L81,10.6335201 L81,17.4148184 L81,17.4148184 Z M75,8.01141808 L77.5,7.33831144 L84,9.07633308 L81.5,9.74943972 L75,8.01141808 L75,8.01141808 Z M88,15.8174459 L82,17.4148184 L82,10.6335201 L84,10.0809699 L84,12.5322836 L86,11.9998261 L86,9.54851236 L88,9.01605487 L88,15.8174459 L88,15.8174459 Z M86,8.54387558 L79.5,6.80585394 L81.5,6.27339645 L88,8.01141808 L86,8.54387558 L86,8.54387558 Z" id="1"></path>
                <path d="M202,60.28267 L202,67.7873068 C202,68.2393934 202.3,68.6312017 202.75,68.7618045 L209.25,70.4998261 C209.41,70.550058 209.59,70.550058 209.75,70.4998261 L216.25,68.7618045 C216.7,68.6312017 217,68.2393934 217,67.7873068 L217,60.28267 C217,59.8305835 216.7,59.4387751 216.25,59.3081723 L209.75,57.5601043 C209.59,57.5299652 209.41,57.5299652 209.25,57.5601043 L202.75,59.3081723 C202.3,59.4387751 202,59.8305835 202,60.28267 L202,60.28267 Z M209,69.4148184 L203,67.8174459 L203,61.0160549 L209,62.6335201 L209,69.4148184 L209,69.4148184 Z M203,60.0114181 L205.5,59.3383114 L212,61.0763331 L209.5,61.7494397 L203,60.0114181 L203,60.0114181 Z M216,67.8174459 L210,69.4148184 L210,62.6335201 L212,62.0809699 L212,64.5322836 L214,63.9998261 L214,61.5485124 L216,61.0160549 L216,67.8174459 L216,67.8174459 Z M214,60.5438756 L207.5,58.8058539 L209.5,58.2733964 L216,60.0114181 L214,60.5438756 L214,60.5438756 Z" id="1"></path>
            </g>
            <g id="Main" transform="translate(43.000000, 53.000000)" stroke-width="2" stroke-linecap="round" stroke-linejoin="round">
                <path d="M6.9388939e-18,106.390355 C6.9388939e-18,108.045842 1.2891432,109.731638 2.89805954,110.160666 L72.5,128.720496 C74.1,129.220496 75.9,129.220496 77.5,128.720496 L147.113175,108.610503 C148.707524,108.149924 150,106.439705 150,104.770351 L150,25.4526183 C150,22.6861825 147.83628,19.8400963 145.179975,19.099271 L77.8941336,0.333705183 C76.2957477,-0.112073804 73.6982346,-0.110395518 72.1058664,0.333705156 L4.82002451,19.0992703 C2.15799848,19.8416913 6.9388939e-18,22.6866634 6.9388939e-18,25.448246 L6.9388939e-18,106.390355 Z" id="main" stroke="#71ACB8" fill-opacity="0.800000012" fill="#E3F1F4"></path>
                <path d="M75,129.5 L75,44" id="Line" stroke="#A6C2C8" fill="#FFFFFF"></path>
                <path d="M113,61.0046291 L113,34" id="Line" stroke="#A6C2C8" fill="#FFFFFF"></path>
                <path d="M74,44 L2,24" id="Line" stroke="#A6C2C8" fill="#FFFFFF"></path>
                <path d="M114,33 L39,11" id="Line" stroke="#A6C2C8" fill="#FFFFFF"></path>
                <path d="M75,44 L149,23" id="Line" stroke="#A6C2C8" fill="#FFFFFF"></path>
                <polygon id="Rectangle-6" stroke="#A6C2C8" fill="#FFFFFF" transform="translate(37.000000, 67.223145) scale(-1, 1) translate(-37.000000, -67.223145) " points="53 54.4462891 53 70.4462891 21 80 21 64"></polygon>
            </g>
        </g>
    </g>
</svg>