<?xml version="1.0" encoding="UTF-8" standalone="no"?>
<svg width="284px" height="32px" viewBox="0 0 284 32" version="1.1" xmlns="http://www.w3.org/2000/svg" xmlns:xlink="http://www.w3.org/1999/xlink">
    <!-- Generator: Sketch 3.7.2 (28276) - http://www.bohemiancoding.com/sketch -->
    <title>devtron-logo</title>
    <desc>Created with Sketch.</desc>
    <defs></defs>
    <g id="for-site" stroke="none" stroke-width="1" fill="none" fill-rule="evenodd">
        <g id="Devtron" transform="translate(-4.000000, -129.000000)" fill="#9CE5F4">
            <g id="Name" transform="translate(0.000000, 126.000000)">
                <path d="M5,32.568 C5,33.536 5.792,34.328 6.716,34.328 L15.692,34.328 C25.372,34.328 32.06,27.596 32.06,18.928 L32.06,18.84 C32.06,10.172 25.372,3.528 15.692,3.528 L6.716,3.528 C5.792,3.528 5,4.32 5,5.288 L5,32.568 Z M8.476,31.116 L8.476,6.74 L15.692,6.74 C23.48,6.74 28.452,12.108 28.452,18.928 L28.452,19.016 C28.452,25.836 23.48,31.116 15.692,31.116 L8.476,31.116 Z M51.4240002,34.328 L70.7840002,34.328 C71.6640002,34.328 72.3680002,33.624 72.3680002,32.744 C72.3680002,31.864 71.6640002,31.16 70.7840002,31.16 L53.1840002,31.16 L53.1840002,20.38 L68.5840002,20.38 C69.4640002,20.38 70.1680002,19.676 70.1680002,18.796 C70.1680002,17.96 69.4640002,17.212 68.5840002,17.212 L53.1840002,17.212 L53.1840002,6.696 L70.5640002,6.696 C71.4440002,6.696 72.1480002,5.992 72.1480002,5.112 C72.1480002,4.232 71.4440002,3.528 70.5640002,3.528 L51.4240002,3.528 C50.5000002,3.528 49.7080002,4.32 49.7080002,5.288 L49.7080002,32.568 C49.7080002,33.536 50.5000002,34.328 51.4240002,34.328 L51.4240002,34.328 Z M101.412,34.68 L101.588,34.68 C102.6,34.68 103.216,34.108 103.612,33.228 L115.536,5.684 C115.624,5.464 115.668,5.244 115.668,4.98 C115.668,4.1 114.92,3.308 113.952,3.308 C113.16,3.308 112.544,3.924 112.236,4.54 L101.544,30.148 L90.8960004,4.628 C90.5880004,3.88 89.9720004,3.308 89.0920004,3.308 C88.1240004,3.308 87.3320004,4.144 87.3320004,5.024 C87.3320004,5.332 87.3760004,5.552 87.5080004,5.816 L99.3880004,33.228 C99.7400004,34.108 100.4,34.68 101.412,34.68 L101.412,34.68 Z M140.664001,32.788 C140.664001,33.756 141.456001,34.548 142.424001,34.548 C143.392001,34.548 144.184001,33.756 144.184001,32.788 L144.184001,6.74 L153.116001,6.74 C153.996001,6.74 154.744001,6.036 154.744001,5.156 C154.744001,4.276 153.996001,3.528 153.116001,3.528 L131.732001,3.528 C130.852001,3.528 130.104001,4.276 130.104001,5.156 C130.104001,6.036 130.852001,6.74 131.732001,6.74 L140.664001,6.74 L140.664001,32.788 Z M171.336001,32.788 C171.336001,33.756 172.128001,34.548 173.052001,34.548 C174.020001,34.548 174.812001,33.756 174.812001,32.788 L174.812001,22.36 L183.656001,22.36 L192.324001,33.624 C192.720001,34.152 193.248001,34.548 193.952001,34.548 C194.832001,34.548 195.712001,33.756 195.712001,32.832 C195.712001,32.348 195.492001,31.952 195.140001,31.556 L187.484001,21.7 C192.280001,20.776 195.712001,17.828 195.712001,12.768 L195.712001,12.68 C195.712001,10.26 194.832001,8.104 193.336001,6.608 C191.400001,4.672 188.364001,3.528 184.580001,3.528 L173.052001,3.528 C172.128001,3.528 171.336001,4.32 171.336001,5.288 L171.336001,32.788 Z M174.812001,19.236 L174.812001,6.74 L184.316001,6.74 C189.288001,6.74 192.192001,9.028 192.192001,12.812 L192.192001,12.9 C192.192001,16.86 188.892001,19.236 184.272001,19.236 L174.812001,19.236 Z M227.748001,34.856 C237.120001,34.856 243.500001,27.42 243.500001,18.928 L243.500001,18.84 C243.500001,10.348 237.208001,3 227.836001,3 C218.464001,3 212.084001,10.436 212.084001,18.928 L212.084001,19.016 C212.084001,27.508 218.376001,34.856 227.748001,34.856 L227.748001,34.856 Z M227.836001,31.644 C220.796001,31.644 215.692001,25.924 215.692001,18.928 L215.692001,18.84 C215.692001,11.844 220.708001,6.212 227.748001,6.212 C234.788001,6.212 239.892001,11.932 239.892001,18.928 L239.892001,19.016 C239.892001,26.012 234.876001,31.644 227.836001,31.644 L227.836001,31.644 Z M261.148001,32.832 C261.148001,33.756 261.896001,34.548 262.820001,34.548 C263.788001,34.548 264.536001,33.756 264.536001,32.832 L264.536001,8.984 L283.632001,33.404 C284.160001,34.02 284.688001,34.46 285.436001,34.46 L285.612001,34.46 C286.536001,34.46 287.196001,33.756 287.196001,32.832 L287.196001,5.024 C287.196001,4.1 286.448001,3.308 285.524001,3.308 C284.556001,3.308 283.808001,4.1 283.808001,5.024 L283.808001,28.256 L265.108001,4.408 C264.624001,3.792 264.140001,3.396 263.348001,3.396 L262.864001,3.396 C261.940001,3.396 261.148001,4.188 261.148001,5.112 L261.148001,32.832 Z" id="DEVTRON"></path>
            </g>
        </g>
    </g>
</svg>