<?xml version="1.0" encoding="UTF-8" standalone="no"?>
<svg width="148px" height="148px" viewBox="0 0 148 148" version="1.1" xmlns="http://www.w3.org/2000/svg" xmlns:xlink="http://www.w3.org/1999/xlink">
    <defs></defs>
    <g stroke="none" stroke-width="1" fill="none" fill-rule="evenodd">
        <rect fill="#A7ECF9" x="0" y="0" width="148" height="148"></rect>
        <g transform="translate(23.000000, 16.000000)" fill="#47848F">
            <path d="M36.2238023,24.2911116 C22.0456098,21.7087892 10.8294833,24.4129815 6.35475337,32.1634411 C3.01501806,37.9480324 3.96897711,45.6119961 8.66300295,53.7992053 C9.07505115,54.51789 9.99169132,54.7664681 10.7103761,54.3544199 C11.4290608,53.9423717 11.6776389,53.0257315 11.2655907,52.3070468 C7.05174551,44.9573574 6.23245169,38.3752738 8.95282958,33.6634411 C12.6471745,27.264648 22.6139893,24.861663 35.6862455,27.2425574 C36.5012647,27.3909997 37.2823046,26.8506322 37.4307468,26.0356129 C37.5791891,25.2205937 37.0388216,24.4395538 36.2238023,24.2911116 L36.2238023,24.2911116 Z M16.0330763,63.7428537 C21.7622128,70.0387501 29.2047733,75.9435525 37.6923452,80.8438544 C58.2477432,92.711519 80.1333534,95.8840279 90.9292657,88.5227593 C91.6137225,88.0560576 91.7902479,87.1228593 91.3235462,86.4384026 C90.8568446,85.7539458 89.9236463,85.5774204 89.2391895,86.0441221 C79.6123828,92.6082279 58.8578863,89.5996837 39.1923452,78.2457782 C30.9666931,73.4966957 23.7675054,67.7849813 18.251915,61.7237561 C17.6943566,61.1110407 16.7456622,61.0663271 16.1329469,61.6238855 C15.5202315,62.1814439 15.4755179,63.1301383 16.0330763,63.7428537 L16.0330763,63.7428537 Z M100.959747,83.4663524 C100.959747,79.6016132 97.8267566,76.4686231 93.9620175,76.4686231 C90.0972783,76.4686231 86.9642881,79.6016132 86.9642881,83.4663524 C86.9642881,87.3310916 90.0972783,90.4640817 93.9620175,90.4640817 C97.8267566,90.4640817 100.959747,87.3310916 100.959747,83.4663524 L100.959747,83.4663524 Z M97.9597468,83.4663524 C97.9597468,85.6742373 96.1699024,87.4640817 93.9620175,87.4640817 C91.7541325,87.4640817 89.9642881,85.6742373 89.9642881,83.4663524 C89.9642881,81.2584675 91.7541325,79.4686231 93.9620175,79.4686231 C96.1699024,79.4686231 97.9597468,81.2584675 97.9597468,83.4663524 L97.9597468,83.4663524 Z"></path>
            <path d="M87.5009299,61.975107 C96.7844895,51.0080308 100.027723,39.9717125 95.5622014,32.2372015 C92.2757803,26.5449533 85.3330074,23.5417675 76.1119245,23.4218465 C75.2835674,23.4110736 74.6033182,24.0738566 74.5925453,24.9022137 C74.5817725,25.7305708 75.2445554,26.41082 76.0729125,26.4215928 C84.3370656,26.5290689 90.2889276,29.1036234 92.9641252,33.7372015 C96.6504792,40.1221541 93.7691791,49.9268573 85.2111547,60.036827 C84.6759134,60.669131 84.7545983,61.6156134 85.3869023,62.1508546 C86.0192062,62.6860959 86.9656886,62.607411 87.5009299,61.975107 L87.5009299,61.975107 Z M63.6254509,24.7749159 C55.2370468,26.5721681 46.3090158,30.0858953 37.7349308,35.0361455 C16.5149224,47.2875231 2.670597,65.3552712 4.59524568,78.4689935 C4.71554192,79.2886399 5.47751603,79.8555753 6.29716248,79.735279 C7.11680894,79.6149828 7.68374431,78.8530087 7.56344807,78.0333622 C5.86127554,66.4354961 18.9611645,49.3392862 39.2349308,37.6342217 C47.5441346,32.8369007 56.1796516,29.4382958 64.2539502,27.708342 C65.0639935,27.5347867 65.5799689,26.7374225 65.4064136,25.9273793 C65.2328583,25.117336 64.4354941,24.6013606 63.6254509,24.7749159 L63.6254509,24.7749159 Z"></path>
            <path d="M29.2376332,87.55306 C34.0915037,101.106813 42.0366788,109.456237 50.9797702,109.456237 C57.5033681,109.456237 63.5348391,105.012348 68.2352101,97.1934338 C68.6620346,96.4834251 68.4324685,95.5618397 67.7224598,95.1350152 C67.0124512,94.7081907 66.0908658,94.9377568 65.6640412,95.6477655 C61.4547258,102.649825 56.2884702,106.456237 50.9797702,106.456237 C43.5966074,106.456237 36.5369879,99.0374252 32.0619837,86.5416035 C31.7826777,85.7616806 30.924003,85.3558505 30.1440802,85.6351565 C29.3641573,85.9144625 28.9583272,86.7731372 29.2376332,87.55306 L29.2376332,87.55306 Z M73.6097725,84.9032561 C76.1208787,76.8787102 77.4694488,67.6223105 77.4694488,57.9768802 C77.4694488,33.9037588 69.0427924,13.1489283 57.0288139,7.81435674 C56.2716713,7.47816242 55.3853467,7.81940842 55.0491524,8.57655099 C54.712958,9.33369357 55.054204,10.2200182 55.8113466,10.5562126 C66.4858638,15.2960226 74.4694488,34.9595697 74.4694488,57.9768802 C74.4694488,67.325162 73.164846,76.2797758 70.7466818,84.0073144 C70.4992744,84.7979351 70.9396357,85.6394232 71.7302564,85.8868306 C72.520877,86.1342381 73.3623651,85.6938767 73.6097725,84.9032561 L73.6097725,84.9032561 Z"></path>
            <path d="M100.959747,83.4663524 C100.959747,79.6016132 97.8267566,76.4686231 93.9620175,76.4686231 C90.0972783,76.4686231 86.9642881,79.6016132 86.9642881,83.4663524 C86.9642881,87.3310916 90.0972783,90.4640817 93.9620175,90.4640817 C97.8267566,90.4640817 100.959747,87.3310916 100.959747,83.4663524 L100.959747,83.4663524 Z M97.9597468,83.4663524 C97.9597468,85.6742373 96.1699024,87.4640817 93.9620175,87.4640817 C91.7541325,87.4640817 89.9642881,85.6742373 89.9642881,83.4663524 C89.9642881,81.2584675 91.7541325,79.4686231 93.9620175,79.4686231 C96.1699024,79.4686231 97.9597468,81.2584675 97.9597468,83.4663524 L97.9597468,83.4663524 Z"></path>
            <path d="M7.89756569,90.4640817 C11.7623049,90.4640817 14.895295,87.3310916 14.895295,83.4663524 C14.895295,79.6016132 11.7623049,76.4686231 7.89756569,76.4686231 C4.03282651,76.4686231 0.899836384,79.6016132 0.899836384,83.4663524 C0.899836384,87.3310916 4.03282651,90.4640817 7.89756569,90.4640817 L7.89756569,90.4640817 Z M7.89756569,87.4640817 C5.68968076,87.4640817 3.89983638,85.6742373 3.89983638,83.4663524 C3.89983638,81.2584675 5.68968076,79.4686231 7.89756569,79.4686231 C10.1054506,79.4686231 11.895295,81.2584675 11.895295,83.4663524 C11.895295,85.6742373 10.1054506,87.4640817 7.89756569,87.4640817 L7.89756569,87.4640817 Z"></path>
            <path d="M50.9797702,14.9952522 C54.8445093,14.9952522 57.9774995,11.8622621 57.9774995,7.99752288 C57.9774995,4.1327837 54.8445093,0.999793573 50.9797702,0.999793573 C47.115031,0.999793573 43.9820409,4.1327837 43.9820409,7.99752288 C43.9820409,11.8622621 47.115031,14.9952522 50.9797702,14.9952522 L50.9797702,14.9952522 Z M50.9797702,11.9952522 C48.7718852,11.9952522 46.9820409,10.2054078 46.9820409,7.99752288 C46.9820409,5.78963795 48.7718852,3.99979357 50.9797702,3.99979357 C53.1876551,3.99979357 54.9774995,5.78963795 54.9774995,7.99752288 C54.9774995,10.2054078 53.1876551,11.9952522 50.9797702,11.9952522 L50.9797702,11.9952522 Z"></path>
            <path d="M52.0412978,62.8916841 C49.3267926,63.4782009 46.6524598,61.753084 46.0647952,59.0385788 C45.4794263,56.3240736 47.2033953,53.6497408 49.9179005,53.0620763 C52.6324057,52.4755595 55.3067385,54.2006763 55.8944031,56.9151815 C56.4809198,59.6296867 54.755803,62.3040196 52.0412978,62.8916841 Z"></path>
        </g>
    </g>
</svg>