<?xml version="1.0" encoding="UTF-8" standalone="no"?>
<svg width="236px" height="200px" viewBox="0 0 236 200" version="1.1" xmlns="http://www.w3.org/2000/svg" xmlns:xlink="http://www.w3.org/1999/xlink">
    <!-- Generator: Sketch 3.7.2 (28276) - http://www.bohemiancoding.com/sketch -->
    <title>open-source</title>
    <desc>Created with Sketch.</desc>
    <defs></defs>
    <g id="Page-4" stroke="none" stroke-width="1" fill="none" fill-rule="evenodd">
        <g id="Open-Source" transform="translate(0.000000, -18.000000)">
            <g id="faded" transform="translate(25.000000, 31.000000)" fill="#E8F6F8">
                <path d="M55,91 C51.67,91 49,93.67 49,97 C49,99.19 50.23,101.14 52,102.16 L52,106 L46,112 L40,106 L40,102.16 C41.77,101.14 43,99.22 43,97 C43,93.67 40.33,91 37,91 C33.67,91 31,93.67 31,97 C31,99.19 32.23,101.14 34,102.16 L34,107.5 L43,116.5 L43,121.84 C41.23,122.86 40,124.78 40,127 C40,130.33 42.67,133 46,133 C49.33,133 52,130.33 52,127 C52,124.81 50.77,122.86 49,121.84 L49,116.5 L58,107.5 L58,102.16 C59.77,101.14 61,99.22 61,97 C61,93.67 58.33,91 55,91 L55,91 Z M37,100.6 C35.02,100.6 33.4,98.95 33.4,97 C33.4,95.05 35.05,93.4 37,93.4 C38.95,93.4 40.6,95.05 40.6,97 C40.6,98.95 38.95,100.6 37,100.6 L37,100.6 Z M46,130.6 C44.02,130.6 42.4,128.95 42.4,127 C42.4,125.05 44.05,123.4 46,123.4 C47.95,123.4 49.6,125.05 49.6,127 C49.6,128.95 47.95,130.6 46,130.6 L46,130.6 Z M55,100.6 C53.02,100.6 51.4,98.95 51.4,97 C51.4,95.05 53.05,93.4 55,93.4 C56.95,93.4 58.6,95.05 58.6,97 C58.6,98.95 56.95,100.6 55,100.6 L55,100.6 Z" id="4"></path>
                <path d="M163,110 C159.67,110 157,112.67 157,116 C157,118.19 158.23,120.14 160,121.16 L160,125 L154,131 L148,125 L148,121.16 C149.77,120.14 151,118.22 151,116 C151,112.67 148.33,110 145,110 C141.67,110 139,112.67 139,116 C139,118.19 140.23,120.14 142,121.16 L142,126.5 L151,135.5 L151,140.84 C149.23,141.86 148,143.78 148,146 C148,149.33 150.67,152 154,152 C157.33,152 160,149.33 160,146 C160,143.81 158.77,141.86 157,140.84 L157,135.5 L166,126.5 L166,121.16 C167.77,120.14 169,118.22 169,116 C169,112.67 166.33,110 163,110 L163,110 Z M145,119.6 C143.02,119.6 141.4,117.95 141.4,116 C141.4,114.05 143.05,112.4 145,112.4 C146.95,112.4 148.6,114.05 148.6,116 C148.6,117.95 146.95,119.6 145,119.6 L145,119.6 Z M154,149.6 C152.02,149.6 150.4,147.95 150.4,146 C150.4,144.05 152.05,142.4 154,142.4 C155.95,142.4 157.6,144.05 157.6,146 C157.6,147.95 155.95,149.6 154,149.6 L154,149.6 Z M163,119.6 C161.02,119.6 159.4,117.95 159.4,116 C159.4,114.05 161.05,112.4 163,112.4 C164.95,112.4 166.6,114.05 166.6,116 C166.6,117.95 164.95,119.6 163,119.6 L163,119.6 Z" id="3"></path>
                <path d="M20,51 C17.78,51 16,52.78 16,55 C16,56.46 16.82,57.76 18,58.44 L18,61 L14,65 L10,61 L10,58.44 C11.18,57.76 12,56.48 12,55 C12,52.78 10.22,51 8,51 C5.78,51 4,52.78 4,55 C4,56.46 4.82,57.76 6,58.44 L6,62 L12,68 L12,71.56 C10.82,72.24 10,73.52 10,75 C10,77.22 11.78,79 14,79 C16.22,79 18,77.22 18,75 C18,73.54 17.18,72.24 16,71.56 L16,68 L22,62 L22,58.44 C23.18,57.76 24,56.48 24,55 C24,52.78 22.22,51 20,51 L20,51 Z M8,57.4 C6.68,57.4 5.6,56.3 5.6,55 C5.6,53.7 6.7,52.6 8,52.6 C9.3,52.6 10.4,53.7 10.4,55 C10.4,56.3 9.3,57.4 8,57.4 L8,57.4 Z M14,77.4 C12.68,77.4 11.6,76.3 11.6,75 C11.6,73.7 12.7,72.6 14,72.6 C15.3,72.6 16.4,73.7 16.4,75 C16.4,76.3 15.3,77.4 14,77.4 L14,77.4 Z M20,57.4 C18.68,57.4 17.6,56.3 17.6,55 C17.6,53.7 18.7,52.6 20,52.6 C21.3,52.6 22.4,53.7 22.4,55 C22.4,56.3 21.3,57.4 20,57.4 L20,57.4 Z" id="2"></path>
                <path d="M182,61 C179.78,61 178,62.78 178,65 C178,66.46 178.82,67.76 180,68.44 L180,71 L176,75 L172,71 L172,68.44 C173.18,67.76 174,66.48 174,65 C174,62.78 172.22,61 170,61 C167.78,61 166,62.78 166,65 C166,66.46 166.82,67.76 168,68.44 L168,72 L174,78 L174,81.56 C172.82,82.24 172,83.52 172,85 C172,87.22 173.78,89 176,89 C178.22,89 180,87.22 180,85 C180,83.54 179.18,82.24 178,81.56 L178,78 L184,72 L184,68.44 C185.18,67.76 186,66.48 186,65 C186,62.78 184.22,61 182,61 L182,61 Z M170,67.4 C168.68,67.4 167.6,66.3 167.6,65 C167.6,63.7 168.7,62.6 170,62.6 C171.3,62.6 172.4,63.7 172.4,65 C172.4,66.3 171.3,67.4 170,67.4 L170,67.4 Z M176,87.4 C174.68,87.4 173.6,86.3 173.6,85 C173.6,83.7 174.7,82.6 176,82.6 C177.3,82.6 178.4,83.7 178.4,85 C178.4,86.3 177.3,87.4 176,87.4 L176,87.4 Z M182,67.4 C180.68,67.4 179.6,66.3 179.6,65 C179.6,63.7 180.7,62.6 182,62.6 C183.3,62.6 184.4,63.7 184.4,65 C184.4,66.3 183.3,67.4 182,67.4 L182,67.4 Z" id="2"></path>
                <path d="M16,128 C13.78,128 12,129.78 12,132 C12,133.46 12.82,134.76 14,135.44 L14,138 L10,142 L6,138 L6,135.44 C7.18,134.76 8,133.48 8,132 C8,129.78 6.22,128 4,128 C1.78,128 0,129.78 0,132 C0,133.46 0.82,134.76 2,135.44 L2,139 L8,145 L8,148.56 C6.82,149.24 6,150.52 6,152 C6,154.22 7.78,156 10,156 C12.22,156 14,154.22 14,152 C14,150.54 13.18,149.24 12,148.56 L12,145 L18,139 L18,135.44 C19.18,134.76 20,133.48 20,132 C20,129.78 18.22,128 16,128 L16,128 Z M4,134.4 C2.68,134.4 1.6,133.3 1.6,132 C1.6,130.7 2.7,129.6 4,129.6 C5.3,129.6 6.4,130.7 6.4,132 C6.4,133.3 5.3,134.4 4,134.4 L4,134.4 Z M10,154.4 C8.68,154.4 7.6,153.3 7.6,152 C7.6,150.7 8.7,149.6 10,149.6 C11.3,149.6 12.4,150.7 12.4,152 C12.4,153.3 11.3,154.4 10,154.4 L10,154.4 Z M16,134.4 C14.68,134.4 13.6,133.3 13.6,132 C13.6,130.7 14.7,129.6 16,129.6 C17.3,129.6 18.4,130.7 18.4,132 C18.4,133.3 17.3,134.4 16,134.4 L16,134.4 Z" id="2"></path>
                <path d="M121,146 C118.78,146 117,147.78 117,150 C117,151.46 117.82,152.76 119,153.44 L119,156 L115,160 L111,156 L111,153.44 C112.18,152.76 113,151.48 113,150 C113,147.78 111.22,146 109,146 C106.78,146 105,147.78 105,150 C105,151.46 105.82,152.76 107,153.44 L107,157 L113,163 L113,166.56 C111.82,167.24 111,168.52 111,170 C111,172.22 112.78,174 115,174 C117.22,174 119,172.22 119,170 C119,168.54 118.18,167.24 117,166.56 L117,163 L123,157 L123,153.44 C124.18,152.76 125,151.48 125,150 C125,147.78 123.22,146 121,146 L121,146 Z M109,152.4 C107.68,152.4 106.6,151.3 106.6,150 C106.6,148.7 107.7,147.6 109,147.6 C110.3,147.6 111.4,148.7 111.4,150 C111.4,151.3 110.3,152.4 109,152.4 L109,152.4 Z M115,172.4 C113.68,172.4 112.6,171.3 112.6,170 C112.6,168.7 113.7,167.6 115,167.6 C116.3,167.6 117.4,168.7 117.4,170 C117.4,171.3 116.3,172.4 115,172.4 L115,172.4 Z M121,152.4 C119.68,152.4 118.6,151.3 118.6,150 C118.6,148.7 119.7,147.6 121,147.6 C122.3,147.6 123.4,148.7 123.4,150 C123.4,151.3 122.3,152.4 121,152.4 L121,152.4 Z" id="2"></path>
                <path d="M93,0 C91.89,0 91,0.89 91,2 C91,2.73 91.41,3.38 92,3.72 L92,5 L90,7 L88,5 L88,3.72 C88.59,3.38 89,2.74 89,2 C89,0.89 88.11,0 87,0 C85.89,0 85,0.89 85,2 C85,2.73 85.41,3.38 86,3.72 L86,5.5 L89,8.5 L89,10.28 C88.41,10.62 88,11.26 88,12 C88,13.11 88.89,14 90,14 C91.11,14 92,13.11 92,12 C92,11.27 91.59,10.62 91,10.28 L91,8.5 L94,5.5 L94,3.72 C94.59,3.38 95,2.74 95,2 C95,0.89 94.11,0 93,0 L93,0 Z M87,3.2 C86.34,3.2 85.8,2.65 85.8,2 C85.8,1.35 86.35,0.8 87,0.8 C87.65,0.8 88.2,1.35 88.2,2 C88.2,2.65 87.65,3.2 87,3.2 L87,3.2 Z M90,13.2 C89.34,13.2 88.8,12.65 88.8,12 C88.8,11.35 89.35,10.8 90,10.8 C90.65,10.8 91.2,11.35 91.2,12 C91.2,12.65 90.65,13.2 90,13.2 L90,13.2 Z M93,3.2 C92.34,3.2 91.8,2.65 91.8,2 C91.8,1.35 92.35,0.8 93,0.8 C93.65,0.8 94.2,1.35 94.2,2 C94.2,2.65 93.65,3.2 93,3.2 L93,3.2 Z" id="1"></path>
                <path d="M25,17 C23.89,17 23,17.89 23,19 C23,19.73 23.41,20.38 24,20.72 L24,22 L22,24 L20,22 L20,20.72 C20.59,20.38 21,19.74 21,19 C21,17.89 20.11,17 19,17 C17.89,17 17,17.89 17,19 C17,19.73 17.41,20.38 18,20.72 L18,22.5 L21,25.5 L21,27.28 C20.41,27.62 20,28.26 20,29 C20,30.11 20.89,31 22,31 C23.11,31 24,30.11 24,29 C24,28.27 23.59,27.62 23,27.28 L23,25.5 L26,22.5 L26,20.72 C26.59,20.38 27,19.74 27,19 C27,17.89 26.11,17 25,17 L25,17 Z M19,20.2 C18.34,20.2 17.8,19.65 17.8,19 C17.8,18.35 18.35,17.8 19,17.8 C19.65,17.8 20.2,18.35 20.2,19 C20.2,19.65 19.65,20.2 19,20.2 L19,20.2 Z M22,30.2 C21.34,30.2 20.8,29.65 20.8,29 C20.8,28.35 21.35,27.8 22,27.8 C22.65,27.8 23.2,28.35 23.2,29 C23.2,29.65 22.65,30.2 22,30.2 L22,30.2 Z M25,20.2 C24.34,20.2 23.8,19.65 23.8,19 C23.8,18.35 24.35,17.8 25,17.8 C25.65,17.8 26.2,18.35 26.2,19 C26.2,19.65 25.65,20.2 25,20.2 L25,20.2 Z" id="1"></path>
                <path d="M169,27 C167.89,27 167,27.89 167,29 C167,29.73 167.41,30.38 168,30.72 L168,32 L166,34 L164,32 L164,30.72 C164.59,30.38 165,29.74 165,29 C165,27.89 164.11,27 163,27 C161.89,27 161,27.89 161,29 C161,29.73 161.41,30.38 162,30.72 L162,32.5 L165,35.5 L165,37.28 C164.41,37.62 164,38.26 164,39 C164,40.11 164.89,41 166,41 C167.11,41 168,40.11 168,39 C168,38.27 167.59,37.62 167,37.28 L167,35.5 L170,32.5 L170,30.72 C170.59,30.38 171,29.74 171,29 C171,27.89 170.11,27 169,27 L169,27 Z M163,30.2 C162.34,30.2 161.8,29.65 161.8,29 C161.8,28.35 162.35,27.8 163,27.8 C163.65,27.8 164.2,28.35 164.2,29 C164.2,29.65 163.65,30.2 163,30.2 L163,30.2 Z M166,40.2 C165.34,40.2 164.8,39.65 164.8,39 C164.8,38.35 165.35,37.8 166,37.8 C166.65,37.8 167.2,38.35 167.2,39 C167.2,39.65 166.65,40.2 166,40.2 L166,40.2 Z M169,30.2 C168.34,30.2 167.8,29.65 167.8,29 C167.8,28.35 168.35,27.8 169,27.8 C169.65,27.8 170.2,28.35 170.2,29 C170.2,29.65 169.65,30.2 169,30.2 L169,30.2 Z" id="1"></path>
            </g>
            <g id="Main" transform="translate(68.000000, 48.000000)" stroke-width="2" stroke-linecap="round" stroke-linejoin="round">
                <path d="M60,20 C60,27.3 64.1,33.8 70,37.2 L70,48.9956055 C70,49.5503173 69.6858478,50.3141522 69.2881894,50.7118106 L50,70 L30.7118106,50.7118106 C30.3186885,50.3186885 30,49.5444412 30,48.9956055 L30,37.2 C35.9,33.8 40,27.4 40,20 C40,8.9 31.1,0 20,0 C8.9,0 0,8.9 0,20 C0,27.3 4.1,33.8 10,37.2 L10,53.9919942 C10,54.5487004 10.3166156,55.3166156 10.7119875,55.7119875 L39.2880125,84.2880125 C39.6812324,84.6812324 40,85.4400024 40,86.0080058 L40,102.8 C34.1,106.2 30,112.6 30,120 C30,131.1 38.9,140 50,140 C61.1,140 70,131.1 70,120 C70,112.7 65.9,106.2 60,102.8 L60,86.0080058 C60,85.4512996 60.3166156,84.6833844 60.7119875,84.2880125 L89.2880125,55.7119875 C89.6812324,55.3187676 90,54.5599976 90,53.9919942 L90,37.2 C95.9,33.8 100,27.4 100,20 C100,8.9 91.1,0 80,0 C68.9,0 60,8.9 60,20 Z" id="main" stroke="#3B8594" fill-opacity="0.75999999" fill="#B9E1EA"></path>
                <path d="M80,28 C75.6,28 72,24.3333333 72,20 C72,15.6666667 75.6666667,12 80,12 C84.3333333,12 88,15.6666667 88,20 C88,24.3333333 84.3333333,28 80,28 L80,28 Z" id="Path" stroke="#4EA3B3" fill="#FFFFFF"></path>
                <path d="M50,128 C45.6,128 42,124.333333 42,120 C42,115.666667 45.6666667,112 50,112 C54.3333333,112 58,115.666667 58,120 C58,124.333333 54.3333333,128 50,128 L50,128 Z" id="Path" stroke="#4EA3B3" fill="#FFFFFF"></path>
                <path d="M20,28 C15.6,28 12,24.3333333 12,20 C12,15.6666667 15.6666667,12 20,12 C24.3333333,12 28,15.6666667 28,20 C28,24.3333333 24.3333333,28 20,28 L20,28 Z" id="Path" stroke="#4EA3B3" fill="#FFFFFF"></path>
            </g>
        </g>
    </g>
</svg>