<?xml version="1.0" encoding="UTF-8"?>
<svg width="120px" height="60px" viewBox="0 0 120 60" version="1.1" xmlns="http://www.w3.org/2000/svg" xmlns:xlink="http://www.w3.org/1999/xlink">
    <!-- Generator: Sketch 41.2 (35397) - http://www.bohemiancoding.com/sketch -->
    <title>dependencies</title>
    <desc>Created with Sketch.</desc>
    <defs></defs>
    <g id="Octicons" stroke="none" stroke-width="1" fill="none" fill-rule="evenodd">
        <g id="Icons" transform="translate(8.000000, 6.000000)">
            <g id="Dependencies" transform="translate(0.000000, 6.000000)">
                <path d="M35,14.735 L35,37.1449992 C35,38.4949986 35.9,39.6649998 37.25,40.0550001 L56.75,45.2450016 C57.2299995,45.3950022 57.7700004,45.3950022 58.25,45.2450016 L77.75,40.0550028 C79.0999994,39.6650025 80,38.4950016 80,37.1450022 L80,14.735 C80,13.3849999 79.0999994,12.2149995 77.75,11.8249999 L58.25,6.60499989 C57.7700004,6.51499998 57.2299995,6.51499998 56.75,6.60499989 L37.25,11.8249999 C35.8999999,12.2149995 35,13.3849999 35,14.735 Z M56,42.0050019 L38,37.2350013 L38,16.9250001 L56,21.7550005 L56,42.0050019 Z M38,13.9250001 L45.5,11.9149998 L65,17.1049999 L57.5,19.1150001 L38,13.9250001 Z M77,37.2350013 L59,42.0049989 L59,21.7550005 L65,20.1049999 L65,27.4250001 L71,25.8350009 L71,18.5149993 L77,16.9250001 L77,37.2350013 Z M71,15.5149993 L51.5,10.3249999 L57.5,8.73500001 L77,13.9250001 L71,15.5149993 Z" id="Package" fill="#3B8594"></path>
                <path d="M0,5.49750013 L0,17.4494997 C0,18.1694994 0.480000018,18.7935 1.2,19.0015002 L11.6,21.769501 C11.8559997,21.8495013 12.1440002,21.8495013 12.4,21.769501 L22.8,19.0015016 C23.5199997,18.7935014 24,18.169501 24,17.4495013 L24,5.49750013 C24,4.77750005 23.5199997,4.15349987 22.8,3.94550008 L12.4,1.16150006 C12.1440002,1.11350011 11.8559997,1.11350011 11.6,1.16150006 L1.2,3.94550008 C0.479999971,4.15349987 0,4.77750005 0,5.49750013 Z M11.2,20.0415011 L1.6,17.4975008 L1.6,6.66550016 L11.2,9.24150037 L11.2,20.0415011 Z M1.6,5.06550016 L5.6,3.99350003 L16,6.76150006 L12,7.83350018 L1.6,5.06550016 Z M22.4,17.4975008 L12.8,20.0414995 L12.8,9.24150037 L16,8.36150006 L16,12.2655002 L19.2,11.4175006 L19.2,7.51349973 L22.4,6.66550016 L22.4,17.4975008 Z M19.2,5.91349973 L8.8,3.14550008 L12,2.29750013 L22.4,5.06550016 L19.2,5.91349973 Z" id="Package" fill="#9FD0DB"></path>
                <path d="M91,3.26999998 L91,10.7399997 C91,11.1899995 91.3,11.5799999 91.75,11.71 L98.25,13.4400005 C98.4099998,13.4900007 98.5900001,13.4900007 98.75,13.4400005 L105.25,11.7100009 C105.7,11.5800008 106,11.1900005 106,10.7400007 L106,3.26999998 C106,2.81999993 105.7,2.42999982 105.25,2.29999995 L98.75,0.55999994 C98.5900001,0.52999997 98.4099998,0.52999997 98.25,0.55999994 L91.75,2.29999995 C91.3,2.42999982 91,2.81999993 91,3.26999998 Z M98,12.3600006 L92,10.7700004 L92,4 L98,5.61000013 L98,12.3600006 Z M92,3 L94.5,2.32999992 L101,4.05999994 L98.5,4.73000001 L92,3 Z M105,10.7700004 L99,12.3599996 L99,5.61000013 L101,5.05999994 L101,7.5 L103,6.97000026 L103,4.52999973 L105,4 L105,10.7700004 Z M103,3.52999973 L96.5,1.79999995 L98.5,1.26999998 L105,3 L103,3.52999973 Z" id="Package" fill="#9FD0DB"></path>
            </g>
        </g>
    </g>
</svg>