<?xml version="1.0" encoding="UTF-8"?>
<svg width="120px" height="60px" viewBox="0 0 120 60" version="1.1" xmlns="http://www.w3.org/2000/svg" xmlns:xlink="http://www.w3.org/1999/xlink">
    <!-- Generator: Sketch 41.2 (35397) - http://www.bohemiancoding.com/sketch -->
    <title>most_downloaded_packages</title>
    <desc>Created with Sketch.</desc>
    <defs></defs>
    <g id="Octicons" stroke="none" stroke-width="1" fill="none" fill-rule="evenodd">
        <g id="Icons" transform="translate(8.000000, -214.000000)">
            <g id="Downloads" transform="translate(1.000000, 223.000000)">
                <path d="M54,39 L60,39 L51,48 L42,39 L48,39 L48,24 L54,24 L54,39 Z M63,15 C63,13.6799998 60.2700003,6 49.5,6 C42.2399998,6 36,11.7600002 36,18 C30.0599999,18 27,22.5599999 27,27 C27,31.5899991 30,36 36,36 L45,36 L45,32.0999994 L36,32.0999994 C31.14,32.0999994 30.8999999,27.8399992 30.8999999,27 C30.8999999,26.4899998 31.0499997,21.9000006 36,21.9000006 L39.9000006,21.9000006 L39.9000006,18 C39.9000006,13.8300004 44.5800004,9.89999985 49.5,9.89999985 C57.1500003,9.89999985 58.8900003,14.5499997 59.0999994,15.2999997 L59.0999994,18.9000006 L63,18.9000006 C65.4300012,18.9000006 71.0999994,19.5599999 71.0999994,25.5 C71.0999994,31.7700003 64.3499994,32.0999994 63,32.0999994 L57,32.0999994 L57,36 L63,36 C69.2399997,36 75,32.5200003 75,25.5 C75,18.1799998 69.2399997,15 63,15 Z" id="Fill-2" fill="#3B8594"></path>
                <path d="M17.25,4.5 C17.25,3.83999991 15.9418751,-8.8817842e-16 10.78125,-8.8817842e-16 C7.30249988,-8.8817842e-16 4.3125,2.8800001 4.3125,6 C1.46624997,6 0,8.27999997 0,10.5 C0,12.7949995 1.4375,15 4.3125,15 L14.375,15 L14.375,13.0499997 L4.3125,13.0499997 C1.98374999,13.0499997 1.86874993,10.9199996 1.86874993,10.5 C1.86874993,10.2449999 1.94062486,7.95000028 4.3125,7.95000028 L6.18125027,7.95000028 L6.18125027,6 C6.18125027,3.91500019 8.42375019,1.94999992 10.78125,1.94999992 C14.4468751,1.94999992 15.2806251,4.27499985 15.3812497,4.64999985 L15.3812497,6.45000028 L17.25,6.45000028 C18.4143756,6.45000028 21.1312497,6.77999997 21.1312497,9.75 C21.1312497,12.8850001 17.8968747,13.0499997 17.25,13.0499997 L14.375,13.0499997 L14.375,15 L17.25,15 C20.2399999,15 23,13.2600001 23,9.75 C23,6.08999991 20.2399999,4.5 17.25,4.5 Z" id="Path" fill="#9FD0DB"></path>
                <path d="M93.5,3.7 C93.5,3.30399995 92.7037501,1 89.5625,1 C87.4449999,1 85.625,2.72800006 85.625,4.6 C83.8925,4.6 83,5.96799998 83,7.3 C83,8.67699973 83.875,10 85.625,10 L91.75,10 L91.75,8.82999982 L85.625,8.82999982 C84.2075,8.82999982 84.1375,7.55199976 84.1375,7.3 C84.1375,7.14699993 84.1812499,5.77000017 85.625,5.77000017 L86.7625002,5.77000017 L86.7625002,4.6 C86.7625002,3.34900012 88.1275001,2.16999995 89.5625,2.16999995 C91.7937501,2.16999995 92.3012501,3.56499991 92.3624998,3.78999991 L92.3624998,4.87000017 L93.5,4.87000017 C94.2087504,4.87000017 95.8624998,5.06799998 95.8624998,6.85 C95.8624998,8.73100009 93.8937498,8.82999982 93.5,8.82999982 L91.75,8.82999982 L91.75,10 L93.5,10 C95.3199999,10 97,8.95600009 97,6.85 C97,4.65399995 95.3199999,3.7 93.5,3.7 Z" id="Path" fill="#9FD0DB"></path>
            </g>
        </g>
    </g>
</svg>