<?xml version="1.0" encoding="UTF-8"?>
<svg width="120px" height="60px" viewBox="0 0 120 60" version="1.1" xmlns="http://www.w3.org/2000/svg" xmlns:xlink="http://www.w3.org/1999/xlink">
    <!-- Generator: Sketch 41.2 (35397) - http://www.bohemiancoding.com/sketch -->
    <title>package_authors</title>
    <desc>Created with Sketch.</desc>
    <defs></defs>
    <g id="Octicons" stroke="none" stroke-width="1" fill="none" fill-rule="evenodd">
        <g id="Icons" transform="translate(-319.000000, -214.000000)">
            <g id="Authors" transform="translate(346.000000, 223.000000)">
                <path d="M69,20 L57,20 C55.9,20 55,20.8999996 55,22 L55,32 L59,32 L59,38 C59,39.1000002 59.9000001,40 61,40 L65,40 C66.1000004,40 67,39.1000002 67,38 L67,32 L71,32 L71,22 C71,20.8999996 70.1000004,20 69,20 Z M69,30 L67,30 L67,26 L65,26 L65,38 L61,38 L61,26 L59,26 L59,30 L57,30 L57,22 L69,22 L69,30 Z M69,14 C69,10.6800001 66.3199997,8 63,8 C59.6800003,8 57,10.6800001 57,14 C57,17.3199997 59.6800003,20 63,20 C66.3199997,20 69,17.3199997 69,14 Z M63,18 C60.7799997,18 59,16.2200003 59,14 C59,11.7799997 60.7799997,10 63,10 C65.2200003,10 67,11.78 67,14 C67,16.2200003 65.2200003,18 63,18 Z" id="Fill-2" fill="#9FD0DB"></path>
                <path d="M10.5,21 L1.5,21 C0.674999982,21 0,21.6749997 0,22.5 L0,30 L3,30 L3,34.5 C3,35.3250002 3.67500006,36 4.5,36 L7.5,36 C8.32500029,36 9,35.3250002 9,34.5 L9,30 L12,30 L12,22.5 C12,21.6749997 11.3250003,21 10.5,21 Z M10.5,28.5 L9,28.5 L9,25.5 L7.5,25.5 L7.5,34.5 L4.5,34.5 L4.5,25.5 L3,25.5 L3,28.5 L1.5,28.5 L1.5,22.5 L10.5,22.5 L10.5,28.5 Z M10.5,16.5 C10.5,14.01 8.48999976,12 6,12 C3.51000022,12 1.5,14.01 1.5,16.5 C1.5,18.9899998 3.51000022,21 6,21 C8.48999976,21 10.5,18.9899998 10.5,16.5 Z M6,19.5 C4.33499979,19.5 3,18.1650002 3,16.5 C3,14.8349998 4.33499979,13.5 6,13.5 C7.6650002,13.5 9,14.835 9,16.5 C9,18.1650002 7.6650002,19.5 6,19.5 Z" id="Fill-2" fill="#9FD0DB"></path>
                <path d="M42,18 L24,18 C22.35,18 21,19.3499994 21,21 L21,36 L27,36 L27,45 C27,46.6500003 28.3500001,48 30,48 L36,48 C37.6500006,48 39,46.6500003 39,45 L39,36 L45,36 L45,21 C45,19.3499994 43.6500006,18 42,18 Z M42,33 L39,33 L39,27 L36,27 L36,45 L30,45 L30,27 L27,27 L27,33 L24,33 L24,21 L42,21 L42,33 Z M42,9 C42,4.02000009 37.9799995,0 33,0 C28.0200004,0 24,4.02000009 24,9 C24,13.9799995 28.0200004,18 33,18 C37.9799995,18 42,13.9799995 42,9 Z M33,15 C29.6699996,15 27,12.3300004 27,9 C27,5.66999958 29.6699996,3 33,3 C36.3300004,3 39,5.66999994 39,9 C39,12.3300004 36.3300004,15 33,15 Z" id="Fill-2" fill="#3B8594"></path>
            </g>
        </g>
    </g>
</svg>