<?xml version="1.0" encoding="UTF-8"?>
<svg width="120px" height="60px" viewBox="0 0 120 60" version="1.1" xmlns="http://www.w3.org/2000/svg" xmlns:xlink="http://www.w3.org/1999/xlink">
    <!-- Generator: Sketch 41.2 (35397) - http://www.bohemiancoding.com/sketch -->
    <title>package_dependencies</title>
    <desc>Created with Sketch.</desc>
    <defs></defs>
    <g id="Octicons" stroke="none" stroke-width="1" fill="none" fill-rule="evenodd">
        <g id="Icons" transform="translate(-647.000000, -214.000000)">
            <g id="PackDependencies" transform="translate(648.000000, 229.000000)">
                <path d="M0,8.19750005 L0,30.6074992 C0,31.9574986 0.900000033,33.1274998 2.25,33.5175001 L21.75,38.7075016 C22.2299995,38.8575022 22.7700004,38.8575022 23.25,38.7075016 L42.75,33.5175028 C44.0999994,33.1275025 45,31.9575016 45,30.6075022 L45,8.19750005 C45,6.8474999 44.0999994,5.67749957 42.75,5.28749996 L23.25,0.0674999325 C22.7700004,-0.0224999775 22.2299995,-0.0224999775 21.75,0.0674999325 L2.25,5.28749996 C0.899999946,5.67749957 0,6.8474999 0,8.19750005 Z M21,35.4675019 L3,30.6975013 L3,10.3875001 L21,15.2175005 L21,35.4675019 Z M3,7.38750011 L10.5,5.37749987 L30,10.5674999 L22.5,12.5775001 L3,7.38750011 Z M42,30.6975013 L24,35.4674989 L24,15.2175005 L30,13.5674999 L30,20.8875001 L36,19.2975009 L36,11.9774993 L42,10.3875001 L42,30.6975013 Z M36,8.9774993 L16.5,3.78749996 L22.5,2.19750005 L42,7.38750011 L36,8.9774993 Z" id="Package" fill="#3B8594"></path>
                <path d="M73,8.19750005 L73,30.6074992 C73,31.9574986 73.9,33.1274998 75.25,33.5175001 L94.75,38.7075016 C95.2299995,38.8575022 95.7700004,38.8575022 96.25,38.7075016 L115.75,33.5175028 C117.099999,33.1275025 118,31.9575016 118,30.6075022 L118,8.19750005 C118,6.8474999 117.099999,5.67749957 115.75,5.28749996 L96.25,0.0674999325 C95.7700004,-0.0224999775 95.2299995,-0.0224999775 94.75,0.0674999325 L75.25,5.28749996 C73.8999999,5.67749957 73,6.8474999 73,8.19750005 Z M94,35.4675019 L76,30.6975013 L76,10.3875001 L94,15.2175005 L94,35.4675019 Z M76,7.38750011 L83.5,5.37749987 L103,10.5674999 L95.5,12.5775001 L76,7.38750011 Z M115,30.6975013 L97,35.4674989 L97,15.2175005 L103,13.5674999 L103,20.8875001 L109,19.2975009 L109,11.9774993 L115,10.3875001 L115,30.6975013 Z M109,8.9774993 L89.5,3.78749996 L95.5,2.19750005 L115,7.38750011 L109,8.9774993 Z" id="Package" fill="#9FD0DB"></path>
                <path d="M59.8219757,16.9252879 C60.371051,16.9252879 60.8161644,16.4827966 60.8161644,15.9162576 L60.8161644,12.9481267 C60.8161644,12.3908547 61.1328824,12.2604721 61.5229165,12.656242 L67.4803039,18.701238 C67.8706323,19.0973066 67.870338,19.7397591 67.4803039,20.135529 L61.5229165,26.1805251 C61.1325881,26.5765936 60.8161644,26.4551793 60.8161644,25.8886403 L60.8161644,22.9205094 C60.8161644,22.3632374 60.366849,21.9114792 59.8219757,21.9114792 L52.9941887,21.9114792 C52.4451134,21.9114792 52,21.468988 52,20.902449 L52,17.9343181 C52,17.3770461 52.4493154,16.9252879 52.9941887,16.9252879 L59.8219757,16.9252879 Z" id="Path" fill="#3B8594"></path>
            </g>
        </g>
    </g>
</svg>