<?xml version="1.0" encoding="UTF-8"?>
<svg width="120px" height="60px" viewBox="0 0 120 60" version="1.1" xmlns="http://www.w3.org/2000/svg" xmlns:xlink="http://www.w3.org/1999/xlink">
    <!-- Generator: Sketch 41.2 (35397) - http://www.bohemiancoding.com/sketch -->
    <title>package_authors</title>
    <desc>Created with Sketch.</desc>
    <defs></defs>
    <g id="Octicons" stroke="none" stroke-width="1" fill="none" fill-rule="evenodd">
        <g id="Icons" transform="translate(-319.000000, -214.000000)">
            <g id="Authors" transform="translate(334.000000, 226.000000)">
                <path d="M16,22.5742854 C16,23.3614291 15.4040005,24 14.6693331,24 L1.33466672,24 C0.597333312,24 0,23.36 0,22.5699993 L0,21.1428571 C0,17.381428 5.33333333,15.4285714 5.33333333,15.4285714 C5.33333333,15.4285714 5.63866679,14.8442851 5.33333333,14 C4.21199988,13.1142859 4.07466665,11.7285712 4,8.28571429 C4.23066679,4.83857144 6.48933347,4 8,4 C9.51066652,4 11.7693329,4.8371428 12,8.28571429 C11.9253337,11.7285712 11.7879995,13.1142859 10.6666667,14 C10.3613332,14.8428574 10.6666667,15.4285714 10.6666667,15.4285714 C10.6666667,15.4285714 16,17.381428 16,21.1428571 L16,22.5742854 Z" id="Fill-2" stroke="#9FD0DB" stroke-width="1.60000002"></path>
                <path d="M86.2307692,24.7168569 C86.2307692,25.4252862 85.6634236,26 84.9640767,26 L72.2705001,26 C71.5686154,26 71,25.424 71,24.7129994 L71,23.4285714 C71,20.0432852 76.0769231,18.2857143 76.0769231,18.2857143 C76.0769231,18.2857143 76.367577,17.7598566 76.0769231,17 C75.0094999,16.2028573 74.8787692,14.9557141 74.8076923,11.8571429 C75.0272693,8.7547143 77.1773463,8 78.6153846,8 C80.0534229,8 82.2034996,8.75342852 82.4230769,11.8571429 C82.3520003,14.9557141 82.2212687,16.2028573 81.1538462,17 C80.8631922,17.7585716 81.1538462,18.2857143 81.1538462,18.2857143 C81.1538462,18.2857143 86.2307692,20.0432852 86.2307692,23.4285714 L86.2307692,24.7168569 Z" id="Fill-2" stroke="#9FD0DB" stroke-width="1.39999998"></path>
                <path d="M68,38.3105615 C68,39.5726871 66.7062503,41.1855615 65.125,41.1855615 L44.9856247,41.1855615 C43.4359996,41.1855615 42.1278748,39.900438 42.125,38.313438 L24.875,38.313438 C23.3225,38.313438 22,36.7005633 22,35.438438 C22,27.8656885 30.625,23.938438 30.625,23.938438 C30.625,23.938438 31.2833753,22.7625632 30.625,21.063438 C28.2071247,19.2780635 27.5832501,19.3671875 27.75,12.438438 C27.9167502,5.48381288 31.6801253,3.81343797 34.9375,3.81343797 C38.1948747,3.81343797 41.9582497,5.48093774 42.125,12.438438 C42.2917502,19.3671875 41.6678752,19.2780635 39.25,21.063438 C38.5916247,22.7596884 39.25,23.938438 39.25,23.938438 C39.25,23.938438 43.7033744,25.9825642 46.2075002,29.9414385 C48.4385003,27.8743142 50.75,26.8105618 50.75,26.8105618 C50.75,26.8105618 51.408375,25.6346884 50.75,23.9355632 C48.3321261,22.1530635 47.7082511,22.2393127 47.875,15.3105632 C48.0417489,8.35593774 51.8051239,6.68556317 55.0625,6.68556317 C58.3198759,6.68556317 62.0688756,8.35593774 62.2356244,15.3105632 C62.4052497,22.2393127 61.7813744,22.1530635 59.3606244,23.9355632 C58.7022491,25.6318122 59.3606244,26.8105618 59.3606244,26.8105618 C59.3606244,26.8105618 68,30.7378121 68,38.3105615" id="Fill-2" stroke="#3B8594" stroke-width="3"></path>
            </g>
            <g id="Page-1" transform="translate(374.000000, 238.000000)" stroke-opacity="0.00784313771" stroke="#000000" stroke-width="1.33333335e-11">
                <polygon id="Stroke-1" points="0 0 12.0000004 0 12.0000004 16.0000002 0 16.0000002"></polygon>
            </g>
        </g>
    </g>
</svg>