<?xml version="1.0" encoding="UTF-8"?>
<svg width="120px" height="60px" viewBox="0 0 120 60" version="1.1" xmlns="http://www.w3.org/2000/svg" xmlns:xlink="http://www.w3.org/1999/xlink">
    <!-- Generator: Sketch 41.2 (35397) - http://www.bohemiancoding.com/sketch -->
    <title>starred_apps</title>
    <desc>Created with Sketch.</desc>
    <defs></defs>
    <g id="Octicons" stroke="none" stroke-width="1" fill="none" fill-rule="evenodd">
        <g id="Icons" transform="translate(8.000000, -434.000000)">
            <g id="Starred" transform="translate(13.000000, 434.000000)">
                <path d="M40.3847069,49.3604304 C39.8960958,49.1035523 39.106374,49.102252 38.6152895,49.3604304 L26.7406979,55.6032726 C26.2520868,55.8601506 25.9311647,55.6300845 26.0249535,55.0832538 L28.2927987,41.8607019 C28.3861151,41.3166254 28.1433144,40.5651535 27.7460187,40.1778859 L18.1392723,30.8136226 C17.7439776,30.4283054 17.8636132,30.0519961 18.4126623,29.9722146 L31.6888593,28.0430702 C32.2351431,27.9636905 32.8748058,27.5005557 33.1203481,27.0030327 L39.0576438,14.9727575 C39.3019494,14.4777404 39.6968103,14.4752346 39.9423525,14.9727575 L45.8796483,27.0030327 C46.1239539,27.4980499 46.7620879,27.9632887 47.3111371,28.0430702 L60.587334,29.9722146 C61.1336179,30.0515942 61.2580197,30.426355 60.860724,30.8136226 L51.2539777,40.1778859 C50.858683,40.563203 50.6134088,41.3138712 50.7071976,41.8607019 L52.9750428,55.0832538 C53.0683592,55.6273303 52.7503829,55.861451 52.2592984,55.6032726 L40.3847069,49.3604304 Z" id="Star" stroke="#3B8594" stroke-width="3"></path>
                <polygon id="Star" fill="#A0D0DB" points="68.3042261 15.6992577 62.4329032 18.7859948 63.5542261 12.2481806 58.8042261 7.61807497 65.3685646 6.66422075 68.3042261 0.715920956 71.2398875 6.66422075 77.8042261 7.61807497 73.0542261 12.2481806 74.175549 18.7859948"></polygon>
                <polygon id="Star" fill="#A0D0DB" points="17.5 18.82895 12.8647451 21.2658477 13.75 16.1044155 10 12.449069 15.1823725 11.6960262 17.5 7 19.8176275 11.6960262 25 12.449069 21.25 16.1044155 22.1352549 21.2658477"></polygon>
                <polygon id="Star" fill="#A0D0DB" points="5.5 48.6745633 2.10081306 50.4616217 2.75 46.6765714 4.39648318e-14 43.9959839 3.80040653 43.4437525 5.5 40 7.19959347 43.4437525 11 43.9959839 8.25 46.6765714 8.89918694 50.4616217"></polygon>
            </g>
        </g>
    </g>
</svg>