<?xml version="1.0" encoding="UTF-8"?>
<svg width="800px" height="800px" viewBox="0 0 800 800" version="1.1" xmlns="http://www.w3.org/2000/svg" xmlns:xlink="http://www.w3.org/1999/xlink">
    <!-- Generator: Sketch 53.2 (72643) - https://sketchapp.com -->
    <title>aircall-icon</title>
    <desc>Created with Sketch.</desc>
    <defs>
        <path d="M399.418768,11.3948969 C458.991918,23.8959489 505.905376,70.8094068 518.406428,130.382556 C525.302183,160.261576 529.801325,209.376085 529.801325,264.900662 C529.801325,320.42524 525.302183,369.539749 518.406428,399.418768 C505.905376,458.991918 458.991918,505.905376 399.418768,518.406428 C369.539749,525.302183 320.42524,529.801325 264.900662,529.801325 C209.376085,529.801325 160.261576,525.302183 130.382556,518.406428 C70.8094068,505.905376 23.8959489,458.991918 11.3948969,399.418768 C4.49914169,369.539749 5.85534628e-15,320.42524 0,264.900662 C-5.85534628e-15,209.376085 4.49914169,160.261576 11.3948969,130.382556 C23.8959489,70.8094068 70.8094068,23.8959489 130.382556,11.3948969 C160.261576,4.49914169 209.376085,0 264.900662,0 C320.42524,0 369.539749,4.49914169 399.418768,11.3948969 Z M328.555529,406.689151 C330.214715,410.63833 334.241162,413.057487 338.506995,412.66816 L338.506997,412.668176 C339.791242,412.550968 340.885481,412.447299 341.789712,412.357169 C362.537732,410.289102 378.845729,407.405615 388.324163,404.041017 C388.33955,404.03296 388.358367,404.024751 388.380615,404.01639 C394.74674,401.624008 399.276682,395.479844 399.276682,388.277655 C399.276682,388.098631 399.273883,387.920261 399.268327,387.742586 C399.253733,387.452716 399.236714,387.156691 399.217287,386.854575 C399.211639,386.787215 399.205595,386.719969 399.199155,386.652837 C399.181073,386.464328 399.169742,386.282076 399.165164,386.10608 C397.54806,364.484993 384.417548,313.866618 364.805614,256.091724 C342.385141,190.043139 318.938154,136.571414 308.365065,126.14187 C308.360261,126.134926 308.35513,126.128618 308.349673,126.122945 C306.677569,124.384605 304.730251,122.912911 302.577817,121.77796 C301.73766,121.298141 300.673121,120.83929 299.409254,120.406399 C299.376227,120.395026 299.343166,120.383726 299.310071,120.372502 L299.297378,120.368324 C292.363295,118.023385 279.560476,116.449936 264.900662,116.449936 L264.887898,116.449936 C250.240848,116.449936 237.43803,118.023385 230.491254,120.372502 C230.458158,120.383726 230.425097,120.395026 230.392071,120.406399 C229.128203,120.83929 228.063665,121.298141 227.223508,121.77796 C225.071073,122.912911 223.123756,124.384605 221.451652,126.122945 C221.446194,126.128618 221.441064,126.134926 221.43626,126.14187 C210.863171,136.571414 187.416184,190.043139 164.99571,256.091724 C145.383776,313.866618 132.253265,364.484993 130.636161,386.10608 C130.631582,386.282076 130.620251,386.464328 130.602169,386.652837 C130.59573,386.719969 130.589685,386.787215 130.584038,386.854575 C130.56461,387.156691 130.547592,387.452716 130.532998,387.742586 C130.527442,387.920261 130.524643,388.098631 130.524643,388.277655 C130.524643,395.479844 135.054585,401.624008 141.42071,404.01639 C141.442958,404.024751 141.461775,404.03296 141.477162,404.041017 C150.963923,407.408571 167.292254,410.294168 188.06631,412.362618 C188.872879,412.442928 189.83126,412.534061 190.941452,412.63603 C195.39015,413.044588 199.595282,410.539634 201.354409,406.433139 C206.4256,394.594982 217.035995,385.693645 229.925955,382.988768 C237.6945,381.195872 250.464272,380.026095 264.900662,380.026095 C279.337052,380.026095 292.106825,381.195872 299.87537,382.988768 C312.858083,385.713109 323.528308,394.723409 328.555529,406.689151 Z" id="path-1"></path>
    </defs>
    <g id="aircall-icon" stroke="none" stroke-width="1" fill="none" fill-rule="evenodd">
        <g style="mix-blend-mode: multiply;" transform="translate(135.099338, 135.099338)">
            <mask id="mask-2" fill="white">
                <use xlink:href="#path-1"></use>
            </mask>
            <use id="Combined-Shape" fill="#00B388" xlink:href="#path-1"></use>
        </g>
    </g>
</svg>